<svg width="539" height="222" viewBox="0 0 539 222" fill="none" xmlns="http://www.w3.org/2000/svg">
<path d="M482.643 127.348C482.878 138.483 481.34 149.584 478.086 160.236C477.971 160.623 477.835 161.01 477.698 161.397H410.608C411.567 156.68 413.089 152.095 415.143 147.741C420.726 135.906 429.842 125.778 438.843 115.718C451.24 101.858 463.341 88.111 465.255 70.0856C470.169 77.5672 474.091 85.6535 476.923 94.1423C473.456 95.425 470.274 97.3734 467.557 99.8777C466.805 100.583 466.007 101.607 466.395 102.586C466.759 103.405 467.762 103.679 468.651 103.861C470.793 104.27 472.935 104.68 475.077 105.067C476.764 105.408 478.473 105.727 480.182 106.046C481.684 113.051 482.509 120.185 482.643 127.348Z" fill="#F2F2F2"/>
<path d="M539 119.974C528.244 126.506 521.407 136.611 515.824 147.923C510.965 149.029 506.48 151.382 502.811 154.751C502.036 155.456 501.239 156.48 501.649 157.459C501.991 158.279 503.017 158.552 503.905 158.734C506.024 159.143 508.189 159.553 510.309 159.94C510.104 160.418 509.899 160.919 509.694 161.397H438.593C441.82 157.049 445.394 152.97 449.28 149.197C450.124 148.355 450.99 147.559 451.878 146.739C460.942 138.559 471.349 131.999 482.643 127.348C500.436 119.92 519.892 117.374 539 119.974Z" fill="#F2F2F2"/>
<path d="M450.443 161.397H387.135C386.79 156.334 386.82 151.252 387.227 146.193C389.756 114.944 406.779 85.1751 432.462 67.1495C429.181 78.8251 430.867 90.4325 434.285 102.085C433.807 102.245 433.328 102.381 432.895 102.563C429.428 103.846 426.246 105.794 423.529 108.299C422.777 109.004 421.98 110.028 422.367 111.007C422.709 111.826 423.734 112.099 424.623 112.282C426.765 112.691 428.907 113.101 431.027 113.488C432.736 113.829 434.445 114.148 436.154 114.489C436.952 114.626 437.749 114.785 438.547 114.944C438.661 115.217 438.729 115.468 438.843 115.718C442.854 126.757 447.229 137.886 449.28 149.197C449.788 152.036 450.138 154.901 450.329 157.778C450.397 158.984 450.443 160.19 450.443 161.397Z" fill="#F2F2F2"/>
<path d="M105.412 127.348C105.647 138.483 104.108 149.584 100.854 160.236C100.74 160.623 100.603 161.01 100.467 161.397H33.3764C34.3355 156.68 35.8581 152.095 37.9115 147.741C43.4947 135.906 52.6102 125.778 61.6118 115.718C74.0089 101.858 86.1098 88.111 88.0241 70.0856C92.9381 77.5672 96.86 85.6535 99.692 94.1423C96.2249 95.425 93.0429 97.3734 90.3258 99.8777C89.5737 100.583 88.776 101.607 89.1635 102.586C89.5281 103.405 90.5308 103.679 91.4196 103.861C93.5617 104.27 95.7039 104.68 97.846 105.067C99.5324 105.408 101.242 105.727 102.951 106.046C104.453 113.051 105.277 120.185 105.412 127.348Z" fill="#F2F2F2"/>
<path d="M161.769 119.974C151.012 126.506 144.176 136.611 138.592 147.923C133.734 149.029 129.248 151.382 125.58 154.751C124.805 155.456 124.008 156.48 124.418 157.459C124.76 158.279 125.785 158.552 126.674 158.734C128.793 159.143 130.958 159.553 133.077 159.94C132.872 160.418 132.667 160.919 132.462 161.397H61.3612C64.5888 157.049 68.1631 152.97 72.0491 149.197C72.8923 148.355 73.7583 147.559 74.6471 146.739C83.7107 138.559 94.1179 131.999 105.412 127.348C123.204 119.92 142.661 117.374 161.769 119.974Z" fill="#F2F2F2"/>
<path d="M73.2114 161.397H9.904C9.55829 156.334 9.58879 151.252 9.99525 146.193C12.5248 114.944 29.5479 85.1751 55.231 67.1495C51.9494 78.8251 53.6357 90.4325 57.0541 102.085C56.5756 102.245 56.097 102.381 55.664 102.563C52.1969 103.846 49.015 105.794 46.2978 108.299C45.5457 109.004 44.7482 110.028 45.1356 111.007C45.4773 111.826 46.5028 112.099 47.3916 112.282C49.5337 112.691 51.6759 113.101 53.7952 113.488C55.5044 113.829 57.2136 114.148 58.9227 114.489C59.7203 114.626 60.518 114.785 61.3155 114.944C61.4294 115.217 61.4979 115.468 61.6118 115.718C65.6227 126.757 69.9981 137.886 72.0491 149.197C72.5568 152.036 72.9068 154.901 73.0974 157.778C73.1658 158.984 73.2114 160.19 73.2114 161.397Z" fill="#F2F2F2"/>
<path d="M127.952 149.842C127.952 151.933 128.353 154.006 129.134 155.946C129.435 156.698 129.793 157.426 130.206 158.123C130.74 159.032 131.359 159.888 132.055 160.68C133.594 162.431 135.489 163.833 137.614 164.794C139.739 165.755 142.044 166.252 144.377 166.251H384.01C388.366 166.251 392.544 164.523 395.624 161.447C398.704 158.371 400.435 154.199 400.435 149.848C400.435 145.498 398.704 141.326 395.624 138.249C392.544 135.173 388.366 133.445 384.01 133.445H144.377C140.023 133.449 135.849 135.178 132.77 138.252C129.691 141.326 127.958 145.494 127.952 149.842Z" fill="#E6E6E6"/>
<path d="M0 159.212C5.31998 165.507 11.0741 171.424 17.2204 176.918H511.161C517.307 171.424 523.061 165.507 528.381 159.212H0Z" fill="#3F3D56"/>
<path d="M242.928 100.003V162.728H286.929V100.003C286.929 99.5516 286.785 99.1121 286.517 98.7489C286.249 98.3856 285.872 98.1177 285.44 97.9845C285.237 97.9174 285.024 97.8843 284.81 97.8866H245.053C244.775 97.8861 244.499 97.9404 244.241 98.0465C243.983 98.1526 243.749 98.3083 243.552 98.5048C243.354 98.7014 243.198 98.9348 243.091 99.1918C242.984 99.4489 242.929 99.7244 242.928 100.003ZM260.1 121.556C260.111 120.319 260.611 119.137 261.491 118.267C262.371 117.397 263.559 116.909 264.797 116.909C266.035 116.909 267.223 117.397 268.103 118.267C268.982 119.137 269.482 120.319 269.494 121.556V128.834C269.487 130.074 268.99 131.261 268.11 132.135C267.229 133.01 266.038 133.501 264.797 133.501C263.555 133.501 262.364 133.01 261.484 132.135C260.604 131.261 260.106 130.074 260.1 128.834V121.556Z" fill="#2F2E41"/>
<path d="M242.794 160.722V166.771C242.795 167.084 242.919 167.385 243.141 167.607C243.362 167.829 243.662 167.955 243.976 167.958H285.881C286.195 167.956 286.496 167.83 286.718 167.608C286.939 167.386 287.063 167.085 287.063 166.771V160.722H242.794Z" fill="#3F3D56"/>
<path d="M173.71 5.49828V120.027C173.711 121.486 174.292 122.885 175.326 123.917C176.359 124.95 177.76 125.53 179.222 125.531H349.159C350.621 125.53 352.022 124.95 353.055 123.917C354.089 122.885 354.67 121.486 354.671 120.027V5.49828C354.667 4.04005 354.085 2.64263 353.052 1.61208C352.019 0.581524 350.62 0.00185193 349.159 0H179.222C177.762 0.00185838 176.362 0.581544 175.329 1.6121C174.296 2.64265 173.714 4.04005 173.71 5.49828Z" fill="#3F3D56"/>
<path d="M177.697 6.92328V118.614C177.698 119.394 178.009 120.141 178.561 120.692C179.113 121.244 179.862 121.554 180.642 121.556H347.745C348.526 121.554 349.274 121.244 349.826 120.692C350.378 120.141 350.689 119.394 350.69 118.614V6.92328C350.69 6.14253 350.38 5.39368 349.828 4.84103C349.276 4.28838 348.527 3.97706 347.745 3.97536H180.642C179.861 3.97707 179.111 4.2884 178.559 4.84105C178.007 5.39369 177.697 6.14253 177.697 6.92328Z" fill="#12DC01"/>
<path d="M211.77 169.383C211.94 169.596 212.156 169.767 212.402 169.885C212.649 170.003 212.918 170.063 213.191 170.062H312.606C312.878 170.061 313.146 170 313.392 169.883C313.637 169.766 313.853 169.596 314.025 169.385C314.196 169.175 314.318 168.928 314.382 168.664C314.446 168.4 314.45 168.126 314.394 167.86L312.851 160.539C312.787 160.24 312.649 159.963 312.45 159.731C312.251 159.499 311.998 159.321 311.712 159.212C311.505 159.131 311.285 159.089 311.063 159.089H214.728C214.506 159.089 214.286 159.131 214.079 159.212C213.793 159.321 213.539 159.499 213.34 159.731C213.141 159.963 213.004 160.24 212.94 160.539L211.397 167.86C211.342 168.125 211.347 168.4 211.411 168.663C211.476 168.927 211.598 169.172 211.77 169.383Z" fill="#2F2E41"/>
<path d="M307.594 162.243H310.058C310.223 162.243 310.357 162.109 310.357 161.944V160.707C310.357 160.542 310.223 160.408 310.058 160.408H307.594C307.429 160.408 307.295 160.542 307.295 160.707V161.944C307.295 162.109 307.429 162.243 307.594 162.243Z" fill="#3F3D56"/>
<path d="M301.47 162.243H303.934C304.099 162.243 304.233 162.109 304.233 161.944V160.707C304.233 160.542 304.099 160.408 303.934 160.408H301.47C301.305 160.408 301.171 160.542 301.171 160.707V161.944C301.171 162.109 301.305 162.243 301.47 162.243Z" fill="#3F3D56"/>
<path d="M295.346 162.243H297.81C297.975 162.243 298.109 162.109 298.109 161.944V160.707C298.109 160.542 297.975 160.408 297.81 160.408H295.346C295.181 160.408 295.047 160.542 295.047 160.707V161.944C295.047 162.109 295.181 162.243 295.346 162.243Z" fill="#3F3D56"/>
<path d="M289.222 162.243H291.686C291.851 162.243 291.985 162.109 291.985 161.944V160.707C291.985 160.542 291.851 160.408 291.686 160.408H289.222C289.057 160.408 288.923 160.542 288.923 160.707V161.944C288.923 162.109 289.057 162.243 289.222 162.243Z" fill="#3F3D56"/>
<path d="M283.098 162.243H285.562C285.727 162.243 285.861 162.109 285.861 161.944V160.707C285.861 160.542 285.727 160.408 285.562 160.408H283.098C282.933 160.408 282.799 160.542 282.799 160.707V161.944C282.799 162.109 282.933 162.243 283.098 162.243Z" fill="#3F3D56"/>
<path d="M276.974 162.243H279.438C279.603 162.243 279.737 162.109 279.737 161.944V160.707C279.737 160.542 279.603 160.408 279.438 160.408H276.974C276.809 160.408 276.675 160.542 276.675 160.707V161.944C276.675 162.109 276.809 162.243 276.974 162.243Z" fill="#3F3D56"/>
<path d="M270.85 162.243H273.314C273.479 162.243 273.613 162.109 273.613 161.944V160.707C273.613 160.542 273.479 160.408 273.314 160.408H270.85C270.685 160.408 270.551 160.542 270.551 160.707V161.944C270.551 162.109 270.685 162.243 270.85 162.243Z" fill="#3F3D56"/>
<path d="M264.726 162.243H267.19C267.356 162.243 267.489 162.109 267.489 161.944V160.707C267.489 160.542 267.356 160.408 267.19 160.408H264.726C264.561 160.408 264.428 160.542 264.428 160.707V161.944C264.428 162.109 264.561 162.243 264.726 162.243Z" fill="#3F3D56"/>
<path d="M258.603 162.243H261.067C261.232 162.243 261.366 162.109 261.366 161.944V160.707C261.366 160.542 261.232 160.408 261.067 160.408H258.603C258.437 160.408 258.304 160.542 258.304 160.707V161.944C258.304 162.109 258.437 162.243 258.603 162.243Z" fill="#3F3D56"/>
<path d="M252.479 162.243H254.943C255.108 162.243 255.242 162.109 255.242 161.944V160.707C255.242 160.542 255.108 160.408 254.943 160.408H252.479C252.314 160.408 252.18 160.542 252.18 160.707V161.944C252.18 162.109 252.314 162.243 252.479 162.243Z" fill="#3F3D56"/>
<path d="M246.355 162.243H248.819C248.984 162.243 249.118 162.109 249.118 161.944V160.707C249.118 160.542 248.984 160.408 248.819 160.408H246.355C246.19 160.408 246.056 160.542 246.056 160.707V161.944C246.056 162.109 246.19 162.243 246.355 162.243Z" fill="#3F3D56"/>
<path d="M240.231 162.243H242.695C242.86 162.243 242.994 162.109 242.994 161.944V160.707C242.994 160.542 242.86 160.408 242.695 160.408H240.231C240.066 160.408 239.932 160.542 239.932 160.707V161.944C239.932 162.109 240.066 162.243 240.231 162.243Z" fill="#3F3D56"/>
<path d="M234.107 162.243H236.571C236.736 162.243 236.87 162.109 236.87 161.944V160.707C236.87 160.542 236.736 160.408 236.571 160.408H234.107C233.942 160.408 233.808 160.542 233.808 160.707V161.944C233.808 162.109 233.942 162.243 234.107 162.243Z" fill="#3F3D56"/>
<path d="M227.983 162.243H230.447C230.612 162.243 230.746 162.109 230.746 161.944V160.707C230.746 160.542 230.612 160.408 230.447 160.408H227.983C227.818 160.408 227.684 160.542 227.684 160.707V161.944C227.684 162.109 227.818 162.243 227.983 162.243Z" fill="#3F3D56"/>
<path d="M221.859 162.243H224.323C224.488 162.243 224.622 162.109 224.622 161.944V160.707C224.622 160.542 224.488 160.408 224.323 160.408H221.859C221.694 160.408 221.56 160.542 221.56 160.707V161.944C221.56 162.109 221.694 162.243 221.859 162.243Z" fill="#3F3D56"/>
<path d="M215.735 162.243H218.199C218.365 162.243 218.498 162.109 218.498 161.944V160.707C218.498 160.542 218.365 160.408 218.199 160.408H215.735C215.57 160.408 215.436 160.542 215.436 160.707V161.944C215.436 162.109 215.57 162.243 215.735 162.243Z" fill="#3F3D56"/>
<path d="M307.666 165.301H310.13C310.295 165.301 310.429 165.167 310.429 165.002V163.765C310.429 163.6 310.295 163.466 310.13 163.466H307.666C307.501 163.466 307.367 163.6 307.367 163.765V165.002C307.367 165.167 307.501 165.301 307.666 165.301Z" fill="#3F3D56"/>
<path d="M301.542 165.301H304.006C304.171 165.301 304.305 165.167 304.305 165.002V163.765C304.305 163.6 304.171 163.466 304.006 163.466H301.542C301.377 163.466 301.243 163.6 301.243 163.765V165.002C301.243 165.167 301.377 165.301 301.542 165.301Z" fill="#3F3D56"/>
<path d="M295.418 165.301H297.882C298.047 165.301 298.181 165.167 298.181 165.002V163.765C298.181 163.6 298.047 163.466 297.882 163.466H295.418C295.253 163.466 295.119 163.6 295.119 163.765V165.002C295.119 165.167 295.253 165.301 295.418 165.301Z" fill="#3F3D56"/>
<path d="M289.294 165.301H291.758C291.924 165.301 292.057 165.167 292.057 165.002V163.765C292.057 163.6 291.924 163.466 291.758 163.466H289.294C289.129 163.466 288.995 163.6 288.995 163.765V165.002C288.995 165.167 289.129 165.301 289.294 165.301Z" fill="#3F3D56"/>
<path d="M283.171 165.301H285.635C285.8 165.301 285.934 165.167 285.934 165.002V163.765C285.934 163.6 285.8 163.466 285.635 163.466H283.171C283.005 163.466 282.872 163.6 282.872 163.765V165.002C282.872 165.167 283.005 165.301 283.171 165.301Z" fill="#3F3D56"/>
<path d="M277.047 165.301H279.511C279.676 165.301 279.81 165.167 279.81 165.002V163.765C279.81 163.6 279.676 163.466 279.511 163.466H277.047C276.882 163.466 276.748 163.6 276.748 163.765V165.002C276.748 165.167 276.882 165.301 277.047 165.301Z" fill="#3F3D56"/>
<path d="M270.923 165.301H273.387C273.552 165.301 273.686 165.167 273.686 165.002V163.765C273.686 163.6 273.552 163.466 273.387 163.466H270.923C270.758 163.466 270.624 163.6 270.624 163.765V165.002C270.624 165.167 270.758 165.301 270.923 165.301Z" fill="#3F3D56"/>
<path d="M264.799 165.301H267.263C267.428 165.301 267.562 165.167 267.562 165.002V163.765C267.562 163.6 267.428 163.466 267.263 163.466H264.799C264.634 163.466 264.5 163.6 264.5 163.765V165.002C264.5 165.167 264.634 165.301 264.799 165.301Z" fill="#3F3D56"/>
<path d="M258.675 165.301H261.139C261.304 165.301 261.438 165.167 261.438 165.002V163.765C261.438 163.6 261.304 163.466 261.139 163.466H258.675C258.51 163.466 258.376 163.6 258.376 163.765V165.002C258.376 165.167 258.51 165.301 258.675 165.301Z" fill="#3F3D56"/>
<path d="M252.551 165.301H255.015C255.18 165.301 255.314 165.167 255.314 165.002V163.765C255.314 163.6 255.18 163.466 255.015 163.466H252.551C252.386 163.466 252.252 163.6 252.252 163.765V165.002C252.252 165.167 252.386 165.301 252.551 165.301Z" fill="#3F3D56"/>
<path d="M246.427 165.301H248.891C249.056 165.301 249.19 165.167 249.19 165.002V163.765C249.19 163.6 249.056 163.466 248.891 163.466H246.427C246.262 163.466 246.128 163.6 246.128 163.765V165.002C246.128 165.167 246.262 165.301 246.427 165.301Z" fill="#3F3D56"/>
<path d="M240.303 165.301H242.767C242.932 165.301 243.066 165.167 243.066 165.002V163.765C243.066 163.6 242.932 163.466 242.767 163.466H240.303C240.138 163.466 240.004 163.6 240.004 163.765V165.002C240.004 165.167 240.138 165.301 240.303 165.301Z" fill="#3F3D56"/>
<path d="M234.179 165.301H236.643C236.809 165.301 236.942 165.167 236.942 165.002V163.765C236.942 163.6 236.809 163.466 236.643 163.466H234.179C234.014 163.466 233.88 163.6 233.88 163.765V165.002C233.88 165.167 234.014 165.301 234.179 165.301Z" fill="#3F3D56"/>
<path d="M228.056 165.301H230.52C230.685 165.301 230.819 165.167 230.819 165.002V163.765C230.819 163.6 230.685 163.466 230.52 163.466H228.056C227.89 163.466 227.757 163.6 227.757 163.765V165.002C227.757 165.167 227.89 165.301 228.056 165.301Z" fill="#3F3D56"/>
<path d="M221.932 165.301H224.396C224.561 165.301 224.695 165.167 224.695 165.002V163.765C224.695 163.6 224.561 163.466 224.396 163.466H221.932C221.767 163.466 221.633 163.6 221.633 163.765V165.002C221.633 165.167 221.767 165.301 221.932 165.301Z" fill="#3F3D56"/>
<path d="M215.808 165.301H218.272C218.437 165.301 218.571 165.167 218.571 165.002V163.765C218.571 163.6 218.437 163.466 218.272 163.466H215.808C215.643 163.466 215.509 163.6 215.509 163.765V165.002C215.509 165.167 215.643 165.301 215.808 165.301Z" fill="#3F3D56"/>
<path d="M256.838 168.97H280.735C280.901 168.97 281.034 168.837 281.034 168.672V167.434C281.034 167.269 280.901 167.136 280.735 167.136H256.838C256.673 167.136 256.539 167.269 256.539 167.434V168.672C256.539 168.837 256.673 168.97 256.838 168.97Z" fill="#3F3D56"/>
<path d="M189.039 19.3612H345.396C345.559 19.3577 345.714 19.2907 345.827 19.1746C345.941 19.0585 346.005 18.9026 346.005 18.7402C346.005 18.5779 345.941 18.422 345.827 18.3059C345.714 18.1898 345.559 18.1228 345.396 18.1193H189.039C188.877 18.1228 188.722 18.1898 188.608 18.3059C188.495 18.422 188.431 18.5779 188.431 18.7402C188.431 18.9026 188.495 19.0585 188.608 19.1746C188.722 19.2907 188.877 19.3577 189.039 19.3612Z" fill="#3F3D56"/>
<path d="M334.753 14.9486C336.766 14.9486 338.397 13.283 338.397 11.2282C338.397 9.17352 336.766 7.50785 334.753 7.50785C332.741 7.50785 331.109 9.17352 331.109 11.2282C331.109 13.283 332.741 14.9486 334.753 14.9486Z" fill="#3F3D56"/>
<path d="M322.165 14.9486C324.177 14.9486 325.809 13.283 325.809 11.2282C325.809 9.17352 324.177 7.50785 322.165 7.50785C320.152 7.50785 318.521 9.17352 318.521 11.2282C318.521 13.283 320.152 14.9486 322.165 14.9486Z" fill="#3F3D56"/>
<path d="M309.577 14.9486C311.589 14.9486 313.22 13.283 313.22 11.2282C313.22 9.17352 311.589 7.50785 309.577 7.50785C307.564 7.50785 305.933 9.17352 305.933 11.2282C305.933 13.283 307.564 14.9486 309.577 14.9486Z" fill="#3F3D56"/>
<path d="M195.952 9.1067C195.952 9.19465 195.969 9.28181 196.002 9.36323C196.035 9.44464 196.084 9.51872 196.146 9.58119C196.208 9.64367 196.282 9.69333 196.363 9.72735C196.444 9.76137 196.531 9.77908 196.62 9.77946H205.56C205.737 9.77535 205.905 9.70233 206.029 9.57604C206.152 9.44975 206.222 9.2802 206.222 9.10364C206.222 8.92708 206.152 8.75753 206.029 8.63124C205.905 8.50495 205.737 8.43193 205.56 8.42781H196.62C196.441 8.42998 196.271 8.50259 196.146 8.62978C196.021 8.75698 195.951 8.92844 195.952 9.1067Z" fill="#3F3D56"/>
<path d="M195.952 11.6449C195.952 11.7328 195.969 11.82 196.002 11.9014C196.035 11.9828 196.084 12.0569 196.146 12.1193C196.208 12.1818 196.282 12.2315 196.363 12.2655C196.444 12.2995 196.531 12.3172 196.62 12.3176H205.56C205.737 12.3137 205.906 12.2408 206.029 12.1145C206.153 11.9882 206.222 11.8185 206.222 11.6418C206.222 11.4651 206.153 11.2954 206.029 11.1691C205.906 11.0428 205.737 10.9699 205.56 10.966H196.62C196.441 10.9682 196.271 11.0407 196.146 11.1679C196.021 11.2951 195.951 11.4666 195.952 11.6449Z" fill="#3F3D56"/>
<path d="M195.952 14.1769C195.951 14.3552 196.021 14.5266 196.146 14.6538C196.271 14.781 196.441 14.8536 196.62 14.8558H205.56C205.737 14.8516 205.905 14.7786 206.029 14.6524C206.152 14.5261 206.222 14.3565 206.222 14.18C206.222 14.0034 206.152 13.8338 206.029 13.7075C205.905 13.5812 205.737 13.5082 205.56 13.5041H196.62C196.531 13.5045 196.444 13.5222 196.363 13.5562C196.282 13.5903 196.208 13.6399 196.146 13.7024C196.084 13.7649 196.035 13.8389 196.002 13.9203C195.969 14.0018 195.952 14.0889 195.952 14.1769Z" fill="#3F3D56"/>
<path d="M198.715 33.7929H195.503C194.529 33.7929 193.739 34.5815 193.739 35.5543C193.739 36.5271 194.529 37.3157 195.503 37.3157H198.715C199.689 37.3157 200.479 36.5271 200.479 35.5543C200.479 34.5815 199.689 33.7929 198.715 33.7929Z" fill="#E6E6E6"/>
<path d="M235.459 33.7929H232.246C231.272 33.7929 230.482 34.5815 230.482 35.5543C230.482 36.5271 231.272 37.3157 232.246 37.3157H235.459C236.433 37.3157 237.222 36.5271 237.222 35.5543C237.222 34.5815 236.433 33.7929 235.459 33.7929Z" fill="#E6E6E6"/>
<path d="M245.869 33.7929H242.656C241.682 33.7929 240.893 34.5815 240.893 35.5543C240.893 36.5271 241.682 37.3157 242.656 37.3157H245.869C246.843 37.3157 247.633 36.5271 247.633 35.5543C247.633 34.5815 246.843 33.7929 245.869 33.7929Z" fill="#E6E6E6"/>
<path d="M225.464 33.4992H205.497C204.523 33.4992 203.733 34.2879 203.733 35.2606C203.733 36.2334 204.523 37.022 205.497 37.022H225.464C226.438 37.022 227.228 36.2334 227.228 35.2606C227.228 34.2879 226.438 33.4992 225.464 33.4992Z" fill="#E6E6E6"/>
<path d="M274.455 33.4992H254.488C253.514 33.4992 252.724 34.2879 252.724 35.2606C252.724 36.2334 253.514 37.022 254.488 37.022H274.455C275.429 37.022 276.219 36.2334 276.219 35.2606C276.219 34.2879 275.429 33.4992 274.455 33.4992Z" fill="#E6E6E6"/>
<path d="M208.513 41.7437H205.301C204.327 41.7437 203.537 42.5323 203.537 43.5051C203.537 44.4779 204.327 45.2665 205.301 45.2665H208.513C209.488 45.2665 210.277 44.4779 210.277 43.5051C210.277 42.5323 209.488 41.7437 208.513 41.7437Z" fill="#E6E6E6"/>
<path d="M245.257 41.7437H242.044C241.07 41.7437 240.28 42.5323 240.28 43.5051C240.28 44.4779 241.07 45.2665 242.044 45.2665H245.257C246.231 45.2665 247.02 44.4779 247.02 43.5051C247.02 42.5323 246.231 41.7437 245.257 41.7437Z" fill="#E6E6E6"/>
<path d="M255.667 41.7437H252.455C251.481 41.7437 250.691 42.5323 250.691 43.5051C250.691 44.4779 251.481 45.2665 252.455 45.2665H255.667C256.641 45.2665 257.431 44.4779 257.431 43.5051C257.431 42.5323 256.641 41.7437 255.667 41.7437Z" fill="#E6E6E6"/>
<path d="M235.262 41.4501H215.295C214.321 41.4501 213.531 42.2387 213.531 43.2114C213.531 44.1842 214.321 44.9728 215.295 44.9728H235.262C236.237 44.9728 237.026 44.1842 237.026 43.2114C237.026 42.2387 236.237 41.4501 235.262 41.4501Z" fill="#E6E6E6"/>
<path d="M284.254 41.4501H264.286C263.312 41.4501 262.523 42.2387 262.523 43.2114C262.523 44.1842 263.312 44.9728 264.286 44.9728H284.254C285.228 44.9728 286.017 44.1842 286.017 43.2114C286.017 42.2387 285.228 41.4501 284.254 41.4501Z" fill="#E6E6E6"/>
<path d="M218.312 49.6945H215.099C214.125 49.6945 213.335 50.4831 213.335 51.4559C213.335 52.4287 214.125 53.2173 215.099 53.2173H218.312C219.286 53.2173 220.075 52.4287 220.075 51.4559C220.075 50.4831 219.286 49.6945 218.312 49.6945Z" fill="#E6E6E6"/>
<path d="M255.055 49.6945H251.842C250.868 49.6945 250.079 50.4831 250.079 51.4559C250.079 52.4287 250.868 53.2173 251.842 53.2173H255.055C256.029 53.2173 256.819 52.4287 256.819 51.4559C256.819 50.4831 256.029 49.6945 255.055 49.6945Z" fill="#E6E6E6"/>
<path d="M265.466 49.6945H262.253C261.279 49.6945 260.489 50.4831 260.489 51.4559C260.489 52.4287 261.279 53.2173 262.253 53.2173H265.466C266.44 53.2173 267.229 52.4287 267.229 51.4559C267.229 50.4831 266.44 49.6945 265.466 49.6945Z" fill="#E6E6E6"/>
<path d="M245.061 49.4009H225.093C224.119 49.4009 223.33 50.1895 223.33 51.1622C223.33 52.135 224.119 52.9236 225.093 52.9236H245.061C246.035 52.9236 246.824 52.135 246.824 51.1622C246.824 50.1895 246.035 49.4009 245.061 49.4009Z" fill="#E6E6E6"/>
<path d="M294.052 49.4009H274.084C273.11 49.4009 272.321 50.1895 272.321 51.1622C272.321 52.135 273.11 52.9236 274.084 52.9236H294.052C295.026 52.9236 295.815 52.135 295.815 51.1622C295.815 50.1895 295.026 49.4009 294.052 49.4009Z" fill="#E6E6E6"/>
<path d="M228.11 57.6453H224.897C223.923 57.6453 223.134 58.4339 223.134 59.4067C223.134 60.3795 223.923 61.1681 224.897 61.1681H228.11C229.084 61.1681 229.874 60.3795 229.874 59.4067C229.874 58.4339 229.084 57.6453 228.11 57.6453Z" fill="#E6E6E6"/>
<path d="M264.853 57.6453H261.641C260.666 57.6453 259.877 58.4339 259.877 59.4067C259.877 60.3795 260.666 61.1681 261.641 61.1681H264.853C265.827 61.1681 266.617 60.3795 266.617 59.4067C266.617 58.4339 265.827 57.6453 264.853 57.6453Z" fill="#E6E6E6"/>
<path d="M275.264 57.6453H272.051C271.077 57.6453 270.287 58.4339 270.287 59.4067C270.287 60.3795 271.077 61.1681 272.051 61.1681H275.264C276.238 61.1681 277.027 60.3795 277.027 59.4067C277.027 58.4339 276.238 57.6453 275.264 57.6453Z" fill="#E6E6E6"/>
<path d="M254.859 57.3517H234.892C233.917 57.3517 233.128 58.1403 233.128 59.1131C233.128 60.0858 233.917 60.8744 234.892 60.8744H254.859C255.833 60.8744 256.623 60.0858 256.623 59.1131C256.623 58.1403 255.833 57.3517 254.859 57.3517Z" fill="#E6E6E6"/>
<path d="M235.459 89.2611H232.246C231.272 89.2611 230.482 90.0497 230.482 91.0225C230.482 91.9953 231.272 92.7839 232.246 92.7839H235.459C236.433 92.7839 237.222 91.9953 237.222 91.0225C237.222 90.0497 236.433 89.2611 235.459 89.2611Z" fill="#E6E6E6"/>
<path d="M245.869 89.2611H242.656C241.682 89.2611 240.893 90.0497 240.893 91.0225C240.893 91.9953 241.682 92.7839 242.656 92.7839H245.869C246.843 92.7839 247.633 91.9953 247.633 91.0225C247.633 90.0497 246.843 89.2611 245.869 89.2611Z" fill="#E6E6E6"/>
<path d="M274.455 89.5548H254.488C253.514 89.5548 252.724 90.3434 252.724 91.3162C252.724 92.2889 253.514 93.0775 254.488 93.0775H274.455C275.429 93.0775 276.219 92.2889 276.219 91.3162C276.219 90.3434 275.429 89.5548 274.455 89.5548Z" fill="#E6E6E6"/>
<path d="M198.715 89.2611H195.503C194.529 89.2611 193.739 90.0497 193.739 91.0225C193.739 91.9953 194.529 92.7839 195.503 92.7839H198.715C199.689 92.7839 200.479 91.9953 200.479 91.0225C200.479 90.0497 199.689 89.2611 198.715 89.2611Z" fill="#E6E6E6"/>
<path d="M225.464 89.5548H205.497C204.523 89.5548 203.733 90.3434 203.733 91.3162C203.733 92.2889 204.523 93.0775 205.497 93.0775H225.464C226.438 93.0775 227.228 92.2889 227.228 91.3162C227.228 90.3434 226.438 89.5548 225.464 89.5548Z" fill="#E6E6E6"/>
<path d="M208.513 81.3103H205.301C204.327 81.3103 203.537 82.0989 203.537 83.0717C203.537 84.0445 204.327 84.8331 205.301 84.8331H208.513C209.488 84.8331 210.277 84.0445 210.277 83.0717C210.277 82.0989 209.488 81.3103 208.513 81.3103Z" fill="#E6E6E6"/>
<path d="M245.257 81.3103H242.044C241.07 81.3103 240.28 82.0989 240.28 83.0717C240.28 84.0445 241.07 84.8331 242.044 84.8331H245.257C246.231 84.8331 247.02 84.0445 247.02 83.0717C247.02 82.0989 246.231 81.3103 245.257 81.3103Z" fill="#E6E6E6"/>
<path d="M255.667 81.3103H252.455C251.481 81.3103 250.691 82.0989 250.691 83.0717C250.691 84.0445 251.481 84.8331 252.455 84.8331H255.667C256.641 84.8331 257.431 84.0445 257.431 83.0717C257.431 82.0989 256.641 81.3103 255.667 81.3103Z" fill="#E6E6E6"/>
<path d="M235.262 81.604H215.295C214.321 81.604 213.531 82.3926 213.531 83.3654C213.531 84.3381 214.321 85.1267 215.295 85.1267H235.262C236.237 85.1267 237.026 84.3381 237.026 83.3654C237.026 82.3926 236.237 81.604 235.262 81.604Z" fill="#E6E6E6"/>
<path d="M218.312 73.3595H215.099C214.125 73.3595 213.335 74.1481 213.335 75.1209C213.335 76.0937 214.125 76.8823 215.099 76.8823H218.312C219.286 76.8823 220.075 76.0937 220.075 75.1209C220.075 74.1481 219.286 73.3595 218.312 73.3595Z" fill="#E6E6E6"/>
<path d="M255.055 73.3595H251.842C250.868 73.3595 250.079 74.1481 250.079 75.1209C250.079 76.0937 250.868 76.8823 251.842 76.8823H255.055C256.029 76.8823 256.819 76.0937 256.819 75.1209C256.819 74.1481 256.029 73.3595 255.055 73.3595Z" fill="#E6E6E6"/>
<path d="M265.466 73.3595H262.253C261.279 73.3595 260.489 74.1481 260.489 75.1209C260.489 76.0937 261.279 76.8823 262.253 76.8823H265.466C266.44 76.8823 267.229 76.0937 267.229 75.1209C267.229 74.1481 266.44 73.3595 265.466 73.3595Z" fill="#E6E6E6"/>
<path d="M245.061 73.6532H225.093C224.119 73.6532 223.33 74.4418 223.33 75.4146C223.33 76.3873 224.119 77.1759 225.093 77.1759H245.061C246.035 77.1759 246.824 76.3873 246.824 75.4146C246.824 74.4418 246.035 73.6532 245.061 73.6532Z" fill="#E6E6E6"/>
<path d="M228.11 65.4087H224.897C223.923 65.4087 223.134 66.1973 223.134 67.1701C223.134 68.1429 223.923 68.9315 224.897 68.9315H228.11C229.084 68.9315 229.874 68.1429 229.874 67.1701C229.874 66.1973 229.084 65.4087 228.11 65.4087Z" fill="#E6E6E6"/>
<path d="M264.853 65.4087H261.641C260.666 65.4087 259.877 66.1973 259.877 67.1701C259.877 68.1429 260.666 68.9315 261.641 68.9315H264.853C265.827 68.9315 266.617 68.1429 266.617 67.1701C266.617 66.1973 265.827 65.4087 264.853 65.4087Z" fill="#E6E6E6"/>
<path d="M275.264 65.4087H272.051C271.077 65.4087 270.287 66.1973 270.287 67.1701C270.287 68.1429 271.077 68.9315 272.051 68.9315H275.264C276.238 68.9315 277.027 68.1429 277.027 67.1701C277.027 66.1973 276.238 65.4087 275.264 65.4087Z" fill="#E6E6E6"/>
<path d="M254.859 65.7024H234.892C233.917 65.7024 233.128 66.491 233.128 67.4637C233.128 68.4365 233.917 69.2251 234.892 69.2251H254.859C255.833 69.2251 256.623 68.4365 256.623 67.4637C256.623 66.491 255.833 65.7024 254.859 65.7024Z" fill="#E6E6E6"/>
<path d="M214.282 203.456C214.147 203.524 214.013 203.591 213.878 203.652C213.027 204.074 212.169 204.49 211.306 204.9C208.722 206.129 206.105 207.297 203.455 208.404C196.483 211.316 189.33 213.774 182.04 215.762C180.815 208.135 179.627 190.148 178.488 176.919C178.274 174.43 178.059 172.112 177.845 170.063C177.641 167.373 177.255 164.7 176.688 162.063C176.632 161.857 176.552 161.657 176.449 161.47C176.565 162.528 176.688 165.684 176.804 170.063C176.865 172.112 176.92 174.43 176.981 176.919C177.269 189.652 177.569 206.979 177.869 216.844C177.018 217.052 176.161 217.26 175.304 217.456C174.765 217.584 174.22 217.707 173.675 217.823C173.013 217.97 172.352 218.116 171.69 218.251C170.998 218.398 170.306 218.538 169.614 218.673C158.306 220.891 146.808 222.006 135.284 222C134.518 222 133.759 221.994 132.994 221.988C132.761 221.988 132.528 221.982 132.289 221.976C131.616 221.963 130.918 221.951 130.207 221.933C116.588 221.557 103.059 219.609 89.8876 216.129L90.5489 167.464C90.2456 168.3 90.0641 169.175 90.01 170.063C89.7957 171.733 89.5753 174.099 89.3548 176.919C88.5158 187.781 87.6523 205.303 86.7583 215.272C76.1701 212.263 68.4295 209.517 58.7537 204.686C58.3802 204.502 58.0005 204.313 57.6269 204.123C57.6943 203.652 57.7678 203.181 57.8352 202.698C58.9313 195.09 57.6392 185.188 58.8517 176.919C59.7764 170.54 60.7318 164.412 61.6932 159.213C62.8567 152.956 64.0386 148.039 65.2083 145.648C66.5556 142.889 67.9028 140.174 69.2072 137.575C69.7706 136.455 70.3238 135.357 70.8668 134.278C71.1607 133.697 71.4547 133.122 71.7425 132.56C73.053 129.997 74.29 127.63 75.423 125.532C76.2191 124.058 76.9539 122.725 77.6276 121.557C78.4175 120.181 79.1157 119.043 79.6913 118.181C83.9431 111.744 90.2695 106.951 97.622 104.597L97.8058 104.548L97.9834 104.622L98.1854 104.713L109.858 100.451L115.069 87.9189L141.836 86.2736L155.064 96.3284L170.649 101.111L170.778 101.056L170.962 101.105C177.652 103.244 183.509 107.413 187.717 113.031C188.133 113.569 188.519 114.126 188.892 114.689C189.909 116.193 191.281 118.572 192.897 121.557C193.565 122.786 194.269 124.119 195.01 125.532C195.457 126.382 199.315 138.406 203.069 150.687C206.578 162.185 209.995 173.91 210.442 176.919C210.522 177.475 210.608 178.038 210.687 178.595C211.196 182.075 211.698 185.579 212.182 188.998C212.898 194.068 213.596 198.961 214.264 203.334C214.27 203.377 214.276 203.414 214.282 203.456Z" fill="#3F3D56"/>
<path d="M185.915 159.185L180.712 139.129L176.117 156.435L185.915 159.185Z" fill="black"/>
<path d="M9.69368 158.952C9.96348 159.737 10.4753 160.416 11.1556 160.892C11.8359 161.368 12.6497 161.616 13.4801 161.601L29.7034 161.184C30.54 161.168 31.3488 160.882 32.009 160.368C32.6691 159.855 33.1452 159.142 33.366 158.336L35.6618 133.819C36.4763 134.187 37.363 134.369 38.2571 134.351C39.8257 134.312 41.3145 133.652 42.3958 132.516C43.4772 131.381 44.0626 129.863 44.0232 128.296C43.9838 126.729 43.3229 125.242 42.1859 124.162C41.0488 123.082 39.5288 122.498 37.9601 122.537C37.6028 122.536 37.2464 122.573 36.8969 122.648C36.5169 122.237 36.0549 121.91 35.5409 121.689C35.0268 121.467 34.472 121.356 33.9121 121.361L8.95694 122.005C8.74993 122.013 8.54397 122.038 8.34137 122.081C7.79411 122.183 7.27505 122.401 6.81913 122.72C6.36321 123.039 5.981 123.452 5.69824 123.931C5.41549 124.41 5.23874 124.944 5.17989 125.496C5.12105 126.049 5.18147 126.608 5.3571 127.136L9.69368 158.952ZM36.1326 132.154L37.7662 126.311C37.9521 125.637 37.9564 124.925 37.7787 124.248C37.858 124.247 37.9279 124.21 38.0072 124.21C39.1273 124.187 40.2109 124.608 41.0204 125.381C41.8299 126.155 42.2992 127.218 42.3254 128.336C42.3517 129.455 41.9327 130.538 41.1603 131.349C40.388 132.159 39.3253 132.631 38.2053 132.66C37.4812 132.683 36.7646 132.508 36.1326 132.154Z" fill="#2F2E41"/>
<path d="M8.34137 122.081C8.87304 125.117 14.8505 127.252 22.038 126.881C28.6473 126.577 34.0515 124.259 35.0416 121.512C34.6751 121.404 34.2941 121.353 33.9121 121.361L8.95694 122.005C8.74993 122.013 8.54397 122.038 8.34137 122.081Z" fill="#3F3D56"/>
<path d="M23.3552 145.48C23.3881 145.472 23.4193 145.458 23.4477 145.439L26.9708 143.136C27.0134 143.108 27.0484 143.07 27.0726 143.026C27.0969 142.981 27.1096 142.931 27.1096 142.88C27.1096 142.83 27.0969 142.78 27.0727 142.735C27.0485 142.69 27.0136 142.652 26.971 142.625L23.309 140.229C23.2754 140.207 23.2378 140.192 23.1982 140.184C23.1586 140.176 23.118 140.177 23.0785 140.185C23.039 140.193 23.0015 140.209 22.9682 140.231C22.9349 140.254 22.9063 140.283 22.8842 140.317C22.8621 140.35 22.8469 140.388 22.8395 140.427C22.832 140.467 22.8324 140.508 22.8407 140.547C22.849 140.586 22.865 140.624 22.8878 140.657C22.9106 140.69 22.9397 140.719 22.9735 140.74L26.2442 142.88L23.1125 144.928C23.0518 144.967 23.0072 145.027 22.9866 145.096C22.9659 145.166 22.9706 145.24 22.9997 145.306C23.0288 145.373 23.0805 145.426 23.1456 145.458C23.2107 145.49 23.285 145.498 23.3552 145.48Z" fill="#12DC01"/>
<path d="M17.7906 145.736C17.8497 145.721 17.903 145.689 17.9437 145.644C17.9844 145.598 18.0105 145.542 18.0188 145.481C18.0271 145.421 18.0172 145.359 17.9903 145.305C17.9634 145.25 17.9207 145.205 17.8678 145.174L14.6203 143.315L17.7591 140.986C17.7914 140.963 17.8186 140.932 17.8392 140.898C17.8599 140.864 17.8735 140.825 17.8793 140.786C17.8852 140.746 17.8832 140.706 17.8734 140.667C17.8636 140.628 17.8462 140.591 17.8222 140.559C17.7983 140.527 17.7682 140.5 17.7337 140.479C17.6992 140.458 17.661 140.445 17.6213 140.439C17.5815 140.433 17.541 140.435 17.502 140.445C17.4631 140.455 17.4264 140.472 17.3942 140.496L13.8799 143.103C13.839 143.133 13.8064 143.173 13.7849 143.219C13.7634 143.265 13.7537 143.316 13.7567 143.366C13.7596 143.417 13.7752 143.466 13.802 143.509C13.8288 143.552 13.8659 143.588 13.91 143.613L17.5631 145.705C17.632 145.744 17.7136 145.756 17.7906 145.736Z" fill="#12DC01"/>
<path d="M23.0048 147.498C23.0344 147.491 23.0627 147.479 23.0887 147.463C23.1231 147.442 23.153 147.414 23.1768 147.382C23.2006 147.35 23.2177 147.313 23.2272 147.274C23.2368 147.235 23.2385 147.194 23.2323 147.155C23.2262 147.115 23.2122 147.077 23.1913 147.042L18.197 138.842C18.1545 138.773 18.0864 138.724 18.0077 138.705C17.9289 138.686 17.8458 138.699 17.7767 138.741C17.7075 138.783 17.6578 138.851 17.6385 138.929C17.6192 139.008 17.6319 139.091 17.6737 139.16L22.668 147.361C22.7021 147.417 22.7532 147.46 22.8138 147.485C22.8744 147.509 22.9414 147.514 23.0048 147.498Z" fill="#12DC01"/>
<path d="M480.816 204.122C480.443 204.311 480.063 204.501 479.69 204.684C470.014 209.516 462.273 212.262 451.685 215.271C450.791 205.302 449.927 187.78 449.088 176.918C448.868 174.098 448.648 171.731 448.433 170.062C448.379 169.174 448.198 168.298 447.894 167.462L448.556 216.127C435.385 219.608 421.855 221.555 408.236 221.931C407.526 221.95 406.828 221.962 406.154 221.974C405.915 221.98 405.682 221.986 405.45 221.986C404.684 221.993 403.925 221.999 403.159 221.999C388.807 222.009 374.507 220.278 360.574 216.843C360.874 206.978 361.174 189.651 361.462 176.918C361.523 174.428 361.578 172.11 361.639 170.062C361.756 165.682 361.878 162.527 361.995 161.469C361.891 161.656 361.811 161.855 361.756 162.062C361.189 164.699 360.802 167.372 360.598 170.062C360.384 172.11 360.17 174.428 359.955 176.918C358.816 190.147 357.628 208.134 356.403 215.76C349.113 213.773 341.96 211.315 334.988 208.403C331.314 206.874 327.705 205.224 324.161 203.455C324.835 199.051 325.539 194.116 326.262 188.997C326.825 185.027 327.407 180.948 328.001 176.918C328.919 170.692 360.127 103.458 367.482 101.104L367.665 101.055L367.794 101.11L383.379 96.327L396.607 86.2723L423.374 87.9175L428.586 100.449L440.258 104.712L440.46 104.62L440.637 104.547L440.821 104.596C448.174 106.95 454.5 111.743 458.752 118.179C459.328 119.042 460.026 120.179 460.816 121.556C461.489 122.724 462.224 124.057 463.02 125.531C464.153 127.629 465.39 129.996 466.701 132.558C466.989 133.121 467.283 133.696 467.576 134.277C468.121 135.353 468.675 136.452 469.236 137.573C470.54 140.173 471.888 142.888 473.235 145.646C474.405 148.038 475.586 152.955 476.75 159.212C477.711 164.41 478.667 170.539 479.592 176.918C480.804 185.186 479.512 195.088 480.608 202.696C480.675 203.18 480.749 203.651 480.816 204.122Z" fill="#3F3D56"/>
<path d="M402.311 81.7738C419.505 81.7738 433.443 67.8536 433.443 50.6822C433.443 33.5108 419.505 19.5907 402.311 19.5907C385.118 19.5907 371.18 33.5108 371.18 50.6822C371.18 67.8536 385.118 81.7738 402.311 81.7738Z" fill="#FFB6B6"/>
<path d="M352.527 159.185L357.73 139.129L362.325 156.435L352.527 159.185Z" fill="black"/>
<path d="M490.994 146.117C489.133 171.731 491.062 183.009 480.786 204.128C471.436 208.698 461.697 212.427 451.685 215.271C450.644 215.565 449.601 215.85 448.556 216.127C435.385 219.608 421.855 221.555 408.236 221.931C407.526 221.95 406.828 221.962 406.154 221.974C405.915 221.98 405.682 221.986 405.45 221.986C404.684 221.993 403.925 221.999 403.159 221.999C388.807 222.009 374.507 220.278 360.574 216.843C359.178 216.5 357.787 216.14 356.403 215.76C349.113 213.773 341.96 211.315 334.988 208.403C331.314 206.874 327.705 205.224 324.161 203.455C323.359 203.051 322.557 202.648 321.767 202.232C317.707 195.1 315.398 186.428 315.349 176.006C318.16 158.05 484.785 130.632 490.994 146.117Z" fill="#2F2E41"/>
<path d="M490.989 150.504C491.084 148.918 491.191 147.28 491.315 145.574C485.105 130.089 318.48 157.507 315.669 175.463C315.677 177.11 315.748 178.707 315.866 180.267C322.673 162.544 480.969 136.485 490.989 150.504Z" fill="black"/>
<path d="M311.205 147.325L324.882 140.496L313.485 109.762L310.481 94.2633C310.091 92.2496 309.178 90.3736 307.834 88.8225C306.491 87.2715 304.763 86.0997 302.824 85.4245C300.885 84.7492 298.802 84.594 296.784 84.9745C294.766 85.3549 292.883 86.2576 291.324 87.5924C289.013 89.5703 287.563 92.3675 287.278 95.3935C286.993 98.4195 287.897 101.438 289.798 103.811L300.948 117.73L311.205 147.325Z" fill="#FFB6B6"/>
<path d="M324.882 134.805L306.646 143.911L320.485 187.217C321.479 190.327 323.26 193.128 325.657 195.348C328.053 197.568 330.984 199.132 334.163 199.888C338.084 200.82 342.2 200.481 345.915 198.92C349.63 197.359 352.75 194.656 354.824 191.205L391.521 128.385C394.122 124.056 394.924 118.883 393.758 113.971C392.591 109.06 389.548 104.798 385.277 102.097C382.981 100.644 380.403 99.691 377.713 99.2988C375.023 98.9067 372.281 99.0846 369.664 99.8211C367.048 100.558 364.616 101.836 362.526 103.573C360.437 105.31 358.738 107.468 357.539 109.904L335.14 157.57L324.882 134.805Z" fill="#3F3D56"/>
<path d="M128.3 79.6283C147.218 79.6283 162.554 64.312 162.554 45.4184C162.554 26.5248 147.218 11.2086 128.3 11.2086C109.382 11.2086 94.0461 26.5248 94.0461 45.4184C94.0461 64.312 109.382 79.6283 128.3 79.6283Z" fill="#A0616A"/>
<path d="M94.4574 21.8439C97.2425 18.0949 101.246 15.4295 104.308 11.9024C105.988 9.96713 107.383 7.77439 109.271 6.04189C112.781 2.82292 117.688 1.50394 122.45 1.33991C127.669 1.20601 132.846 2.30105 137.562 4.53642C142.279 6.77179 146.402 10.0847 149.598 14.207C152.087 12.7495 154.576 11.292 157.065 9.83454C158.049 12.4194 159.032 15.0044 160.015 17.5894C160.822 16.8888 161.852 16.4962 162.921 16.4812C163.99 16.4662 165.03 16.8298 165.857 17.5074C166.683 18.1851 167.242 19.1331 167.436 20.1834C167.629 21.2337 167.444 22.3185 166.913 23.2454C167.505 21.4173 170.219 21.0295 171.716 22.2372C173.212 23.4449 173.613 25.5936 173.369 27.4995C173.062 29.5903 172.137 31.5419 170.711 33.1032C169.285 34.6646 167.424 35.7644 165.368 36.2612C162.12 36.984 158.339 36.2247 155.74 38.2994C153.655 39.9627 153.026 42.9914 150.899 44.5996C148.278 46.5814 144.573 45.6649 141.315 46.1028C135.615 46.8692 131.102 52.6916 131.787 58.3949C131.271 56.5953 130.729 54.7436 129.559 53.2818C128.388 51.8199 126.417 50.8313 124.621 51.3687C121.654 52.2571 121.168 56.2968 121.887 59.3062C123.795 67.2876 131.024 80.1887 131.024 80.1887C121.637 83.8865 110.455 80.3899 103.212 73.373C95.9699 66.3561 92.198 56.4202 90.5549 46.4773C89.1616 38.0459 89.359 28.7069 94.4574 21.8439Z" fill="#2F2E41"/>
<path d="M441.325 67.8217C447.842 52.8998 444.15 39.1684 436.206 31.8841V31.878C433.082 24.8874 428.93 19.4931 424.178 18.227C421.882 16.7531 419.653 15.0223 417.179 14.1416C416.026 13.7107 414.798 13.5173 413.569 13.573C412.34 13.6287 411.135 13.9324 410.026 14.4657L408.764 14.1293C407.693 11.3955 406.437 11.3404 405.041 13.1385C399.664 10.6371 394.82 9.51784 390.509 9.51784C376.449 9.51784 368.132 21.4074 365.928 35.78L377.68 38.9053L381.764 32.4039L379.878 39.4924L386.363 41.211C396.235 54.0485 384.422 83.6622 369.449 100.139C373.013 99.154 376.563 98.3222 380.099 97.6434L392.946 78.8305L384.985 95.9553C389.119 95.3498 394.392 95.9309 400.154 97.099C402.096 94.567 403.118 91.191 402.114 88.1819C403.756 91.3554 404.888 94.767 405.47 98.2916C417.632 101.258 434.221 102.781 443.162 103.906C450.386 101.551 450.406 74.9531 441.325 67.8217Z" fill="#2F2E41"/>
<path d="M445.565 17.064C450.338 27.7384 440.707 32.3297 431.883 32.2C423.911 32.0829 417.135 26.489 416.728 18.5361C416.532 14.7169 417.864 10.9767 420.43 8.13812C422.996 5.29955 426.585 3.59518 430.409 3.39997C438.372 2.99346 442.313 9.79281 445.565 17.064Z" fill="#2F2E41"/>
<path d="M224.123 190.831L216.26 177.733L242.404 157.924L253.274 146.463C254.686 144.974 256.465 143.881 258.432 143.293C260.4 142.706 262.488 142.644 264.486 143.115C266.485 143.586 268.325 144.572 269.823 145.976C271.32 147.379 272.423 149.151 273.02 151.113C273.905 154.021 273.625 157.158 272.237 159.864C270.85 162.569 268.465 164.63 265.584 165.612L248.693 171.371L224.123 190.831Z" fill="#A0616A"/>
<path d="M229.806 190.399L217.564 200.588L214.264 203.334L213.878 203.652C213.027 204.074 212.169 204.49 211.306 204.9C208.722 206.129 206.105 207.297 203.455 208.404C196.483 211.316 189.33 213.774 182.04 215.762C180.656 216.141 179.266 216.502 177.869 216.844C177.018 217.052 176.161 217.26 175.304 217.456C174.765 217.584 174.22 217.707 173.675 217.823C173.013 217.97 172.352 218.116 171.69 218.251C170.998 218.398 170.306 218.538 169.614 218.673C167.752 216.903 166.27 214.774 165.257 212.415C164.245 210.056 163.723 207.516 163.723 204.949C163.723 204.784 163.723 204.612 163.729 204.441L165.695 154.088L166.565 131.771C166.699 126.724 168.804 121.929 172.43 118.412C176.056 114.894 180.916 112.932 185.971 112.946C186.559 112.946 187.141 112.976 187.717 113.031C188.133 113.569 188.519 114.126 188.892 114.689C189.909 116.193 191.281 118.572 192.897 121.557C193.565 122.786 194.269 124.119 195.01 125.532C195.457 126.382 199.315 138.406 203.069 150.687L201.416 163.513L198.427 186.631L210.687 178.595L219.322 172.931L223.009 179.078L229.806 190.399Z" fill="#3F3D56"/>
<path d="M223.094 176.008C223.088 177.047 223.064 178.069 223.009 179.078C222.881 181.862 222.558 184.633 222.041 187.371C221.196 191.97 219.688 196.421 217.564 200.588C217.283 201.144 216.983 201.695 216.677 202.233C215.887 202.649 215.084 203.053 214.282 203.456C214.147 203.524 214.013 203.591 213.878 203.652C210.467 205.346 206.993 206.93 203.455 208.404C196.483 211.316 189.33 213.774 182.04 215.762C180.656 216.141 179.266 216.502 177.869 216.844C175.144 217.517 172.393 218.127 169.614 218.673C158.306 220.891 146.808 222.006 135.284 222C134.518 222 133.759 221.994 132.994 221.988C132.761 221.988 132.528 221.982 132.289 221.976C131.616 221.963 130.918 221.951 130.207 221.933C116.588 221.557 103.059 219.609 89.8876 216.129C88.8404 215.853 87.7973 215.568 86.7583 215.272C76.7459 212.428 67.0072 208.699 57.6576 204.129C47.3817 183.011 49.3107 171.733 47.4491 146.119C51.2704 136.584 115.92 143.318 165.695 154.088C179.204 157.011 191.612 160.235 201.416 163.513C211.545 166.895 218.887 170.332 221.765 173.561C222.438 174.23 222.9 175.08 223.094 176.008Z" fill="#2F2E41"/>
<path d="M47.4527 150.504C47.3576 148.918 47.2513 147.28 47.1273 145.574C53.3369 130.089 219.962 157.507 222.773 175.463C222.765 177.11 222.694 178.707 222.576 180.267C215.769 162.544 57.473 136.485 47.4527 150.504Z" fill="black"/>
</svg>
