<svg width="657" height="269" viewBox="0 0 657 269" fill="none" xmlns="http://www.w3.org/2000/svg">
<path d="M657.236 269.299H0V0H657.236V269.299ZM2 267.299H655.236V2H2V267.299Z" fill="#3F3D56"/>
<path d="M92.8284 102.637H51.5248C48.7061 86.3425 48.7061 69.6849 51.5248 53.3904H92.8284C88.1752 69.4762 88.1752 86.5512 92.8284 102.637Z" fill="#FF6584"/>
<path d="M128.586 123.615H169.89C172.709 107.32 172.709 90.6627 169.89 74.3681H128.586C133.239 90.4539 133.239 107.529 128.586 123.615Z" fill="#E6E6E6"/>
<path d="M395.129 133.684H451.255C451.643 133.671 452.012 133.507 452.282 133.227C452.552 132.947 452.703 132.573 452.703 132.184C452.703 131.795 452.552 131.421 452.282 131.141C452.012 130.862 451.643 130.698 451.255 130.684H395.129C394.74 130.698 394.371 130.862 394.101 131.141C393.831 131.421 393.68 131.795 393.68 132.184C393.68 132.573 393.831 132.947 394.101 133.227C394.371 133.507 394.74 133.671 395.129 133.684Z" fill="#E6E6E6"/>
<path d="M449.796 119.533L458.565 127.537C459.568 128.452 462.326 130.342 462.949 131.539C464.238 134.013 462.853 133.449 460.646 134.306C455.221 136.465 450.222 139.569 445.882 143.474C444.431 144.753 446.559 146.868 448.003 145.595C451.962 142.037 456.51 139.196 461.443 137.199C463.212 136.499 466.568 136.089 467.409 133.982C468.438 131.403 465.161 129.5 463.609 128.083L451.917 117.411C450.494 116.112 448.366 118.228 449.796 119.533Z" fill="#E6E6E6"/>
<path d="M80.5862 194.615H121.89C124.709 178.32 124.709 161.663 121.89 145.368H80.5862C85.2394 161.454 85.2394 178.529 80.5862 194.615Z" fill="#12DC01"/>
<path d="M401.586 98.6148H442.89C445.709 82.3202 445.709 65.6627 442.89 49.3681H401.586C406.239 65.4539 406.239 82.529 401.586 98.6148Z" fill="#12DC01"/>
<path d="M270.825 179.533V57.985L259.825 55.533V190.533L342.825 189.684L342.545 178.8L270.825 179.533Z" fill="#F2F2F2"/>
<path d="M352.825 200.684H252.825V39.6842H352.825V200.684ZM254.825 198.684H350.825V41.6842H254.825V198.684Z" fill="#3F3D56"/>
<path d="M278.022 49.6842H261.825V51.6842H278.022V49.6842Z" fill="#3F3D56"/>
<path d="M278.022 54.6842H261.825V56.6842H278.022V54.6842Z" fill="#3F3D56"/>
<path d="M278.022 59.6842H261.825V61.6842H278.022V59.6842Z" fill="#3F3D56"/>
<path d="M339.022 145.684H269.825V147.684H339.022V145.684Z" fill="#3F3D56"/>
<path d="M339.022 156.684H269.825V158.684H339.022V156.684Z" fill="#3F3D56"/>
<path d="M339.022 167.684H269.825V169.684H339.022V167.684Z" fill="#3F3D56"/>
<path d="M337.825 62.6842C336.441 62.6842 335.088 62.2736 333.936 61.5045C332.785 60.7353 331.888 59.642 331.358 58.363C330.828 57.0839 330.69 55.6764 330.96 54.3185C331.23 52.9607 331.897 51.7134 332.876 50.7344C333.855 49.7555 335.102 49.0888 336.46 48.8187C337.818 48.5486 339.225 48.6872 340.504 49.217C341.783 49.7468 342.877 50.644 343.646 51.7952C344.415 52.9463 344.825 54.2997 344.825 55.6842C344.823 57.54 344.085 59.3193 342.773 60.6316C341.461 61.9439 339.681 62.6821 337.825 62.6842ZM337.825 50.6842C336.837 50.6842 335.87 50.9774 335.048 51.5268C334.225 52.0762 333.584 52.8571 333.206 53.7708C332.828 54.6844 332.729 55.6897 332.922 56.6596C333.114 57.6295 333.591 58.5204 334.29 59.2197C334.989 59.919 335.88 60.3952 336.85 60.5881C337.82 60.781 338.825 60.682 339.739 60.3036C340.652 59.9251 341.433 59.2843 341.983 58.462C342.532 57.6398 342.825 56.6731 342.825 55.6842C342.824 54.3586 342.297 53.0877 341.359 52.1503C340.422 51.213 339.151 50.6857 337.825 50.6842Z" fill="#3F3D56"/>
<path d="M339.825 122.684H268.825V76.6842H339.825V122.684ZM270.825 120.684H337.825V78.6842H270.825V120.684Z" fill="#3F3D56"/>
<path d="M270.365 76.8413L269.29 78.5277L338.29 122.528L339.366 120.842L270.365 76.8413Z" fill="#3F3D56"/>
<path d="M338.288 76.8413L269.288 120.841L270.363 122.527L339.363 78.5278L338.288 76.8413Z" fill="#3F3D56"/>
<path d="M524.825 179.533V57.985L513.825 55.533V190.533L596.825 189.684L596.545 178.8L524.825 179.533Z" fill="#F2F2F2"/>
<path d="M607.825 198.684H507.825V37.6842H607.825V198.684ZM509.825 196.684H605.825V39.6842H509.825V196.684Z" fill="#3F3D56"/>
<path d="M533.022 47.6842H516.825V49.6842H533.022V47.6842Z" fill="#3F3D56"/>
<path d="M533.022 52.6842H516.825V54.6842H533.022V52.6842Z" fill="#3F3D56"/>
<path d="M533.022 57.6842H516.825V59.6842H533.022V57.6842Z" fill="#3F3D56"/>
<path d="M592.825 60.6842C591.441 60.6842 590.088 60.2736 588.936 59.5045C587.785 58.7353 586.888 57.642 586.358 56.363C585.828 55.0839 585.69 53.6764 585.96 52.3185C586.23 50.9607 586.897 49.7134 587.876 48.7344C588.855 47.7555 590.102 47.0888 591.46 46.8187C592.818 46.5486 594.225 46.6872 595.504 47.217C596.783 47.7468 597.877 48.644 598.646 49.7952C599.415 50.9463 599.825 52.2997 599.825 53.6842C599.823 55.54 599.085 57.3193 597.773 58.6316C596.461 59.9439 594.681 60.6821 592.825 60.6842ZM592.825 48.6842C591.836 48.6842 590.87 48.9774 590.048 49.5268C589.225 50.0762 588.584 50.8571 588.206 51.7708C587.828 52.6844 587.729 53.6897 587.921 54.6596C588.114 55.6295 588.591 56.5204 589.29 57.2197C589.989 57.919 590.88 58.3952 591.85 58.5881C592.82 58.781 593.825 58.682 594.739 58.3036C595.652 57.9251 596.433 57.2843 596.983 56.462C597.532 55.6398 597.825 54.6731 597.825 53.6842C597.824 52.3586 597.297 51.0877 596.359 50.1503C595.422 49.213 594.151 48.6857 592.825 48.6842Z" fill="#3F3D56"/>
<path d="M594.825 120.684H523.825V74.6842H594.825V120.684ZM525.825 118.684H592.825V76.6842H525.825V118.684Z" fill="#3F3D56"/>
<path d="M525.363 74.8409L524.288 76.5274L593.288 120.527L594.363 118.841L525.363 74.8409Z" fill="#3F3D56"/>
<path d="M593.29 74.8448L524.285 118.837L525.361 120.523L594.366 76.5313L593.29 74.8448Z" fill="#3F3D56"/>
<path d="M594.825 180.684H523.825V134.684H594.825V180.684ZM525.825 178.684H592.825V136.684H525.825V178.684Z" fill="#3F3D56"/>
<path d="M525.363 134.841L524.288 136.527L593.288 180.527L594.363 178.841L525.363 134.841Z" fill="#3F3D56"/>
<path d="M593.29 134.845L524.285 178.837L525.361 180.523L594.366 136.531L593.29 134.845Z" fill="#3F3D56"/>
<path d="M287.586 231.615H328.89C331.709 215.32 331.709 198.663 328.89 182.368H287.586C292.239 198.454 292.239 215.529 287.586 231.615Z" fill="#12DC01"/>
</svg>
