<svg width="538" height="677" viewBox="0 0 538 677" fill="none" xmlns="http://www.w3.org/2000/svg">
<rect x="34.3201" y="0.5" width="199" height="99" rx="19.5" stroke="#12DC01"/>
<path d="M97.5501 45.6H98.6901L97.3941 52.98H101.246L101.066 54H96.0741L97.5501 45.6ZM105.158 54.144C104.406 54.144 103.77 53.98 103.25 53.652C102.73 53.324 102.334 52.884 102.062 52.332C101.79 51.772 101.654 51.148 101.654 50.46C101.654 49.82 101.754 49.204 101.954 48.612C102.154 48.012 102.446 47.476 102.83 47.004C103.222 46.524 103.698 46.148 104.258 45.876C104.818 45.596 105.458 45.456 106.178 45.456C106.93 45.456 107.566 45.62 108.086 45.948C108.606 46.276 109.002 46.72 109.274 47.28C109.546 47.832 109.682 48.452 109.682 49.14C109.682 49.78 109.582 50.4 109.382 51C109.182 51.592 108.886 52.128 108.494 52.608C108.11 53.08 107.638 53.456 107.078 53.736C106.518 54.008 105.878 54.144 105.158 54.144ZM106.082 46.44C105.57 46.44 105.11 46.548 104.702 46.764C104.302 46.98 103.962 47.276 103.682 47.652C103.402 48.028 103.186 48.452 103.034 48.924C102.89 49.396 102.818 49.884 102.818 50.388C102.818 50.9 102.91 51.368 103.094 51.792C103.278 52.208 103.55 52.54 103.91 52.788C104.278 53.036 104.726 53.16 105.254 53.16C105.766 53.16 106.222 53.052 106.622 52.836C107.03 52.62 107.374 52.324 107.654 51.948C107.934 51.572 108.146 51.148 108.29 50.676C108.442 50.204 108.518 49.716 108.518 49.212C108.518 48.7 108.426 48.236 108.242 47.82C108.058 47.396 107.786 47.06 107.426 46.812C107.066 46.564 106.618 46.44 106.082 46.44ZM111.917 45.72C112.277 45.656 112.613 45.604 112.925 45.564C113.245 45.524 113.617 45.504 114.041 45.504C114.649 45.504 115.161 45.6 115.577 45.792C115.993 45.984 116.309 46.244 116.525 46.572C116.741 46.892 116.849 47.248 116.849 47.64C116.849 48.368 116.617 48.916 116.153 49.284C115.689 49.652 115.077 49.892 114.317 50.004C114.645 50.148 114.901 50.328 115.085 50.544C115.269 50.752 115.413 50.972 115.517 51.204C115.621 51.436 115.705 51.664 115.769 51.888C115.841 52.112 115.917 52.316 115.997 52.5C116.077 52.684 116.189 52.832 116.333 52.944C116.485 53.048 116.693 53.1 116.957 53.1L116.537 54.084C116.185 54.084 115.901 54.016 115.685 53.88C115.469 53.744 115.293 53.568 115.157 53.352C115.029 53.128 114.913 52.884 114.809 52.62C114.713 52.348 114.609 52.08 114.497 51.816C114.385 51.544 114.241 51.3 114.065 51.084C113.889 50.86 113.653 50.68 113.357 50.544C113.069 50.408 112.697 50.34 112.241 50.34L111.593 54H110.453L111.917 45.72ZM113.969 46.452C113.761 46.452 113.569 46.46 113.393 46.476C113.225 46.492 113.065 46.516 112.913 46.548L112.409 49.38H113.405C114.109 49.38 114.669 49.236 115.085 48.948C115.509 48.66 115.721 48.272 115.721 47.784C115.721 47.392 115.565 47.072 115.253 46.824C114.949 46.576 114.521 46.452 113.969 46.452ZM119.382 45.6H124.362L124.194 46.584H120.342L119.898 49.14H123.198L123.03 50.1H119.73L119.214 53.016H123.054L122.886 54H117.906L119.382 45.6ZM132.354 46.98L129.246 52.104H128.13L126.726 46.932L125.49 54H124.41L125.886 45.6H127.434L128.85 50.952L132.018 45.6H133.734L132.258 54H131.118L132.354 46.98ZM137.98 54L139.456 45.6H140.596L139.12 54H137.98ZM142.702 45.72C143.006 45.656 143.33 45.604 143.674 45.564C144.026 45.524 144.414 45.504 144.838 45.504C145.486 45.504 146.026 45.62 146.458 45.852C146.89 46.076 147.21 46.376 147.418 46.752C147.634 47.12 147.742 47.516 147.742 47.94C147.742 48.596 147.582 49.148 147.262 49.596C146.942 50.036 146.502 50.372 145.942 50.604C145.382 50.828 144.746 50.94 144.034 50.94C143.842 50.94 143.65 50.932 143.458 50.916C143.274 50.892 143.102 50.86 142.942 50.82L142.39 54H141.25L142.702 45.72ZM144.718 46.452C144.502 46.452 144.31 46.46 144.142 46.476C143.982 46.492 143.834 46.512 143.698 46.536L143.11 49.86C143.27 49.908 143.442 49.944 143.626 49.968C143.818 49.984 144.006 49.992 144.19 49.992C145.046 49.992 145.666 49.812 146.05 49.452C146.434 49.092 146.626 48.632 146.626 48.072C146.626 47.6 146.458 47.212 146.122 46.908C145.794 46.604 145.326 46.452 144.718 46.452ZM152.093 51.876C152.093 51.652 152.045 51.448 151.949 51.264C151.861 51.08 151.697 50.892 151.457 50.7C151.217 50.5 150.873 50.276 150.425 50.028C149.801 49.676 149.357 49.328 149.093 48.984C148.837 48.64 148.709 48.2 148.709 47.664C148.709 47.216 148.825 46.828 149.057 46.5C149.297 46.172 149.629 45.916 150.053 45.732C150.477 45.548 150.965 45.456 151.517 45.456C152.021 45.456 152.477 45.52 152.885 45.648C153.293 45.768 153.673 45.932 154.025 46.14L153.437 47.076C153.149 46.892 152.845 46.74 152.525 46.62C152.213 46.5 151.845 46.44 151.421 46.44C150.949 46.44 150.569 46.544 150.281 46.752C149.993 46.952 149.849 47.216 149.849 47.544C149.849 47.84 149.949 48.104 150.149 48.336C150.357 48.56 150.737 48.82 151.289 49.116C151.817 49.396 152.221 49.672 152.501 49.944C152.789 50.208 152.985 50.488 153.089 50.784C153.201 51.08 153.257 51.408 153.257 51.768C153.257 52.256 153.129 52.68 152.873 53.04C152.625 53.392 152.277 53.664 151.829 53.856C151.381 54.048 150.861 54.144 150.269 54.144C149.693 54.144 149.173 54.068 148.709 53.916C148.245 53.756 147.837 53.536 147.485 53.256L148.229 52.332C148.501 52.58 148.817 52.78 149.177 52.932C149.545 53.076 149.949 53.148 150.389 53.148C150.909 53.148 151.321 53.036 151.625 52.812C151.937 52.58 152.093 52.268 152.093 51.876ZM160.95 54.06C160.51 54.06 160.174 53.956 159.942 53.748C159.71 53.532 159.594 53.2 159.594 52.752V52.488C159.274 52.992 158.894 53.396 158.454 53.7C158.022 53.996 157.51 54.144 156.918 54.144C156.51 54.144 156.134 54.056 155.79 53.88C155.454 53.704 155.182 53.444 154.974 53.1C154.774 52.748 154.674 52.324 154.674 51.828C154.674 51.644 154.682 51.476 154.698 51.324C154.714 51.164 154.738 50.988 154.77 50.796L155.658 45.6H156.798L155.874 51.048C155.85 51.192 155.834 51.316 155.826 51.42C155.818 51.516 155.814 51.624 155.814 51.744C155.814 52.176 155.942 52.52 156.198 52.776C156.454 53.024 156.802 53.148 157.242 53.148C157.61 53.148 157.974 53.036 158.334 52.812C158.702 52.588 159.022 52.26 159.294 51.828C159.574 51.396 159.766 50.872 159.87 50.256L160.698 45.6H161.838L160.662 52.248C160.654 52.288 160.646 52.336 160.638 52.392C160.638 52.44 160.638 52.492 160.638 52.548C160.638 52.764 160.698 52.92 160.818 53.016C160.946 53.112 161.122 53.16 161.346 53.16L160.95 54.06ZM170.545 46.98L167.437 52.104H166.321L164.917 46.932L163.681 54H162.601L164.077 45.6H165.625L167.041 50.952L170.209 45.6H171.925L170.449 54H169.309L170.545 46.98Z" fill="#12DC01"/>
<rect x="34.5" y="319.5" width="199" height="99" rx="19.5" stroke="#12DC01"/>
<path d="M97.73 364.6H98.87L97.574 371.98H101.426L101.246 373H96.254L97.73 364.6ZM105.338 373.144C104.586 373.144 103.95 372.98 103.43 372.652C102.91 372.324 102.514 371.884 102.242 371.332C101.97 370.772 101.834 370.148 101.834 369.46C101.834 368.82 101.934 368.204 102.134 367.612C102.334 367.012 102.626 366.476 103.01 366.004C103.402 365.524 103.878 365.148 104.438 364.876C104.998 364.596 105.638 364.456 106.358 364.456C107.11 364.456 107.746 364.62 108.266 364.948C108.786 365.276 109.182 365.72 109.454 366.28C109.726 366.832 109.862 367.452 109.862 368.14C109.862 368.78 109.762 369.4 109.562 370C109.362 370.592 109.066 371.128 108.674 371.608C108.29 372.08 107.818 372.456 107.258 372.736C106.698 373.008 106.058 373.144 105.338 373.144ZM106.262 365.44C105.75 365.44 105.29 365.548 104.882 365.764C104.482 365.98 104.142 366.276 103.862 366.652C103.582 367.028 103.366 367.452 103.214 367.924C103.07 368.396 102.998 368.884 102.998 369.388C102.998 369.9 103.09 370.368 103.274 370.792C103.458 371.208 103.73 371.54 104.09 371.788C104.458 372.036 104.906 372.16 105.434 372.16C105.946 372.16 106.402 372.052 106.802 371.836C107.21 371.62 107.554 371.324 107.834 370.948C108.114 370.572 108.326 370.148 108.47 369.676C108.622 369.204 108.698 368.716 108.698 368.212C108.698 367.7 108.606 367.236 108.422 366.82C108.238 366.396 107.966 366.06 107.606 365.812C107.246 365.564 106.798 365.44 106.262 365.44ZM112.097 364.72C112.457 364.656 112.793 364.604 113.105 364.564C113.425 364.524 113.797 364.504 114.221 364.504C114.829 364.504 115.341 364.6 115.757 364.792C116.173 364.984 116.489 365.244 116.705 365.572C116.921 365.892 117.029 366.248 117.029 366.64C117.029 367.368 116.797 367.916 116.333 368.284C115.869 368.652 115.257 368.892 114.497 369.004C114.825 369.148 115.081 369.328 115.265 369.544C115.449 369.752 115.593 369.972 115.697 370.204C115.801 370.436 115.885 370.664 115.949 370.888C116.021 371.112 116.097 371.316 116.177 371.5C116.257 371.684 116.369 371.832 116.513 371.944C116.665 372.048 116.873 372.1 117.137 372.1L116.717 373.084C116.365 373.084 116.081 373.016 115.865 372.88C115.649 372.744 115.473 372.568 115.337 372.352C115.209 372.128 115.093 371.884 114.989 371.62C114.893 371.348 114.789 371.08 114.677 370.816C114.565 370.544 114.421 370.3 114.245 370.084C114.069 369.86 113.833 369.68 113.537 369.544C113.249 369.408 112.877 369.34 112.421 369.34L111.773 373H110.633L112.097 364.72ZM114.149 365.452C113.941 365.452 113.749 365.46 113.573 365.476C113.405 365.492 113.245 365.516 113.093 365.548L112.589 368.38H113.585C114.289 368.38 114.849 368.236 115.265 367.948C115.689 367.66 115.901 367.272 115.901 366.784C115.901 366.392 115.745 366.072 115.433 365.824C115.129 365.576 114.701 365.452 114.149 365.452ZM119.562 364.6H124.542L124.374 365.584H120.522L120.078 368.14H123.378L123.21 369.1H119.91L119.394 372.016H123.234L123.066 373H118.086L119.562 364.6ZM132.534 365.98L129.426 371.104H128.31L126.906 365.932L125.67 373H124.59L126.066 364.6H127.614L129.03 369.952L132.198 364.6H133.914L132.438 373H131.298L132.534 365.98ZM138.16 373L139.636 364.6H140.776L139.3 373H138.16ZM142.882 364.72C143.186 364.656 143.51 364.604 143.854 364.564C144.206 364.524 144.594 364.504 145.018 364.504C145.666 364.504 146.206 364.62 146.638 364.852C147.07 365.076 147.39 365.376 147.598 365.752C147.814 366.12 147.922 366.516 147.922 366.94C147.922 367.596 147.762 368.148 147.442 368.596C147.122 369.036 146.682 369.372 146.122 369.604C145.562 369.828 144.926 369.94 144.214 369.94C144.022 369.94 143.83 369.932 143.638 369.916C143.454 369.892 143.282 369.86 143.122 369.82L142.57 373H141.43L142.882 364.72ZM144.898 365.452C144.682 365.452 144.49 365.46 144.322 365.476C144.162 365.492 144.014 365.512 143.878 365.536L143.29 368.86C143.45 368.908 143.622 368.944 143.806 368.968C143.998 368.984 144.186 368.992 144.37 368.992C145.226 368.992 145.846 368.812 146.23 368.452C146.614 368.092 146.806 367.632 146.806 367.072C146.806 366.6 146.638 366.212 146.302 365.908C145.974 365.604 145.506 365.452 144.898 365.452ZM152.273 370.876C152.273 370.652 152.225 370.448 152.129 370.264C152.041 370.08 151.877 369.892 151.637 369.7C151.397 369.5 151.053 369.276 150.605 369.028C149.981 368.676 149.537 368.328 149.273 367.984C149.017 367.64 148.889 367.2 148.889 366.664C148.889 366.216 149.005 365.828 149.237 365.5C149.477 365.172 149.809 364.916 150.233 364.732C150.657 364.548 151.145 364.456 151.697 364.456C152.201 364.456 152.657 364.52 153.065 364.648C153.473 364.768 153.853 364.932 154.205 365.14L153.617 366.076C153.329 365.892 153.025 365.74 152.705 365.62C152.393 365.5 152.025 365.44 151.601 365.44C151.129 365.44 150.749 365.544 150.461 365.752C150.173 365.952 150.029 366.216 150.029 366.544C150.029 366.84 150.129 367.104 150.329 367.336C150.537 367.56 150.917 367.82 151.469 368.116C151.997 368.396 152.401 368.672 152.681 368.944C152.969 369.208 153.165 369.488 153.269 369.784C153.381 370.08 153.437 370.408 153.437 370.768C153.437 371.256 153.309 371.68 153.053 372.04C152.805 372.392 152.457 372.664 152.009 372.856C151.561 373.048 151.041 373.144 150.449 373.144C149.873 373.144 149.353 373.068 148.889 372.916C148.425 372.756 148.017 372.536 147.665 372.256L148.409 371.332C148.681 371.58 148.997 371.78 149.357 371.932C149.725 372.076 150.129 372.148 150.569 372.148C151.089 372.148 151.501 372.036 151.805 371.812C152.117 371.58 152.273 371.268 152.273 370.876ZM161.129 373.06C160.689 373.06 160.353 372.956 160.121 372.748C159.889 372.532 159.773 372.2 159.773 371.752V371.488C159.453 371.992 159.073 372.396 158.633 372.7C158.201 372.996 157.689 373.144 157.097 373.144C156.689 373.144 156.313 373.056 155.969 372.88C155.633 372.704 155.361 372.444 155.153 372.1C154.953 371.748 154.853 371.324 154.853 370.828C154.853 370.644 154.861 370.476 154.877 370.324C154.893 370.164 154.917 369.988 154.949 369.796L155.837 364.6H156.977L156.053 370.048C156.029 370.192 156.013 370.316 156.005 370.42C155.997 370.516 155.993 370.624 155.993 370.744C155.993 371.176 156.121 371.52 156.377 371.776C156.633 372.024 156.981 372.148 157.421 372.148C157.789 372.148 158.153 372.036 158.513 371.812C158.881 371.588 159.201 371.26 159.473 370.828C159.753 370.396 159.945 369.872 160.049 369.256L160.877 364.6H162.017L160.841 371.248C160.833 371.288 160.825 371.336 160.817 371.392C160.817 371.44 160.817 371.492 160.817 371.548C160.817 371.764 160.877 371.92 160.997 372.016C161.125 372.112 161.301 372.16 161.525 372.16L161.129 373.06ZM170.725 365.98L167.617 371.104H166.501L165.097 365.932L163.861 373H162.781L164.257 364.6H165.805L167.221 369.952L170.389 364.6H172.105L170.629 373H169.489L170.725 365.98Z" fill="#12DC01"/>
<rect x="33.8201" y="144" width="200" height="50" rx="25" fill="#12DC01"/>
<path d="M97.5501 165.6H98.6901L97.3941 172.98H101.246L101.066 174H96.0741L97.5501 165.6ZM105.158 174.144C104.406 174.144 103.77 173.98 103.25 173.652C102.73 173.324 102.334 172.884 102.062 172.332C101.79 171.772 101.654 171.148 101.654 170.46C101.654 169.82 101.754 169.204 101.954 168.612C102.154 168.012 102.446 167.476 102.83 167.004C103.222 166.524 103.698 166.148 104.258 165.876C104.818 165.596 105.458 165.456 106.178 165.456C106.93 165.456 107.566 165.62 108.086 165.948C108.606 166.276 109.002 166.72 109.274 167.28C109.546 167.832 109.682 168.452 109.682 169.14C109.682 169.78 109.582 170.4 109.382 171C109.182 171.592 108.886 172.128 108.494 172.608C108.11 173.08 107.638 173.456 107.078 173.736C106.518 174.008 105.878 174.144 105.158 174.144ZM106.082 166.44C105.57 166.44 105.11 166.548 104.702 166.764C104.302 166.98 103.962 167.276 103.682 167.652C103.402 168.028 103.186 168.452 103.034 168.924C102.89 169.396 102.818 169.884 102.818 170.388C102.818 170.9 102.91 171.368 103.094 171.792C103.278 172.208 103.55 172.54 103.91 172.788C104.278 173.036 104.726 173.16 105.254 173.16C105.766 173.16 106.222 173.052 106.622 172.836C107.03 172.62 107.374 172.324 107.654 171.948C107.934 171.572 108.146 171.148 108.29 170.676C108.442 170.204 108.518 169.716 108.518 169.212C108.518 168.7 108.426 168.236 108.242 167.82C108.058 167.396 107.786 167.06 107.426 166.812C107.066 166.564 106.618 166.44 106.082 166.44ZM111.917 165.72C112.277 165.656 112.613 165.604 112.925 165.564C113.245 165.524 113.617 165.504 114.041 165.504C114.649 165.504 115.161 165.6 115.577 165.792C115.993 165.984 116.309 166.244 116.525 166.572C116.741 166.892 116.849 167.248 116.849 167.64C116.849 168.368 116.617 168.916 116.153 169.284C115.689 169.652 115.077 169.892 114.317 170.004C114.645 170.148 114.901 170.328 115.085 170.544C115.269 170.752 115.413 170.972 115.517 171.204C115.621 171.436 115.705 171.664 115.769 171.888C115.841 172.112 115.917 172.316 115.997 172.5C116.077 172.684 116.189 172.832 116.333 172.944C116.485 173.048 116.693 173.1 116.957 173.1L116.537 174.084C116.185 174.084 115.901 174.016 115.685 173.88C115.469 173.744 115.293 173.568 115.157 173.352C115.029 173.128 114.913 172.884 114.809 172.62C114.713 172.348 114.609 172.08 114.497 171.816C114.385 171.544 114.241 171.3 114.065 171.084C113.889 170.86 113.653 170.68 113.357 170.544C113.069 170.408 112.697 170.34 112.241 170.34L111.593 174H110.453L111.917 165.72ZM113.969 166.452C113.761 166.452 113.569 166.46 113.393 166.476C113.225 166.492 113.065 166.516 112.913 166.548L112.409 169.38H113.405C114.109 169.38 114.669 169.236 115.085 168.948C115.509 168.66 115.721 168.272 115.721 167.784C115.721 167.392 115.565 167.072 115.253 166.824C114.949 166.576 114.521 166.452 113.969 166.452ZM119.382 165.6H124.362L124.194 166.584H120.342L119.898 169.14H123.198L123.03 170.1H119.73L119.214 173.016H123.054L122.886 174H117.906L119.382 165.6ZM132.354 166.98L129.246 172.104H128.13L126.726 166.932L125.49 174H124.41L125.886 165.6H127.434L128.85 170.952L132.018 165.6H133.734L132.258 174H131.118L132.354 166.98ZM137.98 174L139.456 165.6H140.596L139.12 174H137.98ZM142.702 165.72C143.006 165.656 143.33 165.604 143.674 165.564C144.026 165.524 144.414 165.504 144.838 165.504C145.486 165.504 146.026 165.62 146.458 165.852C146.89 166.076 147.21 166.376 147.418 166.752C147.634 167.12 147.742 167.516 147.742 167.94C147.742 168.596 147.582 169.148 147.262 169.596C146.942 170.036 146.502 170.372 145.942 170.604C145.382 170.828 144.746 170.94 144.034 170.94C143.842 170.94 143.65 170.932 143.458 170.916C143.274 170.892 143.102 170.86 142.942 170.82L142.39 174H141.25L142.702 165.72ZM144.718 166.452C144.502 166.452 144.31 166.46 144.142 166.476C143.982 166.492 143.834 166.512 143.698 166.536L143.11 169.86C143.27 169.908 143.442 169.944 143.626 169.968C143.818 169.984 144.006 169.992 144.19 169.992C145.046 169.992 145.666 169.812 146.05 169.452C146.434 169.092 146.626 168.632 146.626 168.072C146.626 167.6 146.458 167.212 146.122 166.908C145.794 166.604 145.326 166.452 144.718 166.452ZM152.093 171.876C152.093 171.652 152.045 171.448 151.949 171.264C151.861 171.08 151.697 170.892 151.457 170.7C151.217 170.5 150.873 170.276 150.425 170.028C149.801 169.676 149.357 169.328 149.093 168.984C148.837 168.64 148.709 168.2 148.709 167.664C148.709 167.216 148.825 166.828 149.057 166.5C149.297 166.172 149.629 165.916 150.053 165.732C150.477 165.548 150.965 165.456 151.517 165.456C152.021 165.456 152.477 165.52 152.885 165.648C153.293 165.768 153.673 165.932 154.025 166.14L153.437 167.076C153.149 166.892 152.845 166.74 152.525 166.62C152.213 166.5 151.845 166.44 151.421 166.44C150.949 166.44 150.569 166.544 150.281 166.752C149.993 166.952 149.849 167.216 149.849 167.544C149.849 167.84 149.949 168.104 150.149 168.336C150.357 168.56 150.737 168.82 151.289 169.116C151.817 169.396 152.221 169.672 152.501 169.944C152.789 170.208 152.985 170.488 153.089 170.784C153.201 171.08 153.257 171.408 153.257 171.768C153.257 172.256 153.129 172.68 152.873 173.04C152.625 173.392 152.277 173.664 151.829 173.856C151.381 174.048 150.861 174.144 150.269 174.144C149.693 174.144 149.173 174.068 148.709 173.916C148.245 173.756 147.837 173.536 147.485 173.256L148.229 172.332C148.501 172.58 148.817 172.78 149.177 172.932C149.545 173.076 149.949 173.148 150.389 173.148C150.909 173.148 151.321 173.036 151.625 172.812C151.937 172.58 152.093 172.268 152.093 171.876ZM160.95 174.06C160.51 174.06 160.174 173.956 159.942 173.748C159.71 173.532 159.594 173.2 159.594 172.752V172.488C159.274 172.992 158.894 173.396 158.454 173.7C158.022 173.996 157.51 174.144 156.918 174.144C156.51 174.144 156.134 174.056 155.79 173.88C155.454 173.704 155.182 173.444 154.974 173.1C154.774 172.748 154.674 172.324 154.674 171.828C154.674 171.644 154.682 171.476 154.698 171.324C154.714 171.164 154.738 170.988 154.77 170.796L155.658 165.6H156.798L155.874 171.048C155.85 171.192 155.834 171.316 155.826 171.42C155.818 171.516 155.814 171.624 155.814 171.744C155.814 172.176 155.942 172.52 156.198 172.776C156.454 173.024 156.802 173.148 157.242 173.148C157.61 173.148 157.974 173.036 158.334 172.812C158.702 172.588 159.022 172.26 159.294 171.828C159.574 171.396 159.766 170.872 159.87 170.256L160.698 165.6H161.838L160.662 172.248C160.654 172.288 160.646 172.336 160.638 172.392C160.638 172.44 160.638 172.492 160.638 172.548C160.638 172.764 160.698 172.92 160.818 173.016C160.946 173.112 161.122 173.16 161.346 173.16L160.95 174.06ZM170.545 166.98L167.437 172.104H166.321L164.917 166.932L163.681 174H162.601L164.077 165.6H165.625L167.041 170.952L170.209 165.6H171.925L170.449 174H169.309L170.545 166.98Z" fill="black"/>
<rect x="34" y="498" width="200" height="50" rx="25" fill="#12DC01"/>
<path d="M97.73 519.6H98.87L97.574 526.98H101.426L101.246 528H96.254L97.73 519.6ZM105.338 528.144C104.586 528.144 103.95 527.98 103.43 527.652C102.91 527.324 102.514 526.884 102.242 526.332C101.97 525.772 101.834 525.148 101.834 524.46C101.834 523.82 101.934 523.204 102.134 522.612C102.334 522.012 102.626 521.476 103.01 521.004C103.402 520.524 103.878 520.148 104.438 519.876C104.998 519.596 105.638 519.456 106.358 519.456C107.11 519.456 107.746 519.62 108.266 519.948C108.786 520.276 109.182 520.72 109.454 521.28C109.726 521.832 109.862 522.452 109.862 523.14C109.862 523.78 109.762 524.4 109.562 525C109.362 525.592 109.066 526.128 108.674 526.608C108.29 527.08 107.818 527.456 107.258 527.736C106.698 528.008 106.058 528.144 105.338 528.144ZM106.262 520.44C105.75 520.44 105.29 520.548 104.882 520.764C104.482 520.98 104.142 521.276 103.862 521.652C103.582 522.028 103.366 522.452 103.214 522.924C103.07 523.396 102.998 523.884 102.998 524.388C102.998 524.9 103.09 525.368 103.274 525.792C103.458 526.208 103.73 526.54 104.09 526.788C104.458 527.036 104.906 527.16 105.434 527.16C105.946 527.16 106.402 527.052 106.802 526.836C107.21 526.62 107.554 526.324 107.834 525.948C108.114 525.572 108.326 525.148 108.47 524.676C108.622 524.204 108.698 523.716 108.698 523.212C108.698 522.7 108.606 522.236 108.422 521.82C108.238 521.396 107.966 521.06 107.606 520.812C107.246 520.564 106.798 520.44 106.262 520.44ZM112.097 519.72C112.457 519.656 112.793 519.604 113.105 519.564C113.425 519.524 113.797 519.504 114.221 519.504C114.829 519.504 115.341 519.6 115.757 519.792C116.173 519.984 116.489 520.244 116.705 520.572C116.921 520.892 117.029 521.248 117.029 521.64C117.029 522.368 116.797 522.916 116.333 523.284C115.869 523.652 115.257 523.892 114.497 524.004C114.825 524.148 115.081 524.328 115.265 524.544C115.449 524.752 115.593 524.972 115.697 525.204C115.801 525.436 115.885 525.664 115.949 525.888C116.021 526.112 116.097 526.316 116.177 526.5C116.257 526.684 116.369 526.832 116.513 526.944C116.665 527.048 116.873 527.1 117.137 527.1L116.717 528.084C116.365 528.084 116.081 528.016 115.865 527.88C115.649 527.744 115.473 527.568 115.337 527.352C115.209 527.128 115.093 526.884 114.989 526.62C114.893 526.348 114.789 526.08 114.677 525.816C114.565 525.544 114.421 525.3 114.245 525.084C114.069 524.86 113.833 524.68 113.537 524.544C113.249 524.408 112.877 524.34 112.421 524.34L111.773 528H110.633L112.097 519.72ZM114.149 520.452C113.941 520.452 113.749 520.46 113.573 520.476C113.405 520.492 113.245 520.516 113.093 520.548L112.589 523.38H113.585C114.289 523.38 114.849 523.236 115.265 522.948C115.689 522.66 115.901 522.272 115.901 521.784C115.901 521.392 115.745 521.072 115.433 520.824C115.129 520.576 114.701 520.452 114.149 520.452ZM119.562 519.6H124.542L124.374 520.584H120.522L120.078 523.14H123.378L123.21 524.1H119.91L119.394 527.016H123.234L123.066 528H118.086L119.562 519.6ZM132.534 520.98L129.426 526.104H128.31L126.906 520.932L125.67 528H124.59L126.066 519.6H127.614L129.03 524.952L132.198 519.6H133.914L132.438 528H131.298L132.534 520.98ZM138.16 528L139.636 519.6H140.776L139.3 528H138.16ZM142.882 519.72C143.186 519.656 143.51 519.604 143.854 519.564C144.206 519.524 144.594 519.504 145.018 519.504C145.666 519.504 146.206 519.62 146.638 519.852C147.07 520.076 147.39 520.376 147.598 520.752C147.814 521.12 147.922 521.516 147.922 521.94C147.922 522.596 147.762 523.148 147.442 523.596C147.122 524.036 146.682 524.372 146.122 524.604C145.562 524.828 144.926 524.94 144.214 524.94C144.022 524.94 143.83 524.932 143.638 524.916C143.454 524.892 143.282 524.86 143.122 524.82L142.57 528H141.43L142.882 519.72ZM144.898 520.452C144.682 520.452 144.49 520.46 144.322 520.476C144.162 520.492 144.014 520.512 143.878 520.536L143.29 523.86C143.45 523.908 143.622 523.944 143.806 523.968C143.998 523.984 144.186 523.992 144.37 523.992C145.226 523.992 145.846 523.812 146.23 523.452C146.614 523.092 146.806 522.632 146.806 522.072C146.806 521.6 146.638 521.212 146.302 520.908C145.974 520.604 145.506 520.452 144.898 520.452ZM152.273 525.876C152.273 525.652 152.225 525.448 152.129 525.264C152.041 525.08 151.877 524.892 151.637 524.7C151.397 524.5 151.053 524.276 150.605 524.028C149.981 523.676 149.537 523.328 149.273 522.984C149.017 522.64 148.889 522.2 148.889 521.664C148.889 521.216 149.005 520.828 149.237 520.5C149.477 520.172 149.809 519.916 150.233 519.732C150.657 519.548 151.145 519.456 151.697 519.456C152.201 519.456 152.657 519.52 153.065 519.648C153.473 519.768 153.853 519.932 154.205 520.14L153.617 521.076C153.329 520.892 153.025 520.74 152.705 520.62C152.393 520.5 152.025 520.44 151.601 520.44C151.129 520.44 150.749 520.544 150.461 520.752C150.173 520.952 150.029 521.216 150.029 521.544C150.029 521.84 150.129 522.104 150.329 522.336C150.537 522.56 150.917 522.82 151.469 523.116C151.997 523.396 152.401 523.672 152.681 523.944C152.969 524.208 153.165 524.488 153.269 524.784C153.381 525.08 153.437 525.408 153.437 525.768C153.437 526.256 153.309 526.68 153.053 527.04C152.805 527.392 152.457 527.664 152.009 527.856C151.561 528.048 151.041 528.144 150.449 528.144C149.873 528.144 149.353 528.068 148.889 527.916C148.425 527.756 148.017 527.536 147.665 527.256L148.409 526.332C148.681 526.58 148.997 526.78 149.357 526.932C149.725 527.076 150.129 527.148 150.569 527.148C151.089 527.148 151.501 527.036 151.805 526.812C152.117 526.58 152.273 526.268 152.273 525.876ZM161.129 528.06C160.689 528.06 160.353 527.956 160.121 527.748C159.889 527.532 159.773 527.2 159.773 526.752V526.488C159.453 526.992 159.073 527.396 158.633 527.7C158.201 527.996 157.689 528.144 157.097 528.144C156.689 528.144 156.313 528.056 155.969 527.88C155.633 527.704 155.361 527.444 155.153 527.1C154.953 526.748 154.853 526.324 154.853 525.828C154.853 525.644 154.861 525.476 154.877 525.324C154.893 525.164 154.917 524.988 154.949 524.796L155.837 519.6H156.977L156.053 525.048C156.029 525.192 156.013 525.316 156.005 525.42C155.997 525.516 155.993 525.624 155.993 525.744C155.993 526.176 156.121 526.52 156.377 526.776C156.633 527.024 156.981 527.148 157.421 527.148C157.789 527.148 158.153 527.036 158.513 526.812C158.881 526.588 159.201 526.26 159.473 525.828C159.753 525.396 159.945 524.872 160.049 524.256L160.877 519.6H162.017L160.841 526.248C160.833 526.288 160.825 526.336 160.817 526.392C160.817 526.44 160.817 526.492 160.817 526.548C160.817 526.764 160.877 526.92 160.997 527.016C161.125 527.112 161.301 527.16 161.525 527.16L161.129 528.06ZM170.725 520.98L167.617 526.104H166.501L165.097 520.932L163.861 528H162.781L164.257 519.6H165.805L167.221 524.952L170.389 519.6H172.105L170.629 528H169.489L170.725 520.98Z" fill="black"/>
<rect x="197" y="627" width="200" height="50" rx="25" fill="#12DC01"/>
<path d="M260.73 648.6H261.87L260.574 655.98H264.426L264.246 657H259.254L260.73 648.6ZM268.338 657.144C267.586 657.144 266.95 656.98 266.43 656.652C265.91 656.324 265.514 655.884 265.242 655.332C264.97 654.772 264.834 654.148 264.834 653.46C264.834 652.82 264.934 652.204 265.134 651.612C265.334 651.012 265.626 650.476 266.01 650.004C266.402 649.524 266.878 649.148 267.438 648.876C267.998 648.596 268.638 648.456 269.358 648.456C270.11 648.456 270.746 648.62 271.266 648.948C271.786 649.276 272.182 649.72 272.454 650.28C272.726 650.832 272.862 651.452 272.862 652.14C272.862 652.78 272.762 653.4 272.562 654C272.362 654.592 272.066 655.128 271.674 655.608C271.29 656.08 270.818 656.456 270.258 656.736C269.698 657.008 269.058 657.144 268.338 657.144ZM269.262 649.44C268.75 649.44 268.29 649.548 267.882 649.764C267.482 649.98 267.142 650.276 266.862 650.652C266.582 651.028 266.366 651.452 266.214 651.924C266.07 652.396 265.998 652.884 265.998 653.388C265.998 653.9 266.09 654.368 266.274 654.792C266.458 655.208 266.73 655.54 267.09 655.788C267.458 656.036 267.906 656.16 268.434 656.16C268.946 656.16 269.402 656.052 269.802 655.836C270.21 655.62 270.554 655.324 270.834 654.948C271.114 654.572 271.326 654.148 271.47 653.676C271.622 653.204 271.698 652.716 271.698 652.212C271.698 651.7 271.606 651.236 271.422 650.82C271.238 650.396 270.966 650.06 270.606 649.812C270.246 649.564 269.798 649.44 269.262 649.44ZM275.097 648.72C275.457 648.656 275.793 648.604 276.105 648.564C276.425 648.524 276.797 648.504 277.221 648.504C277.829 648.504 278.341 648.6 278.757 648.792C279.173 648.984 279.489 649.244 279.705 649.572C279.921 649.892 280.029 650.248 280.029 650.64C280.029 651.368 279.797 651.916 279.333 652.284C278.869 652.652 278.257 652.892 277.497 653.004C277.825 653.148 278.081 653.328 278.265 653.544C278.449 653.752 278.593 653.972 278.697 654.204C278.801 654.436 278.885 654.664 278.949 654.888C279.021 655.112 279.097 655.316 279.177 655.5C279.257 655.684 279.369 655.832 279.513 655.944C279.665 656.048 279.873 656.1 280.137 656.1L279.717 657.084C279.365 657.084 279.081 657.016 278.865 656.88C278.649 656.744 278.473 656.568 278.337 656.352C278.209 656.128 278.093 655.884 277.989 655.62C277.893 655.348 277.789 655.08 277.677 654.816C277.565 654.544 277.421 654.3 277.245 654.084C277.069 653.86 276.833 653.68 276.537 653.544C276.249 653.408 275.877 653.34 275.421 653.34L274.773 657H273.633L275.097 648.72ZM277.149 649.452C276.941 649.452 276.749 649.46 276.573 649.476C276.405 649.492 276.245 649.516 276.093 649.548L275.589 652.38H276.585C277.289 652.38 277.849 652.236 278.265 651.948C278.689 651.66 278.901 651.272 278.901 650.784C278.901 650.392 278.745 650.072 278.433 649.824C278.129 649.576 277.701 649.452 277.149 649.452ZM282.562 648.6H287.542L287.374 649.584H283.522L283.078 652.14H286.378L286.21 653.1H282.91L282.394 656.016H286.234L286.066 657H281.086L282.562 648.6ZM295.534 649.98L292.426 655.104H291.31L289.906 649.932L288.67 657H287.59L289.066 648.6H290.614L292.03 653.952L295.198 648.6H296.914L295.438 657H294.298L295.534 649.98ZM301.16 657L302.636 648.6H303.776L302.3 657H301.16ZM305.882 648.72C306.186 648.656 306.51 648.604 306.854 648.564C307.206 648.524 307.594 648.504 308.018 648.504C308.666 648.504 309.206 648.62 309.638 648.852C310.07 649.076 310.39 649.376 310.598 649.752C310.814 650.12 310.922 650.516 310.922 650.94C310.922 651.596 310.762 652.148 310.442 652.596C310.122 653.036 309.682 653.372 309.122 653.604C308.562 653.828 307.926 653.94 307.214 653.94C307.022 653.94 306.83 653.932 306.638 653.916C306.454 653.892 306.282 653.86 306.122 653.82L305.57 657H304.43L305.882 648.72ZM307.898 649.452C307.682 649.452 307.49 649.46 307.322 649.476C307.162 649.492 307.014 649.512 306.878 649.536L306.29 652.86C306.45 652.908 306.622 652.944 306.806 652.968C306.998 652.984 307.186 652.992 307.37 652.992C308.226 652.992 308.846 652.812 309.23 652.452C309.614 652.092 309.806 651.632 309.806 651.072C309.806 650.6 309.638 650.212 309.302 649.908C308.974 649.604 308.506 649.452 307.898 649.452ZM315.273 654.876C315.273 654.652 315.225 654.448 315.129 654.264C315.041 654.08 314.877 653.892 314.637 653.7C314.397 653.5 314.053 653.276 313.605 653.028C312.981 652.676 312.537 652.328 312.273 651.984C312.017 651.64 311.889 651.2 311.889 650.664C311.889 650.216 312.005 649.828 312.237 649.5C312.477 649.172 312.809 648.916 313.233 648.732C313.657 648.548 314.145 648.456 314.697 648.456C315.201 648.456 315.657 648.52 316.065 648.648C316.473 648.768 316.853 648.932 317.205 649.14L316.617 650.076C316.329 649.892 316.025 649.74 315.705 649.62C315.393 649.5 315.025 649.44 314.601 649.44C314.129 649.44 313.749 649.544 313.461 649.752C313.173 649.952 313.029 650.216 313.029 650.544C313.029 650.84 313.129 651.104 313.329 651.336C313.537 651.56 313.917 651.82 314.469 652.116C314.997 652.396 315.401 652.672 315.681 652.944C315.969 653.208 316.165 653.488 316.269 653.784C316.381 654.08 316.437 654.408 316.437 654.768C316.437 655.256 316.309 655.68 316.053 656.04C315.805 656.392 315.457 656.664 315.009 656.856C314.561 657.048 314.041 657.144 313.449 657.144C312.873 657.144 312.353 657.068 311.889 656.916C311.425 656.756 311.017 656.536 310.665 656.256L311.409 655.332C311.681 655.58 311.997 655.78 312.357 655.932C312.725 656.076 313.129 656.148 313.569 656.148C314.089 656.148 314.501 656.036 314.805 655.812C315.117 655.58 315.273 655.268 315.273 654.876ZM324.129 657.06C323.689 657.06 323.353 656.956 323.121 656.748C322.889 656.532 322.773 656.2 322.773 655.752V655.488C322.453 655.992 322.073 656.396 321.633 656.7C321.201 656.996 320.689 657.144 320.097 657.144C319.689 657.144 319.313 657.056 318.969 656.88C318.633 656.704 318.361 656.444 318.153 656.1C317.953 655.748 317.853 655.324 317.853 654.828C317.853 654.644 317.861 654.476 317.877 654.324C317.893 654.164 317.917 653.988 317.949 653.796L318.837 648.6H319.977L319.053 654.048C319.029 654.192 319.013 654.316 319.005 654.42C318.997 654.516 318.993 654.624 318.993 654.744C318.993 655.176 319.121 655.52 319.377 655.776C319.633 656.024 319.981 656.148 320.421 656.148C320.789 656.148 321.153 656.036 321.513 655.812C321.881 655.588 322.201 655.26 322.473 654.828C322.753 654.396 322.945 653.872 323.049 653.256L323.877 648.6H325.017L323.841 655.248C323.833 655.288 323.825 655.336 323.817 655.392C323.817 655.44 323.817 655.492 323.817 655.548C323.817 655.764 323.877 655.92 323.997 656.016C324.125 656.112 324.301 656.16 324.525 656.16L324.129 657.06ZM333.725 649.98L330.617 655.104H329.501L328.097 649.932L326.861 657H325.781L327.257 648.6H328.805L330.221 653.952L333.389 648.6H335.105L333.629 657H332.489L333.725 649.98Z" fill="black"/>
<rect x="338" y="498" width="200" height="50" rx="25" fill="#12DC01"/>
<path d="M401.73 519.6H402.87L401.574 526.98H405.426L405.246 528H400.254L401.73 519.6ZM409.338 528.144C408.586 528.144 407.95 527.98 407.43 527.652C406.91 527.324 406.514 526.884 406.242 526.332C405.97 525.772 405.834 525.148 405.834 524.46C405.834 523.82 405.934 523.204 406.134 522.612C406.334 522.012 406.626 521.476 407.01 521.004C407.402 520.524 407.878 520.148 408.438 519.876C408.998 519.596 409.638 519.456 410.358 519.456C411.11 519.456 411.746 519.62 412.266 519.948C412.786 520.276 413.182 520.72 413.454 521.28C413.726 521.832 413.862 522.452 413.862 523.14C413.862 523.78 413.762 524.4 413.562 525C413.362 525.592 413.066 526.128 412.674 526.608C412.29 527.08 411.818 527.456 411.258 527.736C410.698 528.008 410.058 528.144 409.338 528.144ZM410.262 520.44C409.75 520.44 409.29 520.548 408.882 520.764C408.482 520.98 408.142 521.276 407.862 521.652C407.582 522.028 407.366 522.452 407.214 522.924C407.07 523.396 406.998 523.884 406.998 524.388C406.998 524.9 407.09 525.368 407.274 525.792C407.458 526.208 407.73 526.54 408.09 526.788C408.458 527.036 408.906 527.16 409.434 527.16C409.946 527.16 410.402 527.052 410.802 526.836C411.21 526.62 411.554 526.324 411.834 525.948C412.114 525.572 412.326 525.148 412.47 524.676C412.622 524.204 412.698 523.716 412.698 523.212C412.698 522.7 412.606 522.236 412.422 521.82C412.238 521.396 411.966 521.06 411.606 520.812C411.246 520.564 410.798 520.44 410.262 520.44ZM416.097 519.72C416.457 519.656 416.793 519.604 417.105 519.564C417.425 519.524 417.797 519.504 418.221 519.504C418.829 519.504 419.341 519.6 419.757 519.792C420.173 519.984 420.489 520.244 420.705 520.572C420.921 520.892 421.029 521.248 421.029 521.64C421.029 522.368 420.797 522.916 420.333 523.284C419.869 523.652 419.257 523.892 418.497 524.004C418.825 524.148 419.081 524.328 419.265 524.544C419.449 524.752 419.593 524.972 419.697 525.204C419.801 525.436 419.885 525.664 419.949 525.888C420.021 526.112 420.097 526.316 420.177 526.5C420.257 526.684 420.369 526.832 420.513 526.944C420.665 527.048 420.873 527.1 421.137 527.1L420.717 528.084C420.365 528.084 420.081 528.016 419.865 527.88C419.649 527.744 419.473 527.568 419.337 527.352C419.209 527.128 419.093 526.884 418.989 526.62C418.893 526.348 418.789 526.08 418.677 525.816C418.565 525.544 418.421 525.3 418.245 525.084C418.069 524.86 417.833 524.68 417.537 524.544C417.249 524.408 416.877 524.34 416.421 524.34L415.773 528H414.633L416.097 519.72ZM418.149 520.452C417.941 520.452 417.749 520.46 417.573 520.476C417.405 520.492 417.245 520.516 417.093 520.548L416.589 523.38H417.585C418.289 523.38 418.849 523.236 419.265 522.948C419.689 522.66 419.901 522.272 419.901 521.784C419.901 521.392 419.745 521.072 419.433 520.824C419.129 520.576 418.701 520.452 418.149 520.452ZM423.562 519.6H428.542L428.374 520.584H424.522L424.078 523.14H427.378L427.21 524.1H423.91L423.394 527.016H427.234L427.066 528H422.086L423.562 519.6ZM436.534 520.98L433.426 526.104H432.31L430.906 520.932L429.67 528H428.59L430.066 519.6H431.614L433.03 524.952L436.198 519.6H437.914L436.438 528H435.298L436.534 520.98ZM442.16 528L443.636 519.6H444.776L443.3 528H442.16ZM446.882 519.72C447.186 519.656 447.51 519.604 447.854 519.564C448.206 519.524 448.594 519.504 449.018 519.504C449.666 519.504 450.206 519.62 450.638 519.852C451.07 520.076 451.39 520.376 451.598 520.752C451.814 521.12 451.922 521.516 451.922 521.94C451.922 522.596 451.762 523.148 451.442 523.596C451.122 524.036 450.682 524.372 450.122 524.604C449.562 524.828 448.926 524.94 448.214 524.94C448.022 524.94 447.83 524.932 447.638 524.916C447.454 524.892 447.282 524.86 447.122 524.82L446.57 528H445.43L446.882 519.72ZM448.898 520.452C448.682 520.452 448.49 520.46 448.322 520.476C448.162 520.492 448.014 520.512 447.878 520.536L447.29 523.86C447.45 523.908 447.622 523.944 447.806 523.968C447.998 523.984 448.186 523.992 448.37 523.992C449.226 523.992 449.846 523.812 450.23 523.452C450.614 523.092 450.806 522.632 450.806 522.072C450.806 521.6 450.638 521.212 450.302 520.908C449.974 520.604 449.506 520.452 448.898 520.452ZM456.273 525.876C456.273 525.652 456.225 525.448 456.129 525.264C456.041 525.08 455.877 524.892 455.637 524.7C455.397 524.5 455.053 524.276 454.605 524.028C453.981 523.676 453.537 523.328 453.273 522.984C453.017 522.64 452.889 522.2 452.889 521.664C452.889 521.216 453.005 520.828 453.237 520.5C453.477 520.172 453.809 519.916 454.233 519.732C454.657 519.548 455.145 519.456 455.697 519.456C456.201 519.456 456.657 519.52 457.065 519.648C457.473 519.768 457.853 519.932 458.205 520.14L457.617 521.076C457.329 520.892 457.025 520.74 456.705 520.62C456.393 520.5 456.025 520.44 455.601 520.44C455.129 520.44 454.749 520.544 454.461 520.752C454.173 520.952 454.029 521.216 454.029 521.544C454.029 521.84 454.129 522.104 454.329 522.336C454.537 522.56 454.917 522.82 455.469 523.116C455.997 523.396 456.401 523.672 456.681 523.944C456.969 524.208 457.165 524.488 457.269 524.784C457.381 525.08 457.437 525.408 457.437 525.768C457.437 526.256 457.309 526.68 457.053 527.04C456.805 527.392 456.457 527.664 456.009 527.856C455.561 528.048 455.041 528.144 454.449 528.144C453.873 528.144 453.353 528.068 452.889 527.916C452.425 527.756 452.017 527.536 451.665 527.256L452.409 526.332C452.681 526.58 452.997 526.78 453.357 526.932C453.725 527.076 454.129 527.148 454.569 527.148C455.089 527.148 455.501 527.036 455.805 526.812C456.117 526.58 456.273 526.268 456.273 525.876ZM465.129 528.06C464.689 528.06 464.353 527.956 464.121 527.748C463.889 527.532 463.773 527.2 463.773 526.752V526.488C463.453 526.992 463.073 527.396 462.633 527.7C462.201 527.996 461.689 528.144 461.097 528.144C460.689 528.144 460.313 528.056 459.969 527.88C459.633 527.704 459.361 527.444 459.153 527.1C458.953 526.748 458.853 526.324 458.853 525.828C458.853 525.644 458.861 525.476 458.877 525.324C458.893 525.164 458.917 524.988 458.949 524.796L459.837 519.6H460.977L460.053 525.048C460.029 525.192 460.013 525.316 460.005 525.42C459.997 525.516 459.993 525.624 459.993 525.744C459.993 526.176 460.121 526.52 460.377 526.776C460.633 527.024 460.981 527.148 461.421 527.148C461.789 527.148 462.153 527.036 462.513 526.812C462.881 526.588 463.201 526.26 463.473 525.828C463.753 525.396 463.945 524.872 464.049 524.256L464.877 519.6H466.017L464.841 526.248C464.833 526.288 464.825 526.336 464.817 526.392C464.817 526.44 464.817 526.492 464.817 526.548C464.817 526.764 464.877 526.92 464.997 527.016C465.125 527.112 465.301 527.16 465.525 527.16L465.129 528.06ZM474.725 520.98L471.617 526.104H470.501L469.097 520.932L467.861 528H466.781L468.257 519.6H469.805L471.221 524.952L474.389 519.6H476.105L474.629 528H473.489L474.725 520.98Z" fill="black"/>
<rect x="338.32" y="96.5" width="199" height="99" rx="19.5" stroke="#12DC01"/>
<path d="M401.55 141.6H402.69L401.394 148.98H405.246L405.066 150H400.074L401.55 141.6ZM409.158 150.144C408.406 150.144 407.77 149.98 407.25 149.652C406.73 149.324 406.334 148.884 406.062 148.332C405.79 147.772 405.654 147.148 405.654 146.46C405.654 145.82 405.754 145.204 405.954 144.612C406.154 144.012 406.446 143.476 406.83 143.004C407.222 142.524 407.698 142.148 408.258 141.876C408.818 141.596 409.458 141.456 410.178 141.456C410.93 141.456 411.566 141.62 412.086 141.948C412.606 142.276 413.002 142.72 413.274 143.28C413.546 143.832 413.682 144.452 413.682 145.14C413.682 145.78 413.582 146.4 413.382 147C413.182 147.592 412.886 148.128 412.494 148.608C412.11 149.08 411.638 149.456 411.078 149.736C410.518 150.008 409.878 150.144 409.158 150.144ZM410.082 142.44C409.57 142.44 409.11 142.548 408.702 142.764C408.302 142.98 407.962 143.276 407.682 143.652C407.402 144.028 407.186 144.452 407.034 144.924C406.89 145.396 406.818 145.884 406.818 146.388C406.818 146.9 406.91 147.368 407.094 147.792C407.278 148.208 407.55 148.54 407.91 148.788C408.278 149.036 408.726 149.16 409.254 149.16C409.766 149.16 410.222 149.052 410.622 148.836C411.03 148.62 411.374 148.324 411.654 147.948C411.934 147.572 412.146 147.148 412.29 146.676C412.442 146.204 412.518 145.716 412.518 145.212C412.518 144.7 412.426 144.236 412.242 143.82C412.058 143.396 411.786 143.06 411.426 142.812C411.066 142.564 410.618 142.44 410.082 142.44ZM415.917 141.72C416.277 141.656 416.613 141.604 416.925 141.564C417.245 141.524 417.617 141.504 418.041 141.504C418.649 141.504 419.161 141.6 419.577 141.792C419.993 141.984 420.309 142.244 420.525 142.572C420.741 142.892 420.849 143.248 420.849 143.64C420.849 144.368 420.617 144.916 420.153 145.284C419.689 145.652 419.077 145.892 418.317 146.004C418.645 146.148 418.901 146.328 419.085 146.544C419.269 146.752 419.413 146.972 419.517 147.204C419.621 147.436 419.705 147.664 419.769 147.888C419.841 148.112 419.917 148.316 419.997 148.5C420.077 148.684 420.189 148.832 420.333 148.944C420.485 149.048 420.693 149.1 420.957 149.1L420.537 150.084C420.185 150.084 419.901 150.016 419.685 149.88C419.469 149.744 419.293 149.568 419.157 149.352C419.029 149.128 418.913 148.884 418.809 148.62C418.713 148.348 418.609 148.08 418.497 147.816C418.385 147.544 418.241 147.3 418.065 147.084C417.889 146.86 417.653 146.68 417.357 146.544C417.069 146.408 416.697 146.34 416.241 146.34L415.593 150H414.453L415.917 141.72ZM417.969 142.452C417.761 142.452 417.569 142.46 417.393 142.476C417.225 142.492 417.065 142.516 416.913 142.548L416.409 145.38H417.405C418.109 145.38 418.669 145.236 419.085 144.948C419.509 144.66 419.721 144.272 419.721 143.784C419.721 143.392 419.565 143.072 419.253 142.824C418.949 142.576 418.521 142.452 417.969 142.452ZM423.382 141.6H428.362L428.194 142.584H424.342L423.898 145.14H427.198L427.03 146.1H423.73L423.214 149.016H427.054L426.886 150H421.906L423.382 141.6ZM436.354 142.98L433.246 148.104H432.13L430.726 142.932L429.49 150H428.41L429.886 141.6H431.434L432.85 146.952L436.018 141.6H437.734L436.258 150H435.118L436.354 142.98ZM441.98 150L443.456 141.6H444.596L443.12 150H441.98ZM446.702 141.72C447.006 141.656 447.33 141.604 447.674 141.564C448.026 141.524 448.414 141.504 448.838 141.504C449.486 141.504 450.026 141.62 450.458 141.852C450.89 142.076 451.21 142.376 451.418 142.752C451.634 143.12 451.742 143.516 451.742 143.94C451.742 144.596 451.582 145.148 451.262 145.596C450.942 146.036 450.502 146.372 449.942 146.604C449.382 146.828 448.746 146.94 448.034 146.94C447.842 146.94 447.65 146.932 447.458 146.916C447.274 146.892 447.102 146.86 446.942 146.82L446.39 150H445.25L446.702 141.72ZM448.718 142.452C448.502 142.452 448.31 142.46 448.142 142.476C447.982 142.492 447.834 142.512 447.698 142.536L447.11 145.86C447.27 145.908 447.442 145.944 447.626 145.968C447.818 145.984 448.006 145.992 448.19 145.992C449.046 145.992 449.666 145.812 450.05 145.452C450.434 145.092 450.626 144.632 450.626 144.072C450.626 143.6 450.458 143.212 450.122 142.908C449.794 142.604 449.326 142.452 448.718 142.452ZM456.093 147.876C456.093 147.652 456.045 147.448 455.949 147.264C455.861 147.08 455.697 146.892 455.457 146.7C455.217 146.5 454.873 146.276 454.425 146.028C453.801 145.676 453.357 145.328 453.093 144.984C452.837 144.64 452.709 144.2 452.709 143.664C452.709 143.216 452.825 142.828 453.057 142.5C453.297 142.172 453.629 141.916 454.053 141.732C454.477 141.548 454.965 141.456 455.517 141.456C456.021 141.456 456.477 141.52 456.885 141.648C457.293 141.768 457.673 141.932 458.025 142.14L457.437 143.076C457.149 142.892 456.845 142.74 456.525 142.62C456.213 142.5 455.845 142.44 455.421 142.44C454.949 142.44 454.569 142.544 454.281 142.752C453.993 142.952 453.849 143.216 453.849 143.544C453.849 143.84 453.949 144.104 454.149 144.336C454.357 144.56 454.737 144.82 455.289 145.116C455.817 145.396 456.221 145.672 456.501 145.944C456.789 146.208 456.985 146.488 457.089 146.784C457.201 147.08 457.257 147.408 457.257 147.768C457.257 148.256 457.129 148.68 456.873 149.04C456.625 149.392 456.277 149.664 455.829 149.856C455.381 150.048 454.861 150.144 454.269 150.144C453.693 150.144 453.173 150.068 452.709 149.916C452.245 149.756 451.837 149.536 451.485 149.256L452.229 148.332C452.501 148.58 452.817 148.78 453.177 148.932C453.545 149.076 453.949 149.148 454.389 149.148C454.909 149.148 455.321 149.036 455.625 148.812C455.937 148.58 456.093 148.268 456.093 147.876ZM464.95 150.06C464.51 150.06 464.174 149.956 463.942 149.748C463.71 149.532 463.594 149.2 463.594 148.752V148.488C463.274 148.992 462.894 149.396 462.454 149.7C462.022 149.996 461.51 150.144 460.918 150.144C460.51 150.144 460.134 150.056 459.79 149.88C459.454 149.704 459.182 149.444 458.974 149.1C458.774 148.748 458.674 148.324 458.674 147.828C458.674 147.644 458.682 147.476 458.698 147.324C458.714 147.164 458.738 146.988 458.77 146.796L459.658 141.6H460.798L459.874 147.048C459.85 147.192 459.834 147.316 459.826 147.42C459.818 147.516 459.814 147.624 459.814 147.744C459.814 148.176 459.942 148.52 460.198 148.776C460.454 149.024 460.802 149.148 461.242 149.148C461.61 149.148 461.974 149.036 462.334 148.812C462.702 148.588 463.022 148.26 463.294 147.828C463.574 147.396 463.766 146.872 463.87 146.256L464.698 141.6H465.838L464.662 148.248C464.654 148.288 464.646 148.336 464.638 148.392C464.638 148.44 464.638 148.492 464.638 148.548C464.638 148.764 464.698 148.92 464.818 149.016C464.946 149.112 465.122 149.16 465.346 149.16L464.95 150.06ZM474.545 142.98L471.437 148.104H470.321L468.917 142.932L467.681 150H466.601L468.077 141.6H469.625L471.041 146.952L474.209 141.6H475.925L474.449 150H473.309L474.545 142.98Z" fill="#12DC01"/>
<rect x="338.5" y="319.5" width="199" height="99" rx="19.5" stroke="#12DC01"/>
<path d="M401.73 364.6H402.87L401.574 371.98H405.426L405.246 373H400.254L401.73 364.6ZM409.338 373.144C408.586 373.144 407.95 372.98 407.43 372.652C406.91 372.324 406.514 371.884 406.242 371.332C405.97 370.772 405.834 370.148 405.834 369.46C405.834 368.82 405.934 368.204 406.134 367.612C406.334 367.012 406.626 366.476 407.01 366.004C407.402 365.524 407.878 365.148 408.438 364.876C408.998 364.596 409.638 364.456 410.358 364.456C411.11 364.456 411.746 364.62 412.266 364.948C412.786 365.276 413.182 365.72 413.454 366.28C413.726 366.832 413.862 367.452 413.862 368.14C413.862 368.78 413.762 369.4 413.562 370C413.362 370.592 413.066 371.128 412.674 371.608C412.29 372.08 411.818 372.456 411.258 372.736C410.698 373.008 410.058 373.144 409.338 373.144ZM410.262 365.44C409.75 365.44 409.29 365.548 408.882 365.764C408.482 365.98 408.142 366.276 407.862 366.652C407.582 367.028 407.366 367.452 407.214 367.924C407.07 368.396 406.998 368.884 406.998 369.388C406.998 369.9 407.09 370.368 407.274 370.792C407.458 371.208 407.73 371.54 408.09 371.788C408.458 372.036 408.906 372.16 409.434 372.16C409.946 372.16 410.402 372.052 410.802 371.836C411.21 371.62 411.554 371.324 411.834 370.948C412.114 370.572 412.326 370.148 412.47 369.676C412.622 369.204 412.698 368.716 412.698 368.212C412.698 367.7 412.606 367.236 412.422 366.82C412.238 366.396 411.966 366.06 411.606 365.812C411.246 365.564 410.798 365.44 410.262 365.44ZM416.097 364.72C416.457 364.656 416.793 364.604 417.105 364.564C417.425 364.524 417.797 364.504 418.221 364.504C418.829 364.504 419.341 364.6 419.757 364.792C420.173 364.984 420.489 365.244 420.705 365.572C420.921 365.892 421.029 366.248 421.029 366.64C421.029 367.368 420.797 367.916 420.333 368.284C419.869 368.652 419.257 368.892 418.497 369.004C418.825 369.148 419.081 369.328 419.265 369.544C419.449 369.752 419.593 369.972 419.697 370.204C419.801 370.436 419.885 370.664 419.949 370.888C420.021 371.112 420.097 371.316 420.177 371.5C420.257 371.684 420.369 371.832 420.513 371.944C420.665 372.048 420.873 372.1 421.137 372.1L420.717 373.084C420.365 373.084 420.081 373.016 419.865 372.88C419.649 372.744 419.473 372.568 419.337 372.352C419.209 372.128 419.093 371.884 418.989 371.62C418.893 371.348 418.789 371.08 418.677 370.816C418.565 370.544 418.421 370.3 418.245 370.084C418.069 369.86 417.833 369.68 417.537 369.544C417.249 369.408 416.877 369.34 416.421 369.34L415.773 373H414.633L416.097 364.72ZM418.149 365.452C417.941 365.452 417.749 365.46 417.573 365.476C417.405 365.492 417.245 365.516 417.093 365.548L416.589 368.38H417.585C418.289 368.38 418.849 368.236 419.265 367.948C419.689 367.66 419.901 367.272 419.901 366.784C419.901 366.392 419.745 366.072 419.433 365.824C419.129 365.576 418.701 365.452 418.149 365.452ZM423.562 364.6H428.542L428.374 365.584H424.522L424.078 368.14H427.378L427.21 369.1H423.91L423.394 372.016H427.234L427.066 373H422.086L423.562 364.6ZM436.534 365.98L433.426 371.104H432.31L430.906 365.932L429.67 373H428.59L430.066 364.6H431.614L433.03 369.952L436.198 364.6H437.914L436.438 373H435.298L436.534 365.98ZM442.16 373L443.636 364.6H444.776L443.3 373H442.16ZM446.882 364.72C447.186 364.656 447.51 364.604 447.854 364.564C448.206 364.524 448.594 364.504 449.018 364.504C449.666 364.504 450.206 364.62 450.638 364.852C451.07 365.076 451.39 365.376 451.598 365.752C451.814 366.12 451.922 366.516 451.922 366.94C451.922 367.596 451.762 368.148 451.442 368.596C451.122 369.036 450.682 369.372 450.122 369.604C449.562 369.828 448.926 369.94 448.214 369.94C448.022 369.94 447.83 369.932 447.638 369.916C447.454 369.892 447.282 369.86 447.122 369.82L446.57 373H445.43L446.882 364.72ZM448.898 365.452C448.682 365.452 448.49 365.46 448.322 365.476C448.162 365.492 448.014 365.512 447.878 365.536L447.29 368.86C447.45 368.908 447.622 368.944 447.806 368.968C447.998 368.984 448.186 368.992 448.37 368.992C449.226 368.992 449.846 368.812 450.23 368.452C450.614 368.092 450.806 367.632 450.806 367.072C450.806 366.6 450.638 366.212 450.302 365.908C449.974 365.604 449.506 365.452 448.898 365.452ZM456.273 370.876C456.273 370.652 456.225 370.448 456.129 370.264C456.041 370.08 455.877 369.892 455.637 369.7C455.397 369.5 455.053 369.276 454.605 369.028C453.981 368.676 453.537 368.328 453.273 367.984C453.017 367.64 452.889 367.2 452.889 366.664C452.889 366.216 453.005 365.828 453.237 365.5C453.477 365.172 453.809 364.916 454.233 364.732C454.657 364.548 455.145 364.456 455.697 364.456C456.201 364.456 456.657 364.52 457.065 364.648C457.473 364.768 457.853 364.932 458.205 365.14L457.617 366.076C457.329 365.892 457.025 365.74 456.705 365.62C456.393 365.5 456.025 365.44 455.601 365.44C455.129 365.44 454.749 365.544 454.461 365.752C454.173 365.952 454.029 366.216 454.029 366.544C454.029 366.84 454.129 367.104 454.329 367.336C454.537 367.56 454.917 367.82 455.469 368.116C455.997 368.396 456.401 368.672 456.681 368.944C456.969 369.208 457.165 369.488 457.269 369.784C457.381 370.08 457.437 370.408 457.437 370.768C457.437 371.256 457.309 371.68 457.053 372.04C456.805 372.392 456.457 372.664 456.009 372.856C455.561 373.048 455.041 373.144 454.449 373.144C453.873 373.144 453.353 373.068 452.889 372.916C452.425 372.756 452.017 372.536 451.665 372.256L452.409 371.332C452.681 371.58 452.997 371.78 453.357 371.932C453.725 372.076 454.129 372.148 454.569 372.148C455.089 372.148 455.501 372.036 455.805 371.812C456.117 371.58 456.273 371.268 456.273 370.876ZM465.129 373.06C464.689 373.06 464.353 372.956 464.121 372.748C463.889 372.532 463.773 372.2 463.773 371.752V371.488C463.453 371.992 463.073 372.396 462.633 372.7C462.201 372.996 461.689 373.144 461.097 373.144C460.689 373.144 460.313 373.056 459.969 372.88C459.633 372.704 459.361 372.444 459.153 372.1C458.953 371.748 458.853 371.324 458.853 370.828C458.853 370.644 458.861 370.476 458.877 370.324C458.893 370.164 458.917 369.988 458.949 369.796L459.837 364.6H460.977L460.053 370.048C460.029 370.192 460.013 370.316 460.005 370.42C459.997 370.516 459.993 370.624 459.993 370.744C459.993 371.176 460.121 371.52 460.377 371.776C460.633 372.024 460.981 372.148 461.421 372.148C461.789 372.148 462.153 372.036 462.513 371.812C462.881 371.588 463.201 371.26 463.473 370.828C463.753 370.396 463.945 369.872 464.049 369.256L464.877 364.6H466.017L464.841 371.248C464.833 371.288 464.825 371.336 464.817 371.392C464.817 371.44 464.817 371.492 464.817 371.548C464.817 371.764 464.877 371.92 464.997 372.016C465.125 372.112 465.301 372.16 465.525 372.16L465.129 373.06ZM474.725 365.98L471.617 371.104H470.501L469.097 365.932L467.861 373H466.781L468.257 364.6H469.805L471.221 369.952L474.389 364.6H476.105L474.629 373H473.489L474.725 365.98Z" fill="#12DC01"/>
<rect x="337.82" width="200" height="50" rx="25" fill="#12DC01"/>
<path d="M401.55 21.6H402.69L401.394 28.98H405.246L405.066 30H400.074L401.55 21.6ZM409.158 30.144C408.406 30.144 407.77 29.98 407.25 29.652C406.73 29.324 406.334 28.884 406.062 28.332C405.79 27.772 405.654 27.148 405.654 26.46C405.654 25.82 405.754 25.204 405.954 24.612C406.154 24.012 406.446 23.476 406.83 23.004C407.222 22.524 407.698 22.148 408.258 21.876C408.818 21.596 409.458 21.456 410.178 21.456C410.93 21.456 411.566 21.62 412.086 21.948C412.606 22.276 413.002 22.72 413.274 23.28C413.546 23.832 413.682 24.452 413.682 25.14C413.682 25.78 413.582 26.4 413.382 27C413.182 27.592 412.886 28.128 412.494 28.608C412.11 29.08 411.638 29.456 411.078 29.736C410.518 30.008 409.878 30.144 409.158 30.144ZM410.082 22.44C409.57 22.44 409.11 22.548 408.702 22.764C408.302 22.98 407.962 23.276 407.682 23.652C407.402 24.028 407.186 24.452 407.034 24.924C406.89 25.396 406.818 25.884 406.818 26.388C406.818 26.9 406.91 27.368 407.094 27.792C407.278 28.208 407.55 28.54 407.91 28.788C408.278 29.036 408.726 29.16 409.254 29.16C409.766 29.16 410.222 29.052 410.622 28.836C411.03 28.62 411.374 28.324 411.654 27.948C411.934 27.572 412.146 27.148 412.29 26.676C412.442 26.204 412.518 25.716 412.518 25.212C412.518 24.7 412.426 24.236 412.242 23.82C412.058 23.396 411.786 23.06 411.426 22.812C411.066 22.564 410.618 22.44 410.082 22.44ZM415.917 21.72C416.277 21.656 416.613 21.604 416.925 21.564C417.245 21.524 417.617 21.504 418.041 21.504C418.649 21.504 419.161 21.6 419.577 21.792C419.993 21.984 420.309 22.244 420.525 22.572C420.741 22.892 420.849 23.248 420.849 23.64C420.849 24.368 420.617 24.916 420.153 25.284C419.689 25.652 419.077 25.892 418.317 26.004C418.645 26.148 418.901 26.328 419.085 26.544C419.269 26.752 419.413 26.972 419.517 27.204C419.621 27.436 419.705 27.664 419.769 27.888C419.841 28.112 419.917 28.316 419.997 28.5C420.077 28.684 420.189 28.832 420.333 28.944C420.485 29.048 420.693 29.1 420.957 29.1L420.537 30.084C420.185 30.084 419.901 30.016 419.685 29.88C419.469 29.744 419.293 29.568 419.157 29.352C419.029 29.128 418.913 28.884 418.809 28.62C418.713 28.348 418.609 28.08 418.497 27.816C418.385 27.544 418.241 27.3 418.065 27.084C417.889 26.86 417.653 26.68 417.357 26.544C417.069 26.408 416.697 26.34 416.241 26.34L415.593 30H414.453L415.917 21.72ZM417.969 22.452C417.761 22.452 417.569 22.46 417.393 22.476C417.225 22.492 417.065 22.516 416.913 22.548L416.409 25.38H417.405C418.109 25.38 418.669 25.236 419.085 24.948C419.509 24.66 419.721 24.272 419.721 23.784C419.721 23.392 419.565 23.072 419.253 22.824C418.949 22.576 418.521 22.452 417.969 22.452ZM423.382 21.6H428.362L428.194 22.584H424.342L423.898 25.14H427.198L427.03 26.1H423.73L423.214 29.016H427.054L426.886 30H421.906L423.382 21.6ZM436.354 22.98L433.246 28.104H432.13L430.726 22.932L429.49 30H428.41L429.886 21.6H431.434L432.85 26.952L436.018 21.6H437.734L436.258 30H435.118L436.354 22.98ZM441.98 30L443.456 21.6H444.596L443.12 30H441.98ZM446.702 21.72C447.006 21.656 447.33 21.604 447.674 21.564C448.026 21.524 448.414 21.504 448.838 21.504C449.486 21.504 450.026 21.62 450.458 21.852C450.89 22.076 451.21 22.376 451.418 22.752C451.634 23.12 451.742 23.516 451.742 23.94C451.742 24.596 451.582 25.148 451.262 25.596C450.942 26.036 450.502 26.372 449.942 26.604C449.382 26.828 448.746 26.94 448.034 26.94C447.842 26.94 447.65 26.932 447.458 26.916C447.274 26.892 447.102 26.86 446.942 26.82L446.39 30H445.25L446.702 21.72ZM448.718 22.452C448.502 22.452 448.31 22.46 448.142 22.476C447.982 22.492 447.834 22.512 447.698 22.536L447.11 25.86C447.27 25.908 447.442 25.944 447.626 25.968C447.818 25.984 448.006 25.992 448.19 25.992C449.046 25.992 449.666 25.812 450.05 25.452C450.434 25.092 450.626 24.632 450.626 24.072C450.626 23.6 450.458 23.212 450.122 22.908C449.794 22.604 449.326 22.452 448.718 22.452ZM456.093 27.876C456.093 27.652 456.045 27.448 455.949 27.264C455.861 27.08 455.697 26.892 455.457 26.7C455.217 26.5 454.873 26.276 454.425 26.028C453.801 25.676 453.357 25.328 453.093 24.984C452.837 24.64 452.709 24.2 452.709 23.664C452.709 23.216 452.825 22.828 453.057 22.5C453.297 22.172 453.629 21.916 454.053 21.732C454.477 21.548 454.965 21.456 455.517 21.456C456.021 21.456 456.477 21.52 456.885 21.648C457.293 21.768 457.673 21.932 458.025 22.14L457.437 23.076C457.149 22.892 456.845 22.74 456.525 22.62C456.213 22.5 455.845 22.44 455.421 22.44C454.949 22.44 454.569 22.544 454.281 22.752C453.993 22.952 453.849 23.216 453.849 23.544C453.849 23.84 453.949 24.104 454.149 24.336C454.357 24.56 454.737 24.82 455.289 25.116C455.817 25.396 456.221 25.672 456.501 25.944C456.789 26.208 456.985 26.488 457.089 26.784C457.201 27.08 457.257 27.408 457.257 27.768C457.257 28.256 457.129 28.68 456.873 29.04C456.625 29.392 456.277 29.664 455.829 29.856C455.381 30.048 454.861 30.144 454.269 30.144C453.693 30.144 453.173 30.068 452.709 29.916C452.245 29.756 451.837 29.536 451.485 29.256L452.229 28.332C452.501 28.58 452.817 28.78 453.177 28.932C453.545 29.076 453.949 29.148 454.389 29.148C454.909 29.148 455.321 29.036 455.625 28.812C455.937 28.58 456.093 28.268 456.093 27.876ZM464.95 30.06C464.51 30.06 464.174 29.956 463.942 29.748C463.71 29.532 463.594 29.2 463.594 28.752V28.488C463.274 28.992 462.894 29.396 462.454 29.7C462.022 29.996 461.51 30.144 460.918 30.144C460.51 30.144 460.134 30.056 459.79 29.88C459.454 29.704 459.182 29.444 458.974 29.1C458.774 28.748 458.674 28.324 458.674 27.828C458.674 27.644 458.682 27.476 458.698 27.324C458.714 27.164 458.738 26.988 458.77 26.796L459.658 21.6H460.798L459.874 27.048C459.85 27.192 459.834 27.316 459.826 27.42C459.818 27.516 459.814 27.624 459.814 27.744C459.814 28.176 459.942 28.52 460.198 28.776C460.454 29.024 460.802 29.148 461.242 29.148C461.61 29.148 461.974 29.036 462.334 28.812C462.702 28.588 463.022 28.26 463.294 27.828C463.574 27.396 463.766 26.872 463.87 26.256L464.698 21.6H465.838L464.662 28.248C464.654 28.288 464.646 28.336 464.638 28.392C464.638 28.44 464.638 28.492 464.638 28.548C464.638 28.764 464.698 28.92 464.818 29.016C464.946 29.112 465.122 29.16 465.346 29.16L464.95 30.06ZM474.545 22.98L471.437 28.104H470.321L468.917 22.932L467.681 30H466.601L468.077 21.6H469.625L471.041 26.952L474.209 21.6H475.925L474.449 30H473.309L474.545 22.98Z" fill="black"/>
<path d="M135.32 198C135.32 197.172 134.649 196.5 133.82 196.5C132.992 196.5 132.32 197.172 132.32 198H135.32ZM132.939 316.061C133.525 316.646 134.475 316.646 135.061 316.061L144.607 306.515C145.192 305.929 145.192 304.979 144.607 304.393C144.021 303.808 143.071 303.808 142.485 304.393L134 312.879L125.515 304.393C124.929 303.808 123.979 303.808 123.393 304.393C122.808 304.979 122.808 305.929 123.393 306.515L132.939 316.061ZM132.32 198V200.921H135.32V198H132.32ZM132.32 204.815V210.656H135.32V204.815H132.32ZM132.32 214.55V220.391H135.32V214.55H132.32ZM132.32 224.285V230.126H135.32V224.285H132.32ZM132.32 234.02V239.861H135.32V234.02H132.32ZM132.32 243.755V249.596H135.32V243.755H132.32ZM132.32 253.49V256.41H135.32V253.49H132.32ZM132.32 256.41C132.32 256.667 132.382 256.914 132.494 257.133L135.166 255.769C135.265 255.963 135.32 256.182 135.32 256.41H132.32ZM133.187 257.826C133.406 257.938 133.653 258 133.91 258V255C134.138 255 134.357 255.055 134.551 255.154L133.187 257.826ZM133.91 258C133.682 258 133.463 257.945 133.269 257.846L134.633 255.174C134.414 255.062 134.167 255 133.91 255V258ZM132.654 257.231C132.555 257.037 132.5 256.818 132.5 256.59H135.5C135.5 256.333 135.438 256.086 135.326 255.867L132.654 257.231ZM132.5 256.59V259.51H135.5V256.59H132.5ZM132.5 263.404V269.245H135.5V263.404H132.5ZM132.5 273.139V278.98H135.5V273.139H132.5ZM132.5 282.874V288.715H135.5V282.874H132.5ZM132.5 292.609V298.45H135.5V292.609H132.5ZM132.5 302.344V308.186H135.5V302.344H132.5ZM132.5 312.08V315H135.5V312.08H132.5Z" fill="#CECCCC"/>
<path d="M135.32 104C135.32 103.172 134.649 102.5 133.82 102.5C132.992 102.5 132.32 103.172 132.32 104H135.32ZM132.759 141.061C133.345 141.646 134.295 141.646 134.881 141.061L144.427 131.515C145.012 130.929 145.012 129.979 144.427 129.393C143.841 128.808 142.891 128.808 142.305 129.393L133.82 137.879L125.335 129.393C124.749 128.808 123.799 128.808 123.213 129.393C122.628 129.979 122.628 130.929 123.213 131.515L132.759 141.061ZM132.32 104V140H135.32V104H132.32Z" fill="#12DC01"/>
<path d="M30 370.5C30.8284 370.5 31.5 369.828 31.5 369C31.5 368.172 30.8284 367.5 30 367.5V370.5ZM31.0607 524.061C31.6464 523.475 31.6464 522.525 31.0607 521.939L21.5147 512.393C20.9289 511.808 19.9792 511.808 19.3934 512.393C18.8076 512.979 18.8076 513.929 19.3934 514.515L27.8787 523L19.3934 531.485C18.8076 532.071 18.8076 533.021 19.3934 533.607C19.9792 534.192 20.9289 534.192 21.5147 533.607L31.0607 524.061ZM30 367.5H26V370.5H30V367.5ZM0.5 393V499H3.5V393H0.5ZM26 524.5H30V521.5H26V524.5ZM0.5 499C0.5 513.083 11.9167 524.5 26 524.5V521.5C13.5736 521.5 3.5 511.426 3.5 499H0.5ZM26 367.5C11.9167 367.5 0.5 378.917 0.5 393H3.5C3.5 380.574 13.5736 370.5 26 370.5V367.5Z" fill="#12DC01"/>
<path d="M30 370.5C30.8284 370.5 31.5 369.828 31.5 369C31.5 368.172 30.8284 367.5 30 367.5V370.5ZM194.061 653.061C194.646 652.475 194.646 651.525 194.061 650.939L184.515 641.393C183.929 640.808 182.979 640.808 182.393 641.393C181.808 641.979 181.808 642.929 182.393 643.515L190.879 652L182.393 660.485C181.808 661.071 181.808 662.021 182.393 662.607C182.979 663.192 183.929 663.192 184.515 662.607L194.061 653.061ZM30 367.5H26V370.5H30V367.5ZM0.5 393V628H3.5V393H0.5ZM26 653.5H193V650.5H26V653.5ZM0.5 628C0.5 642.083 11.9167 653.5 26 653.5V650.5C13.5736 650.5 3.5 640.426 3.5 628H0.5ZM26 367.5C11.9167 367.5 0.5 378.917 0.5 393H3.5C3.5 380.574 13.5736 370.5 26 370.5V367.5Z" fill="#12DC01"/>
<path d="M238 521.5C237.172 521.5 236.5 522.172 236.5 523C236.5 523.828 237.172 524.5 238 524.5V521.5ZM335.061 370.061C335.646 369.475 335.646 368.525 335.061 367.939L325.515 358.393C324.929 357.808 323.979 357.808 323.393 358.393C322.808 358.979 322.808 359.929 323.393 360.515L331.879 369L323.393 377.485C322.808 378.071 322.808 379.021 323.393 379.607C323.979 380.192 324.929 380.192 325.515 379.607L335.061 370.061ZM238 524.5H269V521.5H238V524.5ZM294.5 499V393H291.5V499H294.5ZM317 370.5H334V367.5H317V370.5ZM294.5 393C294.5 380.574 304.574 370.5 317 370.5V367.5C302.917 367.5 291.5 378.917 291.5 393H294.5ZM269 524.5C283.083 524.5 294.5 513.083 294.5 499H291.5C291.5 511.426 281.426 521.5 269 521.5V524.5Z" fill="#12DC01"/>
<path d="M334.881 147.061C335.466 146.475 335.466 145.525 334.881 144.939L325.335 135.393C324.749 134.808 323.799 134.808 323.213 135.393C322.628 135.979 322.628 136.929 323.213 137.515L331.699 146L323.213 154.485C322.628 155.071 322.628 156.021 323.213 156.607C323.799 157.192 324.749 157.192 325.335 156.607L334.881 147.061ZM238 524.5C239.133 524.5 240.247 524.411 241.334 524.241L240.869 521.277C239.935 521.424 238.977 521.5 238 521.5V524.5ZM245.643 523.089C247.75 522.279 249.696 521.145 251.418 519.749L249.529 517.418C248.047 518.619 246.376 519.593 244.567 520.288L245.643 523.089ZM254.569 516.598C255.965 514.876 257.099 512.93 257.909 510.823L255.108 509.747C254.413 511.556 253.439 513.227 252.238 514.709L254.569 516.598ZM259.061 506.514C259.231 505.427 259.32 504.313 259.32 503.18H256.32C256.32 504.157 256.244 505.115 256.097 506.049L259.061 506.514ZM259.32 503.18V500.151H256.32V503.18H259.32ZM259.32 496.112V490.055H256.32V496.112H259.32ZM259.32 486.016V479.958H256.32V486.016H259.32ZM259.32 475.92V469.862H256.32V475.92H259.32ZM259.32 465.823V459.766H256.32V465.823H259.32ZM259.32 455.727V449.669H256.32V455.727H259.32ZM259.32 445.631V439.573H256.32V445.631H259.32ZM259.32 435.534V429.476H256.32V435.534H259.32ZM259.32 425.438V419.38H256.32V425.438H259.32ZM259.32 415.342V409.284H256.32V415.342H259.32ZM259.32 405.245V399.187H256.32V405.245H259.32ZM259.32 395.149V389.091H256.32V395.149H259.32ZM259.32 385.052V378.995H256.32V385.052H259.32ZM259.32 374.956V368.898H256.32V374.956H259.32ZM259.32 364.86V358.802H256.32V364.86H259.32ZM259.32 354.763V348.706H256.32V354.763H259.32ZM259.32 344.667V338.609H256.32V344.667H259.32ZM259.32 334.571V328.513H256.32V334.571H259.32ZM259.32 324.474V318.417H256.32V324.474H259.32ZM259.32 314.378V308.32H256.32V314.378H259.32ZM259.32 304.282V298.224H256.32V304.282H259.32ZM259.32 294.185V288.127H256.32V294.185H259.32ZM259.32 284.089V278.031H256.32V284.089H259.32ZM259.32 273.993V267.935H256.32V273.993H259.32ZM259.32 263.896V257.838H256.32V263.896H259.32ZM259.32 253.8V247.742H256.32V253.8H259.32ZM259.32 243.703V237.646H256.32V243.703H259.32ZM259.32 233.607V227.549H256.32V233.607H259.32ZM259.32 223.511V217.453H256.32V223.511H259.32ZM259.32 213.414V207.356H256.32V213.414H259.32ZM259.32 203.318V197.26H256.32V203.318H259.32ZM259.32 193.222V187.164H256.32V193.222H259.32ZM259.32 183.125V177.067H256.32V183.125H259.32ZM259.32 173.029V170H256.32V173.029H259.32ZM259.32 170C259.32 169.104 259.372 168.22 259.474 167.352L256.494 167.003C256.379 167.986 256.32 168.987 256.32 170H259.32ZM260.159 163.889C260.644 162.169 261.327 160.532 262.184 159.005L259.568 157.537C258.597 159.268 257.821 161.125 257.272 163.076L260.159 163.889ZM264.149 156.071C265.245 154.682 266.502 153.425 267.891 152.329L266.032 149.974C264.459 151.216 263.036 152.639 261.794 154.212L264.149 156.071ZM270.825 150.364C272.352 149.507 273.989 148.824 275.709 148.339L274.896 145.452C272.945 146.001 271.088 146.777 269.357 147.748L270.825 150.364ZM279.172 147.654C280.04 147.552 280.923 147.5 281.82 147.5V144.5C280.807 144.5 279.806 144.559 278.823 144.674L279.172 147.654ZM281.82 147.5H284.94V144.5H281.82V147.5ZM289.1 147.5H295.34V144.5H289.1V147.5ZM299.5 147.5H305.74V144.5H299.5V147.5ZM309.9 147.5H316.14V144.5H309.9V147.5ZM320.3 147.5H326.54V144.5H320.3V147.5ZM330.7 147.5H333.82V144.5H330.7V147.5Z" fill="#CECCCC"/>
<path d="M436.32 92C436.32 92.8284 436.992 93.5 437.82 93.5C438.649 93.5 439.32 92.8284 439.32 92H436.32ZM438.881 52.9393C438.295 52.3536 437.345 52.3536 436.759 52.9393L427.214 62.4853C426.628 63.0711 426.628 64.0208 427.214 64.6066C427.799 65.1924 428.749 65.1924 429.335 64.6066L437.82 56.1213L446.305 64.6066C446.891 65.1924 447.841 65.1924 448.427 64.6066C449.013 64.0208 449.013 63.0711 448.427 62.4853L438.881 52.9393ZM439.32 92V54H436.32V92H439.32Z" fill="#12DC01"/>
<path d="M439.5 423C439.5 422.172 438.828 421.5 438 421.5C437.172 421.5 436.5 422.172 436.5 423H439.5ZM436.939 495.061C437.525 495.646 438.475 495.646 439.061 495.061L448.607 485.515C449.192 484.929 449.192 483.979 448.607 483.393C448.021 482.808 447.071 482.808 446.485 483.393L438 491.879L429.515 483.393C428.929 482.808 427.979 482.808 427.393 483.393C426.808 483.979 426.808 484.929 427.393 485.515L436.939 495.061ZM436.5 423V494H439.5V423H436.5Z" fill="#12DC01"/>
</svg>
