<svg width="404" height="353" viewBox="0 0 404 353" fill="none" xmlns="http://www.w3.org/2000/svg">
<path d="M145.946 69.533H144.338V25.4906C144.338 22.1431 143.679 18.8284 142.397 15.7358C141.116 12.6431 139.237 9.83305 136.87 7.46603C134.502 5.09901 131.691 3.22138 128.597 1.94036C125.504 0.659337 122.188 2.31482e-06 118.839 0H25.4989C18.7362 -1.40246e-05 12.2505 2.68558 7.46848 7.46597C2.68651 12.2464 1.5588e-05 18.73 0 25.4905V267.111C-3.11761e-06 273.871 2.68647 280.355 7.46843 285.135C12.2504 289.916 18.7361 292.601 25.4988 292.601H118.839C122.188 292.601 125.503 291.942 128.597 290.661C131.691 289.38 134.502 287.502 136.87 285.135C139.237 282.768 141.116 279.958 142.397 276.866C143.679 273.773 144.338 270.458 144.338 267.111V100.883H145.946V69.533Z" fill="#3F3D56"/>
<path d="M119.868 6.63177H107.684C108.244 8.00502 108.458 9.49494 108.307 10.9703C108.155 12.4456 107.643 13.8611 106.816 15.0921C105.988 16.323 104.871 17.3316 103.561 18.029C102.252 18.7265 100.791 19.0913 99.3078 19.0914H45.8344C44.3508 19.0913 42.89 18.7265 41.5807 18.0291C40.2714 17.3316 39.1537 16.323 38.3262 15.0921C37.4987 13.8611 36.9867 12.4456 36.8353 10.9703C36.6839 9.49492 36.8978 8.00499 37.4581 6.63174H26.0782C21.0279 6.63173 16.1844 8.6373 12.6133 12.2073C9.04219 15.7772 7.03595 20.6191 7.03594 25.6678V266.934C7.03594 269.433 7.52848 271.909 8.48544 274.218C9.44241 276.528 10.845 278.626 12.6133 280.394C14.3815 282.162 16.4807 283.564 18.791 284.521C21.1014 285.477 23.5775 285.97 26.0782 285.97H119.868C122.369 285.97 124.845 285.477 127.155 284.521C129.466 283.564 131.565 282.162 133.333 280.394C135.101 278.626 136.504 276.528 137.461 274.218C138.418 271.909 138.91 269.433 138.91 266.934V25.6678C138.91 23.168 138.418 20.6926 137.461 18.383C136.504 16.0735 135.101 13.9749 133.333 12.2073C131.565 10.4396 129.466 9.03744 127.155 8.08079C124.845 7.12414 122.369 6.63177 119.868 6.63177Z" fill="white"/>
<path d="M118.966 96.9948C118.973 102.475 117.995 107.913 116.08 113.048C115.21 115.4 114.143 117.674 112.89 119.847C108.862 126.873 103.049 132.712 96.0404 136.772C89.0312 140.832 81.0739 142.971 72.973 142.971C64.8721 142.971 56.9147 140.832 49.9056 136.772C42.8965 132.712 37.0841 126.873 33.0562 119.847C32.6484 119.14 32.2617 118.423 31.8962 117.695C28.7697 111.495 27.0883 104.668 26.9781 97.7263C26.8679 90.7841 28.3316 83.9072 31.2596 77.6113C34.1876 71.3154 38.5038 65.7642 43.8844 61.374C49.2649 56.9837 55.5701 53.8686 62.3269 52.2622C69.0838 50.6558 76.1168 50.5999 82.8983 52.0986C89.6798 53.5973 96.0338 56.6118 101.484 60.9159C106.933 65.22 111.337 70.702 114.365 76.9505C117.393 83.199 118.966 90.0518 118.966 96.9948Z" fill="#F1F1F1"/>
<path d="M75.3642 104.757C80.2204 104.757 84.1571 100.821 84.1571 95.9667C84.1571 91.1121 80.2204 87.1767 75.3642 87.1767C70.508 87.1767 66.5712 91.1121 66.5712 95.9667C66.5712 100.821 70.508 104.757 75.3642 104.757Z" fill="#FF6582"/>
<path d="M31.8962 117.695C35.7703 113.51 40.9494 106.865 45.8068 111.666C48.2445 113.931 52.0597 119.543 55.7118 115.874L84.2306 87.3648C84.7675 86.8349 85.4049 86.4177 86.1054 86.1375C86.8059 85.8574 87.5554 85.72 88.3097 85.7335C89.064 85.747 89.8081 85.9111 90.4981 86.2161C91.1881 86.5212 91.8101 86.961 92.3277 87.5097L116.08 113.048C115.21 115.4 114.143 117.674 112.89 119.847H33.0562L31.8962 117.695Z" fill="#12DC01"/>
<path d="M94.5534 190.362C94.2387 190.363 93.9372 190.488 93.7149 190.711C93.4926 190.933 93.3678 191.235 93.3678 191.55C93.3678 191.864 93.4926 192.166 93.7149 192.389C93.9372 192.611 94.2387 192.737 94.5534 192.738H107.022C107.337 192.738 107.639 192.612 107.862 192.39C108.085 192.167 108.21 191.865 108.21 191.55C108.21 191.235 108.085 190.933 107.862 190.71C107.639 190.487 107.337 190.362 107.022 190.362H94.5534Z" fill="#12DC01"/>
<path d="M38.379 172.915C38.0638 172.915 37.7616 173.041 37.5388 173.263C37.3159 173.486 37.1908 173.788 37.1908 174.103C37.1908 174.418 37.3159 174.72 37.5388 174.943C37.7616 175.166 38.0638 175.291 38.379 175.291H107.567C107.882 175.291 108.185 175.166 108.408 174.943C108.63 174.72 108.756 174.418 108.756 174.103C108.756 173.788 108.63 173.486 108.408 173.263C108.185 173.041 107.882 172.915 107.567 172.915H38.379Z" fill="#E5E5E5"/>
<path d="M38.379 181.639C38.0643 181.639 37.7627 181.765 37.5405 181.988C37.3182 182.21 37.1934 182.512 37.1934 182.826C37.1934 183.141 37.3182 183.443 37.5405 183.665C37.7627 183.888 38.0643 184.014 38.379 184.014H107.567C107.724 184.015 107.878 183.984 108.023 183.925C108.167 183.865 108.299 183.778 108.409 183.667C108.52 183.557 108.608 183.426 108.667 183.282C108.727 183.137 108.758 182.983 108.758 182.826C108.758 182.67 108.727 182.516 108.667 182.371C108.608 182.227 108.52 182.096 108.409 181.986C108.299 181.875 108.167 181.788 108.023 181.728C107.878 181.669 107.724 181.638 107.567 181.639H38.379Z" fill="#E5E5E5"/>
<path d="M94.5534 246.336C94.2383 246.336 93.936 246.461 93.7132 246.684C93.4904 246.907 93.3652 247.209 93.3652 247.524C93.3652 247.839 93.4904 248.141 93.7132 248.364C93.936 248.587 94.2383 248.712 94.5534 248.712H107.022C107.337 248.712 107.639 248.587 107.862 248.364C108.085 248.141 108.21 247.839 108.21 247.524C108.21 247.209 108.085 246.907 107.862 246.684C107.639 246.461 107.337 246.336 107.022 246.336H94.5534Z" fill="#12DC01"/>
<path d="M38.379 228.89C38.0638 228.89 37.7616 229.015 37.5388 229.238C37.3159 229.46 37.1908 229.763 37.1908 230.078C37.1908 230.393 37.3159 230.695 37.5388 230.917C37.7616 231.14 38.0638 231.265 38.379 231.265H107.567C107.724 231.266 107.878 231.235 108.023 231.176C108.167 231.116 108.299 231.029 108.409 230.918C108.52 230.808 108.608 230.677 108.667 230.533C108.727 230.388 108.758 230.234 108.758 230.078C108.758 229.921 108.727 229.767 108.667 229.622C108.608 229.478 108.52 229.347 108.409 229.237C108.299 229.126 108.167 229.039 108.023 228.979C107.878 228.92 107.724 228.889 107.567 228.89H38.379Z" fill="#E5E5E5"/>
<path d="M38.379 237.613C38.0638 237.613 37.7616 237.738 37.5388 237.961C37.3159 238.184 37.1908 238.486 37.1908 238.801C37.1908 239.116 37.3159 239.418 37.5388 239.641C37.7616 239.864 38.0638 239.989 38.379 239.989H107.567C107.882 239.989 108.185 239.864 108.408 239.641C108.63 239.418 108.756 239.116 108.756 238.801C108.756 238.486 108.63 238.184 108.408 237.961C108.185 237.738 107.882 237.613 107.567 237.613H38.379Z" fill="#E5E5E5"/>
<path d="M394.425 133.896L384.931 129.605C384.884 130.872 384.526 132.108 383.888 133.205C383.25 134.301 382.352 135.224 381.273 135.891C380.195 136.559 378.968 136.951 377.702 137.033C376.436 137.116 375.169 136.886 374.013 136.363L332.347 117.529C331.191 117.006 330.182 116.208 329.407 115.203C328.633 114.198 328.118 113.019 327.907 111.768C327.696 110.518 327.796 109.234 328.198 108.031C328.6 106.829 329.291 105.743 330.212 104.87L321.345 100.862C317.41 99.0834 312.929 98.9402 308.888 100.464C304.847 101.988 301.577 105.054 299.798 108.988L214.766 296.98C213.885 298.928 213.396 301.031 213.328 303.167C213.259 305.304 213.613 307.433 214.367 309.433C215.122 311.433 216.264 313.265 217.727 314.824C219.19 316.384 220.946 317.639 222.894 318.52L295.975 351.554C299.91 353.333 304.391 353.476 308.431 351.952C312.472 350.428 315.742 347.362 317.521 343.428L402.554 155.436C403.435 153.488 403.923 151.386 403.992 149.249C404.06 147.112 403.707 144.983 402.952 142.983C402.197 140.983 401.056 139.151 399.593 137.592C398.13 136.033 396.374 134.777 394.425 133.896Z" fill="#E4E4E4"/>
<path d="M309.847 223.408C303.448 220.503 297.926 215.965 293.837 210.25C289.748 204.536 287.236 197.846 286.552 190.853C286.484 190.16 286.434 189.447 286.405 188.736C286.126 182.5 287.332 176.288 289.922 170.608C292.33 165.29 295.877 160.564 300.312 156.765C304.746 152.966 309.961 150.186 315.587 148.621C321.214 147.056 327.116 146.744 332.876 147.708C338.636 148.672 344.114 150.887 348.925 154.198C353.735 157.509 357.76 161.835 360.716 166.87C363.672 171.906 365.486 177.528 366.031 183.341C366.576 189.154 365.839 195.016 363.871 200.513C361.903 206.01 358.753 211.008 354.642 215.155C353.112 216.704 351.454 218.121 349.686 219.392C343.982 223.498 337.298 226.03 330.305 226.735C323.311 227.44 316.256 226.293 309.847 223.408ZM342.256 151.757C332.892 147.537 322.235 147.203 312.625 150.828C303.014 154.453 295.235 161.741 290.993 171.092C288.479 176.605 287.309 182.634 287.579 188.686C287.608 189.376 287.656 190.066 287.722 190.739C288.374 197.53 290.809 204.028 294.779 209.576C298.749 215.125 304.114 219.527 310.332 222.338C316.55 225.149 323.4 226.268 330.19 225.584C336.98 224.899 343.468 222.434 348.999 218.439C350.714 217.206 352.322 215.831 353.807 214.328C358.208 209.888 361.469 204.449 363.311 198.476C365.154 192.502 365.524 186.172 364.389 180.025C363.255 173.878 360.649 168.096 356.795 163.174C352.941 158.252 347.953 154.334 342.256 151.757Z" fill="white"/>
<path d="M313.782 149.752L312.685 150.172L340.615 223.062L341.713 222.642L313.782 149.752Z" fill="white"/>
<path d="M361.891 172.487L288.975 200.403L289.395 201.5L362.312 173.584L361.891 172.487Z" fill="white"/>
<path d="M325.73 280.359L256.754 249.18C256.243 248.948 255.845 248.523 255.647 247.998C255.449 247.473 255.467 246.891 255.698 246.379L262.186 232.034C262.418 231.523 262.843 231.125 263.368 230.927C263.894 230.729 264.476 230.747 264.988 230.978L333.963 262.156C334.474 262.388 334.873 262.813 335.071 263.338C335.269 263.863 335.251 264.445 335.02 264.957L328.531 279.302C328.3 279.813 327.874 280.211 327.349 280.409C326.824 280.607 326.242 280.589 325.73 280.359ZM264.503 232.048C264.276 231.946 264.017 231.938 263.783 232.026C263.549 232.114 263.36 232.291 263.257 232.518L256.769 246.863C256.666 247.091 256.658 247.35 256.746 247.584C256.834 247.817 257.011 248.006 257.239 248.109L326.214 279.288C326.442 279.39 326.701 279.399 326.934 279.31C327.168 279.222 327.357 279.045 327.46 278.818L333.949 264.473C334.052 264.245 334.06 263.986 333.972 263.753C333.883 263.519 333.706 263.33 333.479 263.227L264.503 232.048Z" fill="white"/>
<path d="M309.021 317.299L240.046 286.12C239.534 285.889 239.136 285.464 238.938 284.939C238.74 284.414 238.758 283.831 238.989 283.32L245.477 268.975C245.709 268.464 246.134 268.065 246.66 267.867C247.185 267.669 247.767 267.687 248.279 267.918L317.254 299.096C317.766 299.328 318.164 299.753 318.362 300.278C318.56 300.803 318.542 301.386 318.311 301.897L311.823 316.242C311.591 316.753 311.166 317.152 310.64 317.35C310.115 317.548 309.533 317.53 309.021 317.299ZM247.795 268.989C247.567 268.886 247.308 268.878 247.074 268.966C246.841 269.054 246.651 269.231 246.548 269.459L240.06 283.804C239.957 284.031 239.949 284.29 240.037 284.524C240.125 284.758 240.302 284.947 240.53 285.05L309.505 316.228C309.733 316.331 309.992 316.339 310.226 316.251C310.459 316.163 310.648 315.986 310.751 315.758L317.24 301.413C317.343 301.185 317.351 300.927 317.263 300.693C317.175 300.459 316.997 300.27 316.77 300.167L247.795 268.989Z" fill="white"/>
<path d="M282.362 223.829C280.944 216.766 277.88 210.136 273.419 204.479C268.884 198.733 263.346 193.857 257.072 190.085C250.588 186.149 243.526 183.255 236.144 181.508C226.97 179.304 217.495 178.586 208.078 178.677C198.594 178.768 189.14 179.656 179.715 180.646C178.517 180.772 177.319 180.899 176.121 181.027C175.004 181.146 174.992 182.91 176.121 182.79C185.408 181.799 194.708 180.824 204.048 180.525C213.311 180.227 222.644 180.592 231.76 182.359C239.353 183.767 246.678 186.356 253.469 190.031C259.795 193.457 265.469 197.968 270.232 203.359C274.897 208.627 278.271 214.91 280.086 221.708C280.306 222.565 280.496 223.429 280.662 224.298C280.875 225.411 282.575 224.939 282.362 223.829Z" fill="#2F2E41"/>
<path d="M182.419 168.413L168.335 183.389C168.241 183.485 168.17 183.601 168.128 183.728C168.085 183.855 168.072 183.991 168.089 184.124C168.106 184.257 168.153 184.385 168.227 184.497C168.3 184.609 168.398 184.704 168.513 184.773L181.219 190.844C182.238 191.331 183.134 189.812 182.109 189.322L169.403 183.251L169.582 184.635L183.665 169.66C184.442 168.834 183.198 167.585 182.419 168.413Z" fill="#2F2E41"/>
</svg>
