<svg width="771" height="640" viewBox="0 0 771 640" fill="none" xmlns="http://www.w3.org/2000/svg">
<path d="M766.869 24.0714C763.726 24.0714 753.477 33.7846 705.104 82.2136C658.37 129.138 646.481 140.356 644.158 139.809C637.599 138.167 632.68 147.059 637.599 151.847C642.245 156.499 649.761 152.121 648.804 145.281C648.394 142.271 656.32 133.789 705.787 84.2657C753.614 36.3839 763.726 26.8075 766.869 26.8075C769.055 26.8075 770.695 26.2603 770.695 25.4395C770.695 24.7554 769.055 24.0714 766.869 24.0714Z" fill="#12DC01"/>
<path d="M767.279 110.396C763.999 107.933 761.539 107.66 734.346 107.523L704.967 107.386L639.239 173.189C588.816 223.534 572.691 238.856 570.231 238.856C564.765 238.856 561.623 241.318 561.623 245.422C561.623 250.211 563.809 252.536 568.455 252.536C573.101 252.536 575.287 250.211 575.287 245.149C575.287 241.455 583.076 233.247 640.469 175.652L705.787 110.259H734.346H763.042L766.869 113.953C769.738 116.689 770.695 117.099 770.695 115.457C770.695 114.226 769.192 111.901 767.279 110.396Z" fill="#12DC01"/>
<path d="M749.651 163.613H728.744L705.65 186.87L682.557 209.99L662.059 210.127L641.562 210.4L620.928 230.921C603.984 247.748 599.611 251.305 597.424 250.621C594.282 249.526 588.952 253.767 588.952 257.324C588.952 259.924 593.872 264.849 596.468 264.849C600.021 264.849 604.257 259.376 603.437 256.23C602.754 253.767 606.307 249.526 622.841 233.11L642.928 212.863H662.742H682.557L705.787 189.606L729.017 166.349H749.788C762.769 166.349 770.695 165.802 770.695 164.981C770.695 164.16 762.769 163.613 749.651 163.613Z" fill="#12DC01"/>
<path d="M762.086 189.606H753.614L735.849 207.39L718.085 225.175H691.848H665.475L630.63 259.924C601.387 288.926 595.238 294.535 592.642 293.988C588.679 293.167 584.853 296.724 584.853 300.965C584.853 304.932 587.312 307.258 591.685 307.258C596.331 307.258 598.518 304.932 598.518 299.871C598.518 296.177 603.027 291.115 632.953 261.155L667.525 226.543H694.171H720.818L737.899 209.443L754.98 192.342H762.769C767.142 192.342 770.695 191.795 770.695 190.974C770.695 190.153 766.868 189.606 762.086 189.606Z" fill="#12DC01"/>
<path d="M715.625 361.98H660.693L647.711 374.977L634.73 387.973H600.567H566.269L558.89 380.449C552.877 374.429 551.511 372.104 551.784 369.094C552.331 363.622 547.821 359.654 542.765 361.433C537.572 363.211 536.753 370.462 541.535 373.609C543.312 374.703 545.908 375.387 547.138 374.84C548.914 374.156 551.921 376.208 558.07 382.364L566.542 390.709L600.841 390.572L635.003 390.436L647.848 377.576L660.693 364.716H715.625C751.427 364.716 770.695 364.306 770.695 363.348C770.695 362.39 751.427 361.98 715.625 361.98Z" fill="#12DC01"/>
<path d="M769.875 400.012C769.328 399.328 749.788 398.918 726.557 398.918H684.333L677.774 403.706L671.215 408.494H624.344C578.84 408.494 577.2 408.357 575.561 405.758C573.648 402.748 567.225 402.064 564.629 404.663C563.672 405.621 562.989 407.947 562.989 409.862C562.989 416.702 570.095 419.165 575.287 413.966C577.884 411.367 579.797 411.23 625.301 411.23H672.581L678.32 406.442L684.196 401.654L727.514 401.38C751.427 401.106 770.421 400.559 769.875 400.012Z" fill="#12DC01"/>
<path d="M759.49 636.959H748.148L732.433 621.226L716.719 605.63L708.52 605.357C704.01 605.22 699.228 604.673 697.998 604.262C696.631 603.715 682.693 590.582 666.978 574.986L638.282 546.667H616.828H595.238L566.132 517.665L537.026 488.662V444.748V400.97L525.411 389.341C515.845 379.765 514.069 377.303 514.615 374.703C516.529 367.316 506.28 363.075 502.044 369.505C499.994 372.651 499.994 373.198 502.044 376.345C504.367 379.765 505.323 380.176 510.379 379.902C512.292 379.765 516.938 383.596 524.454 391.12L535.659 402.612L535.523 446.526V490.44L564.219 519.306L593.052 548.035H614.642H636.096L665.475 577.449L694.855 606.862H705.103H715.352L731.75 623.278L748.148 639.695H758.67C764.409 639.695 769.602 639.148 770.011 638.327C770.558 637.506 766.732 636.959 759.49 636.959Z" fill="#12DC01"/>
<path d="M760.309 136.525C757.576 132.558 750.881 132.421 748.831 136.252C747.464 138.851 745.961 138.988 726.557 138.988H705.787L682.556 162.245C662.606 182.218 658.916 185.365 654.817 185.775C649.214 186.322 646.891 189.195 648.258 194.12C650.171 201.781 661.376 200.003 661.376 191.931C661.376 188.101 664.109 184.818 684.333 164.57L707.153 141.724H727.104C745.278 141.724 747.191 141.998 749.514 144.46C752.794 148.017 757.713 147.88 760.309 144.186C761.539 142.545 762.496 140.766 762.496 140.356C762.496 139.946 761.539 138.167 760.309 136.525Z" fill="#12DC01"/>
<path d="M703.054 251.715C699.911 249.663 699.364 249.663 696.221 251.715C694.308 252.947 692.805 254.588 692.805 255.272C692.805 256.093 688.296 256.64 682.42 256.64C672.991 256.64 671.625 256.23 668.755 253.22C666.979 251.305 664.656 249.8 663.426 249.8C660.829 249.8 655.91 254.588 655.91 257.324C655.91 259.924 660.829 264.849 663.289 264.849C664.382 264.849 666.979 263.344 669.028 261.429C672.445 258.145 673.674 258.008 682.147 258.419C689.389 258.829 692.259 259.65 694.582 261.839C698.408 265.396 701.414 265.67 704.284 262.66C707.563 259.376 707.017 254.315 703.054 251.715Z" fill="#12DC01"/>
<path d="M673.674 0.814758C672.854 0.814758 672.308 16.2737 672.308 44.3188V87.686L639.239 120.793C611.772 148.291 605.487 153.9 603.027 153.216C598.928 152.121 594.008 157.183 595.238 161.287C596.331 164.981 597.151 165.802 600.841 166.896C604.94 168.127 609.996 163.202 608.903 158.961C608.356 156.499 613.686 150.343 641.562 122.571L675.041 89.054V45.0028C675.041 16.4105 674.494 0.814758 673.674 0.814758Z" fill="#12DC01"/>
<path d="M642.928 3.55078C641.015 1.77232 639.239 0.677876 638.829 1.08829C638.419 1.3619 639.375 2.86676 640.879 4.23481C643.475 6.5605 643.612 8.47577 643.612 43.7715V80.8457L603.3 121.203L562.989 161.561V180.303C562.989 197.677 562.852 199.182 560.256 200.55C556.157 202.739 556.567 209.442 560.939 212.315C564.082 214.367 564.629 214.367 567.772 212.315C572.008 209.579 572.281 204.244 568.455 200.961C565.995 198.772 565.722 196.856 565.722 180.029V161.561L606.033 121.203L646.345 80.9825V43.9083V6.6973L642.928 3.55078Z" fill="#12DC01"/>
<path d="M635.413 12.1695C634.046 8.61259 627.624 7.79176 624.754 10.6647C622.294 13.1272 622.841 18.3258 625.847 20.925C627.624 22.4299 628.58 25.0292 628.58 28.1757C628.58 32.8271 625.437 36.2472 573.921 87.6859L519.261 142.408V172.505V202.739L526.777 210.127C532.79 216.009 534.02 218.061 533.473 220.661C532.38 224.628 536.206 229.279 540.442 229.279C542.082 229.279 544.541 228.048 546.045 226.406C548.368 223.807 548.368 223.26 546.455 219.976C544.951 217.24 543.175 216.146 539.759 215.872C536.206 215.599 533.2 213.683 528.554 209.032L521.994 202.739V173.052V143.366L575.971 89.1908C618.468 46.3708 629.947 34.0583 630.083 31.1854C630.22 29.1334 630.357 26.5341 630.493 25.4396C630.63 24.3452 631.996 22.0195 633.773 20.3778C637.052 16.9577 637.189 16.5473 635.413 12.1695Z" fill="#12DC01"/>
<path d="M627.351 60.4618C622.704 56.2209 615.052 61.5563 616.692 67.8493C617.102 69.6278 606.307 81.2562 577.201 110.396L537.026 150.616V163.202C537.026 174.284 536.753 176.062 534.43 177.293C528.144 180.577 530.74 190.974 537.709 190.974C544.678 190.974 547.275 180.577 540.989 177.293C538.802 176.062 538.392 174.284 538.392 164.023V152.121L578.43 112.037C608.22 82.0771 619.015 71.9535 620.928 72.5007C622.295 72.9111 624.891 72.5007 626.667 71.6799C630.767 69.7646 631.04 63.882 627.351 60.4618Z" fill="#12DC01"/>
<path d="M606.99 5.87646C601.934 1.36189 595.648 4.3716 595.511 11.4855C595.375 15.1792 591.002 20.241 559.3 51.7062C527.87 83.1713 522.678 87.8227 518.305 88.3699C512.566 89.1908 510.243 92.0637 511.609 96.9887C512.156 99.4511 513.659 100.956 516.119 101.503C521.038 102.871 523.908 100.546 524.727 94.7998C525.274 90.422 529.92 85.2234 561.623 53.4846C592.095 22.8403 598.381 17.2313 600.841 17.9153C602.89 18.3257 604.94 17.6417 606.717 15.8632C610.133 12.4431 610.269 8.74936 606.99 5.87646Z" fill="#12DC01"/>
<path d="M595.785 43.2244C589.772 40.0778 583.623 45.0028 585.126 51.8431C585.399 53.2111 574.058 65.5236 556.157 83.4451C531.013 108.754 526.231 112.995 522.678 112.995C517.622 112.995 515.845 114.226 514.615 118.057C513.522 121.614 517.758 126.675 521.721 126.675C525.547 126.675 529.237 121.887 528.417 118.057C527.597 115.321 531.697 110.806 557.25 85.3603C581.71 61.009 587.586 55.8104 590.592 55.8104C592.778 55.8104 595.375 55.1264 596.468 54.1688C599.474 51.7063 599.064 45.0028 595.785 43.2244Z" fill="#12DC01"/>
<path d="M583.76 0.814758C582.803 0.814758 570.641 12.1696 556.567 26.1237C535.796 46.7813 530.467 51.4326 527.324 51.4326C523.224 51.4326 519.261 54.5792 519.261 57.7257C519.261 61.9666 522.131 65.1132 525.821 65.1132C530.74 65.1132 532.926 62.7875 532.926 57.7257C532.926 54.0319 536.616 49.791 559.163 27.2181C573.648 12.7168 584.716 0.814758 583.76 0.814758Z" fill="#12DC01"/>
<path d="M574.058 276.614C572.281 274.972 570.368 274.562 568.455 275.109C566.132 275.93 560.666 271.142 534.976 245.422L504.23 214.915V155.678V96.3047L491.249 83.445L478.267 70.4486V35.7001C478.267 13.4008 477.72 0.814758 476.9 0.814758C476.081 0.814758 475.534 13.5376 475.534 36.1105V71.2694L489.199 84.9499L502.864 98.6304V157.457V216.283L533.2 246.654C559.983 273.467 563.536 277.571 563.536 281.539C563.672 284.822 564.629 286.464 567.362 287.969C570.641 289.884 571.188 289.884 573.784 287.558C577.337 284.275 577.474 279.624 574.058 276.614Z" fill="#12DC01"/>
<path d="M555.337 8.47584C552.33 5.46613 547.001 5.73974 544.951 9.02306C543.448 11.4856 541.808 11.7592 530.193 11.7592L517.212 11.6224L511.746 6.28696C508.739 3.27725 505.733 0.814758 505.05 0.814758C504.23 0.814758 506.69 3.82447 510.379 7.65501L517.075 14.4953L530.193 14.4953C541.672 14.4953 543.448 14.7689 544.951 17.2314C548.094 22.43 557.523 19.4203 557.523 13.1272C557.523 11.7592 556.566 9.57028 555.337 8.47584Z" fill="#12DC01"/>
<path d="M545.498 284.959C544.132 283.591 541.672 282.633 540.032 282.633C536.479 282.633 532.516 288.242 533.746 291.389C534.429 293.167 531.833 296.724 523.908 304.659L513.112 315.467H472.801H432.49L410.079 293.031L387.806 270.731L315.792 270.458L243.915 270.184L235.853 278.392C229.703 284.685 226.97 286.464 223.964 286.464C218.498 286.327 215.629 289.063 216.175 294.125C216.448 297.272 217.542 298.64 220.275 299.597C225.331 301.376 229.84 297.408 229.293 291.936C229.02 288.926 230.387 286.601 236.399 280.581L243.778 273.057H314.972H386.029L408.85 295.63L431.533 318.203H472.391H513.112L524.044 307.258C533.063 298.092 535.659 296.314 539.349 296.314C547.001 296.314 550.554 289.61 545.498 284.959Z" fill="#12DC01"/>
<path d="M526.64 340.228C523.907 336.398 517.212 336.398 515.162 340.091C513.795 342.691 512.292 342.828 475.124 342.828H436.589L414.042 320.255L391.495 297.682H325.904H260.449L251.43 306.574L242.412 315.466H200.87H159.193L137.329 337.355L115.465 359.244H104.533C95.2411 359.244 93.1914 358.834 91.1417 356.508C86.6323 351.173 76.7936 354.73 78.7067 361.159C79.6632 364.443 82.9428 367.452 85.6757 367.452C86.6323 367.452 88.8187 366.084 90.4584 364.443C92.9181 361.98 94.9678 361.57 105.353 361.433L117.515 361.296L139.105 339.681L160.559 318.203H201.417H242.275L252.114 308.626L261.952 299.05H325.357H388.762L412.266 322.307L435.769 345.564H474.577C511.609 345.564 513.522 345.7 515.845 348.3C521.858 354.866 531.696 347.479 526.64 340.228Z" fill="#12DC01"/>
<path d="M524.864 26.8078C523.361 26.1238 521.311 25.4398 520.218 25.4398C517.075 25.4398 513.522 30.3647 514.069 34.1953C514.752 39.2571 505.187 48.6966 499.447 48.6966C494.938 48.6966 490.565 52.1168 490.565 55.8105C490.565 58.6834 494.938 62.3771 498.491 62.3771C502.044 62.3771 505.733 57.3153 504.777 53.6216C503.82 49.7911 515.162 38.2994 518.715 39.6675C519.945 40.0779 522.404 39.5307 524.181 38.4362C528.28 35.7001 528.69 28.8599 524.864 26.8078Z" fill="#12DC01"/>
<path d="M518.168 257.598C514.615 254.315 511.746 254.725 508.603 258.693L505.87 262.113H476.627H447.248L357.06 171.821L266.872 81.5299H251.977C238.585 81.5299 236.946 81.2563 235.306 78.7938C233.119 75.1 227.517 75.2368 224.921 79.0674C222.188 82.8979 222.188 84.95 224.921 87.5493C227.927 90.559 233.256 90.2854 235.306 87.0021C236.946 84.5396 238.585 84.266 251.43 84.266H265.915L355.42 173.873L444.788 263.481H475.397H505.87L508.603 266.901C511.746 271.005 515.299 271.279 518.305 267.858C521.311 264.575 521.175 260.334 518.168 257.598Z" fill="#12DC01"/>
<path d="M515.709 400.559C513.112 396.728 507.51 396.592 505.323 400.285C503.82 402.748 502.044 403.021 490.292 403.021H477.174L455.037 424.91L432.9 446.799H389.992C348.587 446.799 347.084 446.662 345.718 444.063C344.078 440.916 337.656 440.369 335.059 442.969C334.103 443.926 333.419 446.252 333.419 448.167C333.419 455.007 340.798 457.607 345.308 452.271C347.631 449.672 349.407 449.535 390.812 449.535H433.856L455.72 427.646L477.584 405.758H490.019C501.224 405.758 502.727 406.031 504.503 408.63C506.826 412.324 513.522 412.598 516.118 409.041C518.442 405.894 518.305 404.253 515.709 400.559Z" fill="#12DC01"/>
<path d="M490.702 190.7C487.969 189.059 487.832 187.691 487.832 162.929V136.936L446.155 95.2103L404.477 53.4847V27.2181C404.477 10.5279 403.93 0.814758 403.11 0.814758C402.29 0.814758 401.744 10.8015 401.744 27.9022V54.8528L443.422 96.5783L485.099 138.304V163.202C485.099 186.459 484.963 188.375 482.366 190.974C478.814 194.531 478.95 198.088 482.366 201.234C484.553 203.286 485.919 203.56 488.926 202.466C493.845 200.824 494.938 193.436 490.702 190.7Z" fill="#12DC01"/>
<path d="M485.509 102.735C484.143 101.366 481.956 100.682 479.77 101.093C476.9 101.64 473.894 99.3144 458.863 84.129L441.372 66.4811V33.2375C441.372 11.3487 440.825 0.814686 440.005 2.18274C439.185 3.41398 438.639 17.7785 438.639 35.7V67.1652L456.403 84.9498C471.844 100.409 474.167 103.282 474.167 107.112C474.167 110.396 475.124 112.174 477.584 113.816C480.727 115.868 481.273 115.868 484.416 113.816C488.379 111.216 488.925 106.018 485.509 102.735Z" fill="#12DC01"/>
<path d="M485.646 275.246C482.64 272.099 479.223 272.51 475.534 276.477C472.391 279.897 471.981 279.897 451.757 279.897H431.123L384.389 233.383C344.078 193.436 337.519 186.322 337.519 182.902C337.519 178.525 334.513 174.557 331.233 174.557C326.997 174.557 323.854 177.43 323.854 181.124C323.854 186.049 326.177 188.238 331.37 188.238C334.923 188.238 341.208 193.984 381.93 234.751L428.39 281.265H451.211C465.285 281.265 474.167 281.812 474.167 282.633C474.167 283.317 475.671 284.959 477.584 286.19C480.727 288.242 481.273 288.242 484.416 286.19C488.379 283.591 488.926 278.529 485.646 275.246Z" fill="#12DC01"/>
<path d="M482.366 228.595C480.727 227.09 478.677 226.543 476.627 227.09C473.894 227.774 469.111 223.534 443.831 198.088L414.042 168.401V149.932V131.464L380.563 97.9464L347.084 64.4292V48.0126V31.5959L331.37 15.8634C322.761 7.24464 315.382 0.541186 315.109 0.951601C314.699 1.36202 321.121 8.33908 329.32 16.5474L344.351 31.5959V48.6966V65.7972L377.83 99.3145L411.309 132.832V150.616V168.401L441.372 198.498C466.652 223.807 471.434 229.143 471.161 232.152C470.751 237.077 473.621 240.224 478.403 240.224C484.826 240.224 487.286 232.973 482.366 228.595Z" fill="#12DC01"/>
<path d="M479.497 365.811C477.584 362.391 470.615 362.664 468.428 366.084C466.788 368.684 465.149 368.82 435.906 368.82H405.16L379.88 343.511L354.6 318.202H329.32C305.543 318.202 303.903 318.066 302.264 315.466C299.257 310.541 289.692 313.277 289.692 319.023C289.692 326.137 298.711 329.421 302.264 323.675C303.903 321.075 305.543 320.939 329.32 320.939H354.6L379.88 346.248L405.16 371.556H435.906C465.149 371.556 466.788 371.693 468.428 374.293C470.478 377.713 475.807 377.85 478.677 374.566C481.273 371.693 481.546 369.231 479.497 365.811Z" fill="#12DC01"/>
<path d="M467.198 132.011C465.285 130.096 463.372 129.412 461.459 129.959C459 130.643 450.937 123.119 413.086 85.2235L367.582 39.8042V20.3779C367.582 9.15987 367.035 0.814758 366.352 0.814758C365.532 0.814758 364.985 9.43348 364.985 20.9251V41.1723L410.489 86.5916C450.801 126.812 455.993 132.421 455.993 136.252C455.993 140.903 456.95 142.408 461.459 143.639C463.509 144.323 465.285 143.776 467.198 141.861C470.888 138.167 470.751 135.568 467.198 132.011Z" fill="#12DC01"/>
<path d="M463.782 9.84391C462.689 8.61267 460.503 7.65503 459.136 7.65503C452.85 7.65503 449.844 17.0946 455.037 20.2411C457.496 21.8828 457.77 23.5244 457.77 38.0258C457.77 52.6639 457.496 54.1688 455.037 55.5368C451.894 57.1785 451.347 63.6083 453.944 66.2076C455.993 68.2597 462.279 68.2597 464.329 66.2076C466.925 63.6083 466.379 57.1785 463.236 55.5368C460.776 54.1688 460.503 52.6639 460.503 38.0258C460.503 23.5244 460.776 21.8828 463.236 20.2411C466.515 18.189 466.788 12.8536 463.782 9.84391Z" fill="#12DC01"/>
<path d="M461.732 183.997C459.819 182.082 457.906 181.397 455.993 181.945C453.67 182.492 451.484 181.124 446.564 176.336L440.005 169.906V154.173V138.577L398.327 96.8519L356.65 55.1264V38.573V21.8827L347.767 13.1272C342.848 8.33904 338.885 3.55086 338.885 2.59322C338.885 1.63559 338.339 0.814758 337.519 0.814758C334.239 0.814758 336.699 4.91891 345.034 13.1272L353.917 21.8827V39.1202V56.2208L395.594 97.9464L437.272 139.672V155.405V171.274L443.831 177.841C449.024 182.766 450.39 185.091 449.981 187.554C448.477 194.804 458.179 198.635 462.962 192.616C465.285 189.469 465.012 187.28 461.732 183.997Z" fill="#12DC01"/>
<path d="M458.453 384.416C455.31 382.364 454.764 382.364 451.484 384.553C448.478 386.468 448.068 387.7 448.614 391.12C449.161 394.677 448.341 396.455 444.788 400.696L440.415 405.758H408.44H376.464L365.805 394.129L355.147 382.501H284.09C214.945 382.501 213.032 382.364 210.436 379.765C207.02 376.345 203.33 376.208 200.461 379.491C197.728 382.501 197.454 386.742 199.777 389.068C202.374 391.667 208.796 390.983 210.709 387.973C212.486 385.237 213.989 385.237 283.406 385.237H354.327L364.439 396.181L374.687 407.126H408.576H442.602L446.838 401.79C449.981 397.823 451.894 396.729 454.217 397.139C461.323 398.507 464.602 388.52 458.453 384.416Z" fill="#12DC01"/>
<path d="M439.596 216.283C437.819 215.188 435.086 214.367 433.446 214.504C431.26 214.778 416.775 201.097 373.048 157.456L315.655 99.9982V82.2136V64.4289L295.431 44.1818L275.344 24.0714H268.922H262.362L204.287 81.8032C153.59 132.147 145.665 139.672 141.838 139.809C137.602 140.082 133.913 143.229 133.913 146.786C133.913 149.248 138.969 154.036 141.429 154.036C144.981 154.036 149.217 148.564 148.398 145.418C147.714 142.955 157.143 132.968 205.38 84.6761C262.226 27.6283 263.046 26.8075 268.512 26.8075C273.704 26.8075 274.934 27.6283 293.518 46.3706L312.922 65.797V83.4448V100.956L370.998 159.098C404.75 192.752 429.074 218.198 428.937 219.566C428.527 224.764 429.21 226.68 432.49 228.185C440.142 231.605 446.565 220.934 439.596 216.283Z" fill="#12DC01"/>
<path d="M427.57 45.8236C424.974 43.2243 424.701 41.5826 424.837 23.6611C424.974 12.8535 424.427 3.27717 423.608 2.18273C422.651 0.814675 422.241 6.97091 422.241 21.6091C422.241 38.1625 421.831 43.3611 420.328 44.1819C419.371 44.7291 417.868 46.5076 417.185 48.0124C413.769 54.7159 422.241 61.1457 427.707 56.2207C431.26 53.0742 431.123 49.3805 427.57 45.8236Z" fill="#12DC01"/>
<path d="M422.788 418.891C419.782 415.881 414.452 416.155 412.403 419.438C410.763 422.038 409.123 422.174 376.874 422.174H343.122L335.333 411.64C330.96 405.758 326.861 400.559 326.041 400.012C325.221 399.465 292.835 398.918 254.027 398.918H183.516L177.504 403.706L171.491 408.494H123.938C76.2472 408.494 76.2472 408.494 73.7875 405.484C71.7378 402.885 70.7813 402.611 67.5017 403.706C64.2221 404.937 63.5389 405.895 63.5389 409.725C63.5389 412.461 64.4954 414.924 65.7253 415.745C68.5949 417.523 75.154 415.881 75.154 413.282C75.154 412.188 75.9739 411.23 76.9304 411.23C77.7503 411.23 99.4774 411.23 125.167 411.23H171.764L177.777 406.442L183.79 401.654H254.437H325.084L333.42 413.282L341.755 424.911H376.191C409.123 424.911 410.763 425.047 412.403 427.647C415.545 432.845 424.974 429.835 424.974 423.542C424.974 422.174 424.018 419.986 422.788 418.891Z" fill="#12DC01"/>
<path d="M393.682 131.6C391.905 129.959 389.992 129.548 387.942 130.096C385.483 130.916 381.93 128.043 364.712 110.806C349.407 95.4839 344.625 89.8749 345.171 87.9596C345.581 86.5915 344.898 83.9922 343.668 82.077C340.662 77.5624 334.923 78.1096 332.19 83.1714C330.277 86.4547 330.277 87.002 332.6 89.6012C334.24 91.3797 336.836 92.4742 339.432 92.4742C343.122 92.4742 346.538 95.3471 363.892 112.721C374.961 123.803 383.706 133.379 383.16 133.926C381.52 135.431 383.98 141.587 386.849 143.092C389.036 144.323 390.402 144.186 392.998 142.408C396.961 139.809 397.234 134.884 393.682 131.6Z" fill="#12DC01"/>
<path d="M393.955 379.081C392.725 377.713 390.402 377.029 388.625 377.439C386.302 377.849 383.706 376.071 377.557 369.915L369.768 361.98H264.412H159.193L146.211 374.977L133.229 387.973H99.6139H65.8617L58.2094 380.175C52.3335 374.156 50.8304 371.693 51.377 369.368C52.1969 366.084 47.9608 360.612 44.6812 360.612C41.265 360.612 37.9854 364.306 37.9854 367.999C37.9854 372.788 39.8985 374.703 44.9545 374.703C48.0974 374.703 50.967 376.618 57.2529 382.501L65.4518 390.299L100.16 390.436L134.869 390.572L147.714 377.576L160.559 364.716H265.369H370.041L376.327 372.104C380.837 377.302 382.613 380.586 382.613 383.595C382.613 386.742 383.569 388.52 386.029 390.162C389.172 392.214 389.719 392.214 392.862 390.162C396.824 387.563 397.371 382.364 393.955 379.081Z" fill="#12DC01"/>
<path d="M388.079 27.9022C385.619 26.3973 385.346 24.6188 385.346 13.5376C385.346 6.01335 384.799 0.814758 383.979 0.814758C383.16 0.814758 382.613 5.73974 382.613 12.8536C382.613 23.2508 382.203 25.3029 379.88 27.4918C373.184 33.5112 380.017 43.3611 387.532 38.4362C391.632 35.8369 391.905 30.2279 388.079 27.9022Z" fill="#12DC01"/>
<path d="M375.644 242.002C374.004 237.351 366.762 237.214 363.619 241.729C361.979 244.054 360.066 244.328 345.035 244.328H328.364L301.171 216.967L273.978 189.606H263.866H253.617L235.716 207.39L217.678 225.175H191.169H164.659L130.223 259.65C99.6141 290.294 95.2413 294.125 91.2785 294.125C81.9864 294.398 81.8498 306.027 91.2785 306.985C95.9246 307.395 98.9308 303.975 98.111 299.05C97.8377 297.135 107.403 286.601 132.546 261.428L167.392 226.543H193.355H219.318L236.399 209.443L253.48 192.342H263.046H272.611L299.258 219.019L325.904 245.559L344.078 245.696C359.383 245.696 362.389 246.106 363.072 247.885C363.482 249.116 365.122 250.484 366.762 251.168C372.365 253.22 377.83 247.611 375.644 242.002Z" fill="#12DC01"/>
<path d="M368.675 561.989C364.302 557.611 355.83 562.126 357.06 568.282C357.606 571.155 353.097 576.217 324.811 604.262L292.015 636.958H270.015H248.014L232.026 620.952L216.175 605.083L206.2 605.356L196.361 605.63L166.845 576.217L137.192 546.667H115.739H94.1481L65.5885 517.664L36.8924 488.662V445.021L36.8924 401.243L25.4139 389.478C16.2584 380.175 13.9354 376.892 13.9354 373.745C14.0721 366.631 6.69304 363.759 2.04699 368.82C-0.00273865 371.009 -0.276036 372.377 0.817152 375.387C1.77369 378.26 3.14018 379.217 7.10298 379.765C11.0658 380.312 14.3454 382.638 23.2275 391.256L34.1594 402.064L34.1594 445.842V489.756L63.4022 518.896L92.645 548.035H114.372H135.963L165.342 577.448L194.721 606.861H204.287H213.989L230.523 623.278L247.058 639.694H270.151H293.108L325.904 606.861C354.463 578.269 359.246 574.028 362.799 574.028C367.992 574.028 370.315 571.839 370.315 567.188C370.315 565.272 369.631 562.947 368.675 561.989Z" fill="#12DC01"/>
<path d="M344.078 338.997C341.618 336.535 336.426 337.082 333.42 340.091C330.687 342.828 328.91 342.828 254.437 342.828C179.827 342.828 178.324 342.828 176.547 340.091C174.634 337.082 168.212 336.398 165.615 338.997C161.652 342.964 165.342 351.036 170.944 351.036C172.311 351.036 174.771 349.805 176.274 348.3C179.007 345.564 180.783 345.564 255.257 345.564C329.73 345.564 331.506 345.564 333.829 348.3C336.426 351.31 339.159 351.72 343.122 349.668C346.128 348.026 346.674 341.596 344.078 338.997Z" fill="#12DC01"/>
<path d="M338.065 213.684C336.972 212.452 334.103 211.495 331.916 211.495C328.5 211.495 324.127 207.801 303.903 187.554L279.99 163.613H253.753H227.517L204.287 186.87L181.056 210.127H161.242H141.428L120.931 230.647C104.806 246.927 99.8871 251.168 97.5641 250.621C90.7317 248.842 86.0856 257.872 91.2783 262.523C96.3343 267.038 102.483 263.754 102.483 256.64C102.483 253.494 106.036 249.253 122.707 232.836L142.795 212.863H162.609H182.423L205.653 189.606L228.883 166.349H254.163H279.443L303.083 190.016C320.848 207.801 326.45 214.231 325.767 216.009C324.537 219.429 328.773 225.175 332.6 225.175C336.152 225.175 340.252 221.345 340.252 217.924C340.252 216.83 339.295 214.778 338.065 213.684Z" fill="#12DC01"/>
<path d="M330.277 38.5729C329.183 37.068 326.724 36.1104 324.401 36.1104C318.798 36.1104 305.816 23.5243 306.91 19.1466C307.73 15.7265 303.493 10.3911 299.941 10.3911C297.344 10.3911 292.425 15.316 292.425 17.9153C292.425 21.4723 297.891 25.7132 301.034 24.8924C305.407 23.798 318.661 36.9312 317.568 41.309C316.612 44.8659 321.121 50.0645 324.947 50.0645C327.954 50.0645 332.053 45.9604 332.053 43.0875C332.053 41.8562 331.233 39.941 330.277 38.5729Z" fill="#12DC01"/>
<path d="M312.102 147.88C310.873 146.649 308.413 145.828 306.637 146.102C304.04 146.375 299.257 142.545 283.543 126.949L263.729 107.523H234.076L204.287 107.66L138.012 174.01C101.39 210.537 71.1911 239.95 70.6445 239.403C69.1414 237.761 62.9922 240.224 61.4891 243.097C60.2593 245.285 60.3959 246.653 62.1723 249.253C66.4084 255.819 76.1105 252.126 74.8806 244.191C74.6073 242.139 91.0052 225.038 140.062 175.925L205.653 110.259H234.349H263.046L282.176 129.412C298.028 145.418 301.171 149.248 300.897 152.121C300.214 156.636 302.81 159.509 307.593 159.509C313.606 159.509 316.475 152.258 312.102 147.88Z" fill="#12DC01"/>
<path d="M304.723 245.969C301.171 242.276 298.711 242.139 295.158 245.696C292.698 248.158 290.649 248.432 275.617 248.432C260.449 248.432 258.81 248.158 257.17 245.696C253.344 239.54 243.095 245.422 245.281 252.536C247.058 258.008 255.667 258.829 258.4 253.767C259.629 251.442 261.543 251.168 275.891 251.168C290.375 251.168 292.288 251.442 293.928 253.767C297.208 258.419 303.63 258.008 305.817 253.22C307.866 248.842 308.003 249.526 304.723 245.969Z" fill="#12DC01"/>
<path d="M301.717 79.0671C300.761 78.1095 298.164 77.4255 295.841 77.4255C292.425 77.4255 289.555 75.2366 279.58 65.2498C270.561 56.2207 267.692 52.3901 268.375 50.6117C268.785 49.3804 268.375 46.9179 267.145 45.1395C262.772 38.2992 252.25 43.4978 254.983 51.1589C255.94 54.0318 257.306 54.9894 260.996 55.2631C264.959 55.6735 267.965 57.8624 278.214 68.1227C286.959 76.7415 290.512 81.256 290.102 82.8977C289.009 87.0018 292.152 91.106 296.251 91.106C301.034 91.106 303.357 88.9171 303.357 84.2657C303.357 82.3505 302.674 80.0248 301.717 79.0671Z" fill="#12DC01"/>
<path d="M284.499 216.556C281.083 213.41 276.437 213.684 274.387 216.967C273.021 219.156 271.108 219.703 265.779 219.703H258.946L226.15 252.536L193.355 285.369H168.758H144.161L123.664 305.89L103.167 326.411H84.7192C67.7748 326.411 66.135 326.137 64.4953 323.675C62.3089 319.981 56.7063 320.118 54.11 323.948C51.377 327.779 51.377 329.831 54.11 332.43C57.1162 335.577 63.812 335.167 65.5884 331.883C66.9549 329.284 68.4581 329.147 85.8124 329.147H104.533L125.031 308.626L145.528 288.106H170.125H194.721L227.517 255.272C259.629 223.123 260.449 222.439 265.915 222.439C269.741 222.439 272.338 223.26 273.977 225.175C276.984 228.459 281.903 228.732 284.773 225.722C287.642 222.85 287.506 219.293 284.499 216.556Z" fill="#12DC01"/>
<path d="M259.356 135.157C256.76 132.558 250.337 133.242 248.424 136.252C246.784 138.851 245.145 138.988 226.151 138.988H205.653L182.423 162.245C162.472 182.218 158.646 185.502 155.093 185.502C149.901 185.502 147.578 187.69 147.578 192.615C147.578 196.309 150.721 199.182 154.957 199.182C158.51 199.182 161.516 194.941 160.833 190.974C160.149 187.69 162.609 184.818 182.97 164.57L205.927 141.724H226.287C245.008 141.724 246.921 141.998 249.107 144.46C251.84 147.743 255.94 148.017 258.81 145.007C261.406 142.545 261.679 137.483 259.356 135.157Z" fill="#12DC01"/>
<path d="M250.064 0.814758C248.834 0.814758 241.592 7.2446 233.939 14.9057C222.734 26.2605 219.181 28.9966 216.722 28.5862C209.616 27.2181 206.336 37.2049 212.486 41.3091C215.629 43.3611 216.175 43.3611 219.455 41.1723C222.051 39.5306 222.871 38.0257 222.461 34.8792C222.188 31.4591 223.964 28.9966 237.082 15.8633C245.281 7.65501 251.157 0.814758 250.064 0.814758Z" fill="#12DC01"/>
<path d="M222.734 0.814758C221.641 0.814758 213.579 8.20223 204.697 17.2314L188.572 33.5112V50.8854C188.572 66.8916 188.299 68.2597 185.566 70.4486C182.15 73.3215 182.969 79.2041 187.069 81.5298C190.349 83.1714 196.088 81.393 197.181 78.2464C198.274 75.2367 196.088 69.7645 193.491 68.8069C191.715 68.1229 191.305 65.1132 191.305 51.159V34.332L207.976 17.6418C217.268 8.33904 223.827 0.814758 222.734 0.814758Z" fill="#12DC01"/>
</svg>
