<svg width="523" height="178" viewBox="0 0 523 178" fill="none" xmlns="http://www.w3.org/2000/svg">
<path d="M266.032 170.629C264.193 170.629 262.703 172.12 262.703 173.958C262.703 175.797 264.193 177.288 266.032 177.288C267.871 177.288 269.362 175.797 269.362 173.958C269.362 172.12 267.871 170.629 266.032 170.629Z" fill="#F2F2F2"/>
<path d="M370.578 62.7533C369.843 62.7533 369.247 63.3496 369.247 64.0851C369.247 64.8206 369.843 65.4169 370.578 65.4169C371.314 65.4169 371.91 64.8206 371.91 64.0851C371.91 63.3496 371.314 62.7533 370.578 62.7533Z" fill="#F2F2F2"/>
<path d="M174.138 0.158752C173.403 0.158752 172.806 0.755014 172.806 1.49054C172.806 2.22607 173.403 2.82233 174.138 2.82233C174.874 2.82233 175.47 2.22607 175.47 1.49054C175.47 0.755014 174.874 0.158752 174.138 0.158752Z" fill="#F2F2F2"/>
<path d="M521.072 16.8062C520.336 16.8062 519.74 17.4025 519.74 18.138C519.74 18.8736 520.336 19.4698 521.072 19.4698C521.807 19.4698 522.403 18.8736 522.403 18.138C522.403 17.4025 521.807 16.8062 521.072 16.8062Z" fill="#F2F2F2"/>
<path d="M1.67014 64.0851C0.934627 64.0851 0.338379 64.6814 0.338379 65.4169C0.338379 66.1524 0.934627 66.7487 1.67014 66.7487C2.40564 66.7487 3.00189 66.1524 3.00189 65.4169C3.00189 64.6814 2.40564 64.0851 1.67014 64.0851Z" fill="#F2F2F2"/>
<path d="M429.177 50.1012C428.442 50.1012 427.846 50.6975 427.846 51.433C427.846 52.1685 428.442 52.7648 429.177 52.7648C429.913 52.7648 430.509 52.1685 430.509 51.433C430.509 50.6975 429.913 50.1012 429.177 50.1012Z" fill="#F2F2F2"/>
<path d="M210.763 76.7372C210.027 76.7372 209.431 77.3335 209.431 78.069C209.431 78.8045 210.027 79.4008 210.763 79.4008C211.498 79.4008 212.094 78.8045 212.094 78.069C212.094 77.3335 211.498 76.7372 210.763 76.7372Z" fill="#F2F2F2"/>
<path d="M166.813 172.627C166.078 172.627 165.481 173.223 165.481 173.958C165.481 174.694 166.078 175.29 166.813 175.29C167.549 175.29 168.145 174.694 168.145 173.958C168.145 173.223 167.549 172.627 166.813 172.627Z" fill="#F2F2F2"/>
<path d="M443.827 16.8062H445.159V16.1404H443.827V16.8062Z" fill="#F2F2F2"/>
<path d="M404.539 118.689H405.871V118.023H404.539V118.689Z" fill="#F2F2F2"/>
<path d="M308.65 42.7763H309.981V42.1104H308.65V42.7763Z" fill="#F2F2F2"/>
<path d="M54.2762 13.4767H55.608V12.8109H54.2762V13.4767Z" fill="#F2F2F2"/>
<path d="M133.518 115.359H134.85V114.693H133.518V115.359Z" fill="#F2F2F2"/>
</svg>
