<svg width="58" height="59" viewBox="0 0 58 59" fill="none" xmlns="http://www.w3.org/2000/svg">
<g clip-path="url(#clip0_320_26)">
<path d="M58 29C58 12.9837 45.0163 0 29 0C12.9837 0 0 12.9837 0 29V30C0 46.0163 12.9837 59 29 59C45.0163 59 58 46.0163 58 30V29Z" fill="#1D1D1D"/>
<path fill-rule="evenodd" clip-rule="evenodd" d="M-11.7479 49.0201L-8.96988 48.8496C-6.24234 48.7293 -0.736832 48.4386 3.71645 47.1175C8.22017 45.746 11.6212 43.3945 13.97 40.0125C16.3188 36.6305 17.6154 32.2181 20.7534 29.6089C23.8914 26.9997 28.9212 26.1435 32.5854 24.0495C36.2495 21.9556 38.5983 18.5736 39.6318 13.9036C40.6653 9.23353 40.3836 3.27549 42.5198 -0.414398C44.6055 -4.05399 49.0588 -5.37514 51.2602 -6.01057L53.5121 -6.69629L59.8255 -0.51376L58.3628 0.944777C56.9505 2.35302 54.0756 5.2198 51.2007 8.08658C48.2753 11.0037 45.4004 13.8704 42.5254 16.7372C39.6505 19.604 36.7756 22.4708 33.9006 25.3375C31.0257 28.2043 28.1003 31.1214 25.2254 33.9882C22.3505 36.855 19.4755 39.7217 16.6006 42.5885C13.7257 45.4553 10.8507 48.3221 7.92538 51.2392C5.05045 54.1059 2.17552 56.9727 0.763266 58.381L-0.699419 59.8395L-11.7479 49.0201Z" fill="#12DC01"/>
<path fill-rule="evenodd" clip-rule="evenodd" d="M70.5107 10.6873L67.7319 10.8454C65.0039 10.9534 59.4971 11.2195 55.0378 12.5207C50.5279 13.872 47.1161 16.2083 44.7518 19.5798C42.3875 22.9512 41.0707 27.3578 37.9208 29.9529C34.7709 32.548 29.7372 33.3817 26.0635 35.4593C22.3899 37.5368 20.0256 40.9083 18.9707 45.5736C17.9158 50.239 18.1702 56.1982 16.0172 59.8785C13.9148 63.5087 9.45547 64.8099 7.25116 65.4355L4.99619 66.1112L-1.28882 59.9005L0.180531 58.4485C1.59921 57.0466 4.48725 54.1927 7.37528 51.3388C10.314 48.4348 13.202 45.5809 16.09 42.727C18.9781 39.8732 21.8661 37.0193 24.7541 34.1654C27.6422 31.3115 30.5809 28.4075 33.4689 25.5536C36.357 22.6997 39.245 19.8458 42.133 16.992C45.0211 14.1381 47.9091 11.2842 50.8478 8.38022C53.7358 5.52633 56.6239 2.67244 58.0425 1.27053L59.5119 -0.181458L70.5107 10.6873Z" fill="#12DC01"/>
<path d="M56.5 29C56.5 13.8122 44.1878 1.5 29 1.5C13.8122 1.5 1.5 13.8122 1.5 29V30C1.5 45.1878 13.8122 57.5 29 57.5C44.1878 57.5 56.5 45.1878 56.5 30V29Z" stroke="#12DC01" stroke-width="3"/>
</g>
<defs>
<clipPath id="clip0_320_26">
<rect width="58" height="59" fill="white"/>
</clipPath>
</defs>
</svg>
