<svg width="50" height="50" viewBox="0 0 50 50" fill="none" xmlns="http://www.w3.org/2000/svg">
<path d="M28.6432 14.8877L28.4997 14.8877L28.4279 15.0069L22.7067 24.5058L22.6326 24.6287L22.7079 24.7537L28.4291 34.2526L28.5044 34.3775L28.6525 34.3775L40.0951 34.3775L40.2386 34.3775L40.3103 34.2584L46.0316 24.7595L46.1057 24.6365L46.0304 24.5116L40.3091 15.0127L40.2339 14.8877L40.0858 14.8877L28.6432 14.8877Z" fill="#2C2C2C" stroke="#64DF71" stroke-width="0.5"/>
<path d="M34.4999 24.6325L40.2499 14.9929M34.4999 24.6325H22.7499M34.4999 24.6325L40.2499 34.2721" stroke="#64DF71" stroke-width="0.5"/>
<path d="M9.90488 25.272L9.76136 25.272L9.6896 25.3912L3.96833 34.89L3.89427 35.013L3.96952 35.138L9.69079 44.6368L9.76605 44.7618L9.91418 44.7618L21.3567 44.7618L21.5002 44.7618L21.572 44.6427L27.2933 35.1438L27.3673 35.0208L27.2921 34.8958L21.5708 25.397L21.4955 25.272L21.3474 25.272L9.90488 25.272Z" fill="#2C2C2C" stroke="#64DF71" stroke-width="0.5"/>
<path d="M15.5 34.7797L21.5 25.3938M15.5 34.7797L4 35.0334M15.5 34.7797L21.5 44.673" stroke="#64DF71" stroke-width="0.5"/>
<path d="M9.90489 4.50333L9.76137 4.50333L9.68961 4.62247L3.96834 14.1214L3.89428 14.2443L3.96954 14.3693L9.6908 23.8682L9.76606 23.9931L9.91419 23.9931L21.3567 23.9931L21.5002 23.9931L21.572 23.874L27.2933 14.3751L27.3673 14.2521L27.2921 14.1272L21.5708 4.62828L21.4956 4.50334L21.3474 4.50334L9.90489 4.50333Z" fill="#2C2C2C" stroke="#64DF71" stroke-width="0.5"/>
<path d="M15.5 13.9849L21.5 4.84595M15.5 13.9849L4 14.2319M15.5 13.9849L21.5 23.6178" stroke="#64DF71" stroke-width="0.5"/>
</svg>
