<svg width="19" height="19" viewBox="0 0 19 19" fill="none" xmlns="http://www.w3.org/2000/svg">
<path d="M15.005 0H3.002C2.20638 0.00237536 1.44404 0.319556 0.881536 0.882243C0.319038 1.44493 0.00211037 2.20738 0 3.003V15.005C0.00289975 15.8002 0.320144 16.562 0.882529 17.1242C1.44491 17.6864 2.2068 18.0034 3.002 18.006H15.005C15.8 18.0031 16.5617 17.686 17.1238 17.1238C17.686 16.5617 18.0031 15.8 18.006 15.005V3.003C18.0036 2.20763 17.6868 1.44549 17.1245 0.882884C16.5623 0.320283 15.8004 0.00290121 15.005 0V0ZM13.365 12.647C13.213 13.007 12.976 13.327 12.672 13.574C12.3125 13.8532 11.9033 14.0615 11.466 14.188C10.976 14.339 10.392 14.417 9.716 14.417H4.891V3.912H9.994C10.937 3.912 11.694 4.125 12.261 4.558C12.83 4.994 13.115 5.64 13.115 6.516C13.115 7.044 12.985 7.499 12.726 7.873C12.467 8.246 12.096 8.537 11.615 8.741V8.775C12.257 8.91 12.752 9.213 13.079 9.687C13.406 10.16 13.572 10.756 13.572 11.476C13.572 11.881 13.494 12.264 13.347 12.623L13.367 12.644V12.647H13.365ZM11.281 10.058C10.972 9.776 10.542 9.639 9.984 9.639H6.74V12.915H9.993C10.547 12.915 10.984 12.771 11.291 12.48C11.599 12.191 11.755 11.779 11.755 11.251C11.75 10.733 11.599 10.332 11.291 10.058H11.277H11.281V10.058ZM10.83 7.939C11.129 7.688 11.274 7.326 11.274 6.855C11.274 6.329 11.143 5.953 10.877 5.739C10.613 5.525 10.231 5.413 9.731 5.413H6.73V8.311H9.731C10.167 8.312 10.541 8.184 10.83 7.939V7.939Z" fill="#583979"/>
</svg>
