<svg width="17" height="19" viewBox="0 0 17 19" fill="none" xmlns="http://www.w3.org/2000/svg">
<path d="M16.5211 9.66733C13.7988 9.71944 14.3659 11.4002 12.4473 11.8252C10.4983 12.257 10.1907 7.18293 8.24219 7.18293C6.29346 7.18293 5.86178 12.1119 3.42173 15.4956L3.35211 15.5914L8.58357 18.5366L16.5211 14.0676V9.66733Z" fill="#36A2EB"/>
<path d="M16.5211 9.42694C15.6086 8.27525 14.9897 6.95122 13.6581 6.95122C11.3017 6.95122 11.9217 10.7317 9.31741 10.7317C6.71287 10.7317 6.43905 6.66527 3.48854 10.4878C2.54838 11.7058 1.79162 13.0638 1.19718 14.3489L8.57333 18.5366L16.5211 14.0244V9.42694Z" fill="#FFCE56"/>
<path d="M0.478873 10.9315C1.38132 8.47628 1.77081 6.4878 3.49367 6.4878C6.12194 6.4878 6.74756 13.7418 9.00072 13.0038C11.2535 12.2662 11.0031 8.33178 14.5078 8.33178C15.1748 8.33178 15.8559 8.73327 16.5211 9.38268V13.9875L8.50018 18.5366L0.478996 13.9875L0.478873 10.9315Z" fill="#FE6184"/>
<path d="M8.5 19L0 14.2501V4.75L8.5 0L17 4.75V14.25L8.5 19ZM0.99865 13.692L8.5 17.884L16.0013 13.692V5.30813L8.5 1.11613L0.99865 5.30813V13.692Z" fill="#E7E9ED"/>
</svg>
