<svg width="19" height="18" viewBox="0 0 19 18" fill="none" xmlns="http://www.w3.org/2000/svg">
<path d="M9.5 18C14.7467 18 19 13.9706 19 9C19 4.02944 14.7467 0 9.5 0C4.25329 0 0 4.02944 0 9C0 13.9706 4.25329 18 9.5 18Z" fill="#16181A"/>
<path d="M17.4167 9C17.4167 7.365 13.87 5.88 9.5 5.88C5.13 5.88 1.58333 7.365 1.58333 9C1.58333 10.635 5.13 12.12 9.5 12.12C13.87 12.12 17.4167 10.635 17.4167 9ZM16.7042 9C16.7042 10.08 13.4742 11.445 9.5 11.445C5.52583 11.445 2.29583 10.08 2.29583 9C2.29583 7.92 5.52583 6.555 9.5 6.555C13.4742 6.555 16.7042 7.92 16.7042 9Z" fill="white"/>
<path d="M9.5 3.975C9.32583 4.125 9.15167 4.29 8.9775 4.455C8.17 5.265 7.34667 6.27 6.65 7.44C4.465 11.025 4.05333 14.685 5.54167 15.495C6.44417 15.99 7.96417 15.39 9.5 14.04C11.0358 15.39 12.5558 15.99 13.4583 15.495C14.9467 14.685 14.535 11.025 12.35 7.44C11.6375 6.27 10.83 5.265 10.0067 4.455C9.84833 4.275 9.67417 4.125 9.5 3.975ZM9.5 4.935C10.2758 5.7 11.0517 6.66 11.7325 7.785C13.7275 11.04 14.0917 14.37 13.0942 14.91C12.5242 15.225 11.305 14.7 10.0067 13.56C9.8325 13.41 9.65833 13.245 9.48417 13.08C9.31 13.245 9.13583 13.41 8.96167 13.56C7.66333 14.7 6.46 15.24 5.87417 14.91C4.87667 14.37 5.25667 11.04 7.23583 7.785C7.94833 6.66 8.72417 5.7 9.5 4.935Z" fill="#888B8C"/>
<path d="M9.5 14.025C9.67417 13.875 9.84833 13.71 10.0225 13.545C10.8458 12.735 11.6533 11.715 12.3658 10.56C14.5508 6.975 14.9625 3.315 13.4742 2.505C12.5717 2.01 11.0517 2.61 9.51583 3.96C7.98 2.61 6.46 2.01 5.5575 2.505C4.06917 3.315 4.48083 6.975 6.66583 10.56C7.37833 11.73 8.18583 12.735 9.00917 13.545C9.15167 13.725 9.32583 13.875 9.5 14.025ZM9.5 13.065C8.72417 12.3 7.94833 11.34 7.2675 10.215C5.2725 6.96 4.90833 3.63 5.90583 3.09C6.47583 2.775 7.695 3.3 8.99333 4.44C9.1675 4.59 9.34167 4.755 9.51583 4.92C9.69 4.755 9.86417 4.59 10.0383 4.44C11.3367 3.3 12.54 2.76 13.1258 3.09C14.1233 3.63 13.7433 6.96 11.7642 10.215C11.0517 11.34 10.2758 12.3 9.5 13.065Z" fill="#E3463B"/>
<path d="M9.5 11.445C5.52583 11.445 2.29583 10.08 2.29583 9H1.58333C1.58333 10.56 4.82917 12 8.93 12.12" fill="white"/>
<path d="M9.5 6.555C13.4742 6.555 16.7042 7.92 16.7042 9H17.4167C17.4167 7.365 13.87 5.88 9.5 5.88V6.555Z" fill="white"/>
<path d="M9.5 10.395C10.3132 10.395 10.9725 9.77044 10.9725 9C10.9725 8.22956 10.3132 7.605 9.5 7.605C8.68676 7.605 8.0275 8.22956 8.0275 9C8.0275 9.77044 8.68676 10.395 9.5 10.395Z" fill="white"/>
<path d="M13.4583 15.495C14.9467 14.685 14.535 11.025 12.35 7.44C11.6375 6.27 11.0517 6.66 11.7325 7.785C13.7275 11.04 14.0917 14.37 13.0942 14.91L13.4583 15.495Z" fill="#888B8C"/>
</svg>
