<svg width="21" height="18" viewBox="0 0 21 18" fill="none" xmlns="http://www.w3.org/2000/svg">
<path d="M10.01 10.6912C10.9958 10.6912 11.795 9.89198 11.795 8.90615C11.795 7.92033 10.9958 7.12115 10.01 7.12115C9.02415 7.12115 8.22498 7.92033 8.22498 8.90615C8.22498 9.89198 9.02415 10.6912 10.01 10.6912Z" fill="#61DAFB"/>
<path d="M5.012 12.4551L4.617 12.3541C1.683 11.6131 0 10.3531 0 8.90212C0 7.45012 1.684 6.19112 4.617 5.45012L5.012 5.35012L5.123 5.74112C5.41954 6.76482 5.79948 7.76249 6.259 8.72412L6.344 8.90212L6.259 9.08012C5.799 10.0431 5.418 11.0411 5.123 12.0651L5.012 12.4551ZM4.435 6.36012C2.206 6.98812 0.837 7.94612 0.837 8.90212C0.837 9.85612 2.205 10.8151 4.435 11.4421C4.708 10.5741 5.038 9.72512 5.42 8.90212C5.03523 8.07775 4.70616 7.22851 4.435 6.36012ZM15.007 12.4551L14.897 12.0631C14.5997 11.0392 14.2194 10.0413 13.76 9.07912L13.675 8.90212L13.76 8.72312C14.22 7.76212 14.599 6.76312 14.897 5.73912L15.007 5.34912L15.402 5.44912C18.337 6.19012 20.019 7.44912 20.019 8.90212C20.019 10.3541 18.336 11.6131 15.402 12.3541L15.007 12.4551ZM14.597 8.90212C14.997 9.76812 15.33 10.6201 15.584 11.4421C17.814 10.8151 19.183 9.85612 19.183 8.90212C19.183 7.94612 17.815 6.98912 15.584 6.36012C15.3113 7.22824 14.9816 8.07742 14.597 8.90212Z" fill="#61DAFB"/>
<path d="M4.42903 6.35613L4.31903 5.96613C3.49303 3.05813 3.74303 0.975131 5.00603 0.249131C6.24103 -0.465869 8.22803 0.379132 10.309 2.51413L10.593 2.80613L10.309 3.09713C9.56991 3.86582 8.89436 4.6932 8.28903 5.57113L8.17603 5.73313L7.98003 5.74913C6.91562 5.83273 5.85979 6.00296 4.82303 6.25813L4.42903 6.35613ZM6.01103 0.827131C5.78703 0.827131 5.58903 0.876131 5.42203 0.972131C4.59403 1.44913 4.44803 3.11013 5.01803 5.35213C5.90903 5.15513 6.80803 5.01413 7.71403 4.93513C8.23855 4.19119 8.81075 3.48203 9.42703 2.81213C8.12403 1.54513 6.89403 0.827131 6.01103 0.827131ZM14.008 17.8111C12.82 17.8111 11.294 16.9151 9.71003 15.2891L9.42703 14.9981L9.71003 14.7081C10.4493 13.9382 11.1251 13.1099 11.731 12.2311L11.843 12.0711L12.037 12.0521C13.1018 11.97 14.158 11.8004 15.195 11.5451L15.59 11.4451L15.701 11.8361C16.523 14.7421 16.274 16.8281 15.013 17.5541C14.7069 17.7277 14.3599 17.8164 14.008 17.8111ZM10.593 14.9911C11.895 16.2581 13.126 16.9771 14.008 16.9771C14.233 16.9771 14.431 16.9271 14.597 16.8321C15.426 16.3541 15.573 14.6901 15.001 12.4481C14.111 12.6461 13.211 12.7881 12.303 12.8671C11.7807 13.6123 11.2095 14.3218 10.593 14.9911Z" fill="#61DAFB"/>
<path d="M15.59 6.35614L15.195 6.25714C14.1581 6.00118 13.1019 5.83094 12.037 5.74814L11.843 5.73114L11.731 5.56914C11.126 4.69073 10.45 3.8633 9.71002 3.09514L9.42702 2.80414L9.71002 2.51414C11.79 0.380143 13.776 -0.464857 15.013 0.249143C16.275 0.976143 16.526 3.05914 15.701 5.96614L15.59 6.35614ZM12.303 4.93514C13.257 5.02014 14.161 5.16314 15.001 5.35214C15.572 3.11014 15.426 1.44914 14.597 0.971143C13.773 0.494143 12.222 1.22414 10.593 2.81214C11.209 3.48214 11.781 4.19014 12.303 4.93514ZM6.01102 17.8111C5.65915 17.8162 5.31228 17.7275 5.00602 17.5541C3.74302 16.8281 3.49302 14.7431 4.31802 11.8361L4.42602 11.4451L4.82102 11.5451C5.78502 11.7881 6.84702 11.9591 7.97902 12.0521L8.17302 12.0711L8.28602 12.2311C8.89002 13.1091 9.56602 13.9381 10.306 14.7081L10.59 14.9981L10.306 15.2891C8.72302 16.9161 7.19702 17.8111 6.01102 17.8111ZM5.01802 12.4491C4.44802 14.6911 4.59402 16.3551 5.42202 16.8331C6.24702 17.3031 7.79302 16.5781 9.42702 14.9911C8.81097 14.321 8.23878 13.6119 7.71402 12.8681C6.80711 12.7879 5.90649 12.648 5.01802 12.4491Z" fill="#61DAFB"/>
<path d="M10.01 12.9742C9.32304 12.9742 8.61804 12.9452 7.91004 12.8862L7.71404 12.8692L7.60104 12.7072C7.2018 12.1331 6.82615 11.5429 6.47504 10.9382C6.12653 10.3318 5.8026 9.71162 5.50404 9.07916L5.42 8.90212L5.50404 8.72316C5.80304 8.09116 6.12604 7.47116 6.47504 6.86516C6.82204 6.26916 7.20104 5.67316 7.60104 5.09516L7.71403 4.93513L7.91004 4.91716C9.30693 4.80016 10.7112 4.80016 12.108 4.91716L12.302 4.93616L12.415 5.09616C13.2148 6.24491 13.9173 7.45846 14.515 8.72416L14.598 8.90316L14.515 9.08016C13.9189 10.3467 13.2164 11.5604 12.415 12.7082L12.302 12.8702L12.108 12.8872C11.402 12.9442 10.696 12.9742 10.01 12.9742ZM8.17604 12.0702C9.41104 12.1632 10.609 12.1641 11.843 12.0711C12.5319 11.0623 13.1443 10.0024 13.675 8.90212C13.1461 7.80088 12.5337 6.74182 11.843 5.73416C10.6225 5.64016 9.39657 5.64016 8.17604 5.73416C7.48478 6.74145 6.87225 7.80056 6.344 8.90212C6.87588 10.0018 7.48825 11.0607 8.17604 12.0702Z" fill="#61DAFB"/>
</svg>
